<?xml version="1.0" encoding="utf-8"?>
<svg version="1.1" xmlns:xlink="http://www.w3.org/1999/xlink" width="108px" height="93px" xmlns="http://www.w3.org/2000/svg">
  <g transform="matrix(1 0 0 1 -900 -160 )">
    <path d="M 900 160  L 1008 160  L 1008 253  L 900 253  L 900 160  " fill-rule="nonzero" fill="#cccccc" stroke="none" />
    <path d="M 907 167  L 1001 167  L 1001 246  L 907 246  L 907 167  " fill-rule="nonzero" fill="#ffffff" stroke="none" />
    <path d="M 963.135 187.9  C 959.229 187.9  956.16 184.831  956.16 180.925  C 956.16 177.019  959.229 173.95  963.135 173.95  C 967.041 173.95  970.11 177.019  970.11 180.925  C 970.11 184.831  967.041 187.9  963.135 187.9  " fill-rule="nonzero" fill="#cccccc" stroke="none" />
    <path d="M 910 244  L 910 203.3  L 932.25 184.8  L 963.4 205.766666666667  L 981.2 195.9  L 999 205.766666666667  L 999 244  L 910 244  " fill-rule="nonzero" fill="#169bd5" stroke="none" />
  </g>
</svg>