<?xml version="1.0" encoding="utf-8"?>
<svg version="1.1" xmlns:xlink="http://www.w3.org/1999/xlink" width="13px" height="12px" xmlns="http://www.w3.org/2000/svg">
  <g transform="matrix(1 0 0 1 -1342 -139 )">
    <path d="M 13 1.28571428571429  C 13 0.575892857142857  12.4541015625 0  11.78125 0  L 1.21875 0  C 0.5458984375 0  0 0.575892857142857  0 1.28571428571429  L 0 10.7142857142857  C 0 11.4241071428571  0.5458984375 12  1.21875 12  L 11.78125 12  C 12.4541015625 12  13 11.4241071428571  13 10.7142857142857  L 13 1.28571428571429  Z M 11.78125 1.44642857142857  L 11.78125 10.5535714285714  C 11.78125 10.6419642857143  11.7126953125 10.7142857142857  11.62890625 10.7142857142857  L 1.37109375 10.7142857142857  C 1.2873046875 10.7142857142857  1.21875 10.6419642857143  1.21875 10.5535714285714  L 1.21875 1.44642857142857  C 1.21875 1.35803571428571  1.2873046875 1.28571428571429  1.37109375 1.28571428571429  L 11.62890625 1.28571428571429  C 11.7126953125 1.28571428571429  11.78125 1.35803571428571  11.78125 1.44642857142857  Z M 9.0517578125 3.90535714285714  C 9.17109375 4.02857142857143  9.17109375 4.22946428571428  9.0517578125 4.35535714285714  L 7.4927734375 6  L 9.0517578125 7.64464285714286  C 9.1685546875 7.76785714285714  9.1685546875 7.96875  9.0517578125 8.09464285714286  L 8.485546875 8.69196428571428  C 8.36875 8.81517857142857  8.1783203125 8.81517857142857  8.058984375 8.69196428571428  L 6.5 7.04732142857143  L 4.941015625 8.69196428571428  C 4.82421875 8.81517857142857  4.6337890625 8.81517857142857  4.514453125 8.69196428571428  L 3.9482421875 8.09464285714286  C 3.8314453125 7.97142857142857  3.8314453125 7.77053571428571  3.9482421875 7.64464285714286  L 5.5072265625 6  L 3.9482421875 4.35535714285714  C 3.8314453125 4.23214285714286  3.8314453125 4.03125  3.9482421875 3.90535714285714  L 4.514453125 3.30803571428571  C 4.63125 3.18482142857143  4.8216796875 3.18482142857143  4.941015625 3.30803571428571  L 6.5 4.95267857142857  L 8.058984375 3.30803571428571  C 8.17578125 3.18482142857143  8.3662109375 3.18482142857143  8.485546875 3.30803571428571  L 9.0517578125 3.90535714285714  Z " fill-rule="nonzero" fill="#000000" stroke="none" transform="matrix(1 0 0 1 1342 139 )" />
  </g>
</svg>