<?xml version="1.0" encoding="utf-8"?>
<svg version="1.1" xmlns:xlink="http://www.w3.org/1999/xlink" width="11px" height="11px" xmlns="http://www.w3.org/2000/svg">
  <g transform="matrix(1 0 0 1 -1113 -239 )">
    <path d="M 1119.5 239.5  L 1117.5 239.5  L 1117.5 243.5  L 1113.5 243.5  L 1113.5 245.5  L 1117.5 245.5  L 1117.5 249.5  L 1119.5 249.5  L 1119.5 245.5  L 1123.5 245.5  L 1123.5 243.5  L 1119.5 243.5  L 1119.5 239.5  Z " fill-rule="nonzero" fill="#ffffff" stroke="none" />
    <path d="M 1119.5 239.5  L 1117.5 239.5  L 1117.5 243.5  L 1113.5 243.5  L 1113.5 245.5  L 1117.5 245.5  L 1117.5 249.5  L 1119.5 249.5  L 1119.5 245.5  L 1123.5 245.5  L 1123.5 243.5  L 1119.5 243.5  L 1119.5 239.5  Z " stroke-width="1" stroke="#797979" fill="none" />
  </g>
</svg>