<?xml version="1.0" encoding="utf-8"?>
<svg version="1.1" xmlns:xlink="http://www.w3.org/1999/xlink" width="33px" height="27px" xmlns="http://www.w3.org/2000/svg">
  <g transform="matrix(1 0 0 1 -1086 -151 )">
    <path d="M 1086 151  L 1119 151  L 1119 178  L 1086 178  L 1086 151  " fill-rule="nonzero" fill="#cccccc" stroke="none" />
    <path d="M 1088 153  L 1117 153  L 1117 176  L 1088 176  L 1088 153  " fill-rule="nonzero" fill="#ffffff" stroke="none" />
    <path d="M 1105.185 159.1  C 1104.051 159.1  1103.16 158.209  1103.16 157.075  C 1103.16 155.941  1104.051 155.05  1105.185 155.05  C 1106.319 155.05  1107.21 155.941  1107.21 157.075  C 1107.21 158.209  1106.319 159.1  1105.185 159.1  " fill-rule="nonzero" fill="#cccccc" stroke="none" />
    <path d="M 1089 176  L 1089 163.9  L 1096 158.4  L 1105.8 165.2  L 1111.4 161.7  L 1117 165.2  L 1117 176  L 1089 176  " fill-rule="nonzero" fill="#169bd5" stroke="none" />
  </g>
</svg>