<?xml version="1.0" encoding="utf-8"?>
<svg version="1.1" xmlns:xlink="http://www.w3.org/1999/xlink" width="10px" height="10px" xmlns="http://www.w3.org/2000/svg">
  <g transform="matrix(1 0 0 1 -1289 -205 )">
    <path d="M 1294 205  C 1296.8 205  1299 207.2  1299 210  C 1299 212.8  1296.8 215  1294 215  C 1291.2 215  1289 212.8  1289 210  C 1289 207.2  1291.2 205  1294 205  Z " fill-rule="nonzero" fill="#ffffff" stroke="none" />
    <path d="M 1294 205.5  C 1296.52 205.5  1298.5 207.48  1298.5 210  C 1298.5 212.52  1296.52 214.5  1294 214.5  C 1291.48 214.5  1289.5 212.52  1289.5 210  C 1289.5 207.48  1291.48 205.5  1294 205.5  Z " stroke-width="1" stroke="#797979" fill="none" />
  </g>
</svg>