<?xml version="1.0" encoding="utf-8"?>
<svg version="1.1" xmlns:xlink="http://www.w3.org/1999/xlink" width="6px" height="6px" xmlns="http://www.w3.org/2000/svg">
  <g transform="matrix(1 0 0 1 -274 -213 )">
    <path d="M 277 213  C 278.68 213  280 214.32  280 216  C 280 217.68  278.68 219  277 219  C 275.32 219  274 217.68  274 216  C 274 214.32  275.32 213  277 213  Z " fill-rule="nonzero" fill="#000000" stroke="none" />
    <path d="M 277 213.5  C 278.4 213.5  279.5 214.6  279.5 216  C 279.5 217.4  278.4 218.5  277 218.5  C 275.6 218.5  274.5 217.4  274.5 216  C 274.5 214.6  275.6 213.5  277 213.5  Z " stroke-width="1" stroke="#797979" fill="none" />
  </g>
</svg>