<?xml version="1.0" encoding="utf-8"?>
<svg version="1.1" xmlns:xlink="http://www.w3.org/1999/xlink" width="96px" height="96px" xmlns="http://www.w3.org/2000/svg">
  <g transform="matrix(1 0 0 1 -229 -168 )">
    <path d="M 277 168  C 303.88 168  325 189.12  325 216  C 325 242.88  303.88 264  277 264  C 250.12 264  229 242.88  229 216  C 229 189.12  250.12 168  277 168  Z " fill-rule="nonzero" fill="#ffffff" stroke="none" />
    <path d="M 277 168.5  C 303.6 168.5  324.5 189.4  324.5 216  C 324.5 242.6  303.6 263.5  277 263.5  C 250.4 263.5  229.5 242.6  229.5 216  C 229.5 189.4  250.4 168.5  277 168.5  Z " stroke-width="1" stroke="#797979" fill="none" />
  </g>
</svg>