<?xml version="1.0" encoding="utf-8"?>
<svg version="1.1" xmlns:xlink="http://www.w3.org/1999/xlink" width="96px" height="96px" xmlns="http://www.w3.org/2000/svg">
  <g transform="matrix(1 0 0 1 -310 -163 )">
    <path d="M 358 163  C 384.88 163  406 184.12  406 211  C 406 237.88  384.88 259  358 259  C 331.12 259  310 237.88  310 211  C 310 184.12  331.12 163  358 163  Z " fill-rule="nonzero" fill="#ffffff" stroke="none" fill-opacity="0" />
    <path d="M 358 163.5  C 384.6 163.5  405.5 184.4  405.5 211  C 405.5 237.6  384.6 258.5  358 258.5  C 331.4 258.5  310.5 237.6  310.5 211  C 310.5 184.4  331.4 163.5  358 163.5  Z " stroke-width="1" stroke="#797979" fill="none" />
  </g>
</svg>