<?xml version="1.0" encoding="utf-8"?>
<svg version="1.1" xmlns:xlink="http://www.w3.org/1999/xlink" width="15px" height="15px" xmlns="http://www.w3.org/2000/svg">
  <g transform="matrix(1 0 0 1 -646 -400 )">
    <path d="M 653.5 400  C 657.7 400  661 403.3  661 407.5  C 661 411.7  657.7 415  653.5 415  C 649.3 415  646 411.7  646 407.5  C 646 403.3  649.3 400  653.5 400  Z " fill-rule="nonzero" fill="#ffffff" stroke="none" />
    <path d="M 653.5 400.5  C 657.42 400.5  660.5 403.58  660.5 407.5  C 660.5 411.42  657.42 414.5  653.5 414.5  C 649.58 414.5  646.5 411.42  646.5 407.5  C 646.5 403.58  649.58 400.5  653.5 400.5  Z " stroke-width="1" stroke="#797979" fill="none" />
  </g>
</svg>