<?xml version="1.0" encoding="utf-8"?>
<svg version="1.1" xmlns:xlink="http://www.w3.org/1999/xlink" width="86px" height="91px" xmlns="http://www.w3.org/2000/svg">
  <g transform="matrix(1 0 0 1 -800 -120 )">
    <path d="M 800 120  L 886 120  L 886 211  L 800 211  L 800 120  " fill-rule="nonzero" fill="#cccccc" stroke="none" />
    <path d="M 806 126  L 880 126  L 880 205  L 806 205  L 806 126  " fill-rule="nonzero" fill="#ffffff" stroke="none" />
    <path d="M 851.17 146.55  C 847.558 146.55  844.72 143.712  844.72 140.1  C 844.72 136.488  847.558 133.65  851.17 133.65  C 854.782 133.65  857.62 136.488  857.62 140.1  C 857.62 143.712  854.782 146.55  851.17 146.55  " fill-rule="nonzero" fill="#cccccc" stroke="none" />
    <path d="M 808 203  L 808 161.75  L 825.5 143  L 850 158  L 864 154.25  L 878 158  L 878 203  L 808 203  " fill-rule="nonzero" fill="#169bd5" stroke="none" />
  </g>
</svg>