<?xml version="1.0" encoding="utf-8"?>
<svg version="1.1" xmlns:xlink="http://www.w3.org/1999/xlink" width="116px" height="87px" xmlns="http://www.w3.org/2000/svg">
  <g transform="matrix(1 0 0 1 -801 -320 )">
    <path d="M 801 320  L 917 320  L 917 407  L 801 407  L 801 320  " fill-rule="nonzero" fill="#cccccc" stroke="none" />
    <path d="M 807 326  L 911 326  L 911 401  L 807 401  L 807 326  " fill-rule="nonzero" fill="#ffffff" stroke="none" />
    <path d="M 867.845 346.1  C 864.191 346.1  861.32 343.229  861.32 339.575  C 861.32 335.921  864.191 333.05  867.845 333.05  C 871.499 333.05  874.37 335.921  874.37 339.575  C 874.37 343.229  871.499 346.1  867.845 346.1  " fill-rule="nonzero" fill="#cccccc" stroke="none" />
    <path d="M 809 399  L 809 359.95  L 834 342.2  L 869 367.05  L 889 352.85  L 909 367.05  L 909 399  L 809 399  " fill-rule="nonzero" fill="#169bd5" stroke="none" />
  </g>
</svg>