<?xml version="1.0" encoding="utf-8"?>
<svg version="1.1" xmlns:xlink="http://www.w3.org/1999/xlink" width="7px" height="9px" xmlns="http://www.w3.org/2000/svg">
  <g transform="matrix(1 0 0 1 -95 -282 )">
    <path d="M 98.5 282  C 100.46 282  102 283.98  102 286.5  C 102 289.02  100.46 291  98.5 291  C 96.54 291  95 289.02  95 286.5  C 95 283.98  96.54 282  98.5 282  Z " fill-rule="nonzero" fill="#ffffff" stroke="none" />
    <path d="M 98.5 282.5  C 100.18 282.5  101.5 284.26  101.5 286.5  C 101.5 288.74  100.18 290.5  98.5 290.5  C 96.82 290.5  95.5 288.74  95.5 286.5  C 95.5 284.26  96.82 282.5  98.5 282.5  Z " stroke-width="1" stroke="#0000ff" fill="none" />
  </g>
</svg>