<?xml version="1.0" encoding="utf-8"?>
<svg version="1.1" xmlns:xlink="http://www.w3.org/1999/xlink" width="100px" height="60px" xmlns="http://www.w3.org/2000/svg">
  <defs>
    <linearGradient gradientUnits="userSpaceOnUse" x1="50" y1="0" x2="50" y2="60" id="LinearGradient64">
      <stop id="Stop65" stop-color="#ffffff" offset="0" />
      <stop id="Stop66" stop-color="#f2f2f2" offset="0" />
      <stop id="Stop67" stop-color="#e4e4e4" offset="1" />
      <stop id="Stop68" stop-color="#ffffff" offset="1" />
    </linearGradient>
    <mask fill="white" id="clip69">
      <path d="M 86.3861386138614 0.254237288135599  L 12.1287128712871 0.254237288135599  C 12.1287128712871 0.254237288135599  0.766014791910351 13.3329471532765  0.742574257425744 30  C 0.718960100661477 46.7905044562601  12.1287128712871 60  12.1287128712871 60  L 86.3861386138614 60  C 86.3861386138614 60  99.0353052030451 46.7886742939947  99.009900990099 30  C 98.9846780590572 13.3311279944478  86.3861386138614 0.254237288135599  86.3861386138614 0.254237288135599  Z " fill-rule="evenodd" />
    </mask>
  </defs>
  <g transform="matrix(1 0 0 1 -120 -72 )">
    <path d="M 86.3861386138614 0.254237288135599  L 12.1287128712871 0.254237288135599  C 12.1287128712871 0.254237288135599  0.766014791910351 13.3329471532765  0.742574257425744 30  C 0.718960100661477 46.7905044562601  12.1287128712871 60  12.1287128712871 60  L 86.3861386138614 60  C 86.3861386138614 60  99.0353052030451 46.7886742939947  99.009900990099 30  C 98.9846780590572 13.3311279944478  86.3861386138614 0.254237288135599  86.3861386138614 0.254237288135599  Z " fill-rule="nonzero" fill="url(#LinearGradient64)" stroke="none" transform="matrix(1 0 0 1 120 72 )" />
    <path d="M 86.3861386138614 0.254237288135599  L 12.1287128712871 0.254237288135599  C 12.1287128712871 0.254237288135599  0.766014791910351 13.3329471532765  0.742574257425744 30  C 0.718960100661477 46.7905044562601  12.1287128712871 60  12.1287128712871 60  L 86.3861386138614 60  C 86.3861386138614 60  99.0353052030451 46.7886742939947  99.009900990099 30  C 98.9846780590572 13.3311279944478  86.3861386138614 0.254237288135599  86.3861386138614 0.254237288135599  Z " stroke-width="2" stroke="#797979" fill="none" transform="matrix(1 0 0 1 120 72 )" mask="url(#clip69)" />
  </g>
</svg>