<?xml version="1.0" encoding="utf-8"?>
<svg version="1.1" xmlns:xlink="http://www.w3.org/1999/xlink" width="6px" height="6px" xmlns="http://www.w3.org/2000/svg">
  <g transform="matrix(1 0 0 1 -105 -203 )">
    <path d="M 108 203  C 109.68 203  111 204.32  111 206  C 111 207.68  109.68 209  108 209  C 106.32 209  105 207.68  105 206  C 105 204.32  106.32 203  108 203  Z " fill-rule="nonzero" fill="#ffffff" stroke="none" />
    <path d="M 108 203.5  C 109.4 203.5  110.5 204.6  110.5 206  C 110.5 207.4  109.4 208.5  108 208.5  C 106.6 208.5  105.5 207.4  105.5 206  C 105.5 204.6  106.6 203.5  108 203.5  Z " stroke-width="1" stroke="#0000ff" fill="none" />
  </g>
</svg>