<?xml version="1.0" encoding="utf-8"?>
<svg version="1.1" xmlns:xlink="http://www.w3.org/1999/xlink" width="100px" height="100px" xmlns="http://www.w3.org/2000/svg">
  <defs>
    <radialGradient cx="3631.37254901961" cy="2526.27450980392" r="100" gradientTransform="matrix(9.09494701772928E-15 1 -0.999999999999986 9.09494701772916E-15 6157.64705882346 -1105.09803921571 )" gradientUnits="userSpaceOnUse" id="RadialGradient133">
      <stop id="Stop134" stop-color="#a7fdf7" offset="0" />
      <stop id="Stop135" stop-color="#2618d2" offset="1" />
    </radialGradient>
  </defs>
  <g transform="matrix(1 0 0 1 -3580 -2480 )">
    <path d="M 3580.5 2530  A 49.5 49.5 0 0 1 3630 2480.5 A 49.5 49.5 0 0 1 3679.5 2530 A 49.5 49.5 0 0 1 3630 2579.5 A 49.5 49.5 0 0 1 3580.5 2530 Z " fill-rule="nonzero" fill="url(#RadialGradient133)" stroke="none" />
    <path d="M 3580.5 2530  A 49.5 49.5 0 0 1 3630 2480.5 A 49.5 49.5 0 0 1 3679.5 2530 A 49.5 49.5 0 0 1 3630 2579.5 A 49.5 49.5 0 0 1 3580.5 2530 Z " stroke-width="1" stroke="#797979" fill="none" />
  </g>
</svg>