<?xml version="1.0" encoding="utf-8"?>
<svg version="1.1" xmlns:xlink="http://www.w3.org/1999/xlink" width="9px" height="9px" xmlns="http://www.w3.org/2000/svg">
  <g transform="matrix(1 0 0 1 -3378 -754 )">
    <path d="M 3382.5 754  C 3385.02 754  3387 755.98  3387 758.5  C 3387 761.02  3385.02 763  3382.5 763  C 3379.98 763  3378 761.02  3378 758.5  C 3378 755.98  3379.98 754  3382.5 754  Z " fill-rule="nonzero" fill="#ffffff" stroke="none" />
    <path d="M 3382.5 754.5  C 3384.74 754.5  3386.5 756.26  3386.5 758.5  C 3386.5 760.74  3384.74 762.5  3382.5 762.5  C 3380.26 762.5  3378.5 760.74  3378.5 758.5  C 3378.5 756.26  3380.26 754.5  3382.5 754.5  Z " stroke-width="1" stroke="#979797" fill="none" />
  </g>
</svg>