<?xml version="1.0" encoding="utf-8"?>
<svg version="1.1" xmlns:xlink="http://www.w3.org/1999/xlink" width="100px" height="100px" xmlns="http://www.w3.org/2000/svg">
  <defs>
    <radialGradient cx="3631.37254901961" cy="3086.27450980392" r="100" gradientTransform="matrix(9.09494701772928E-15 1 -0.999999999999986 9.09494701772916E-15 6717.64705882345 -545.098039215715 )" gradientUnits="userSpaceOnUse" id="RadialGradient287">
      <stop id="Stop288" stop-color="#ffffff" offset="0" />
      <stop id="Stop289" stop-color="#00bfbf" offset="1" />
    </radialGradient>
  </defs>
  <g transform="matrix(1 0 0 1 -3580 -3040 )">
    <path d="M 3580.5 3090  A 49.5 49.5 0 0 1 3630 3040.5 A 49.5 49.5 0 0 1 3679.5 3090 A 49.5 49.5 0 0 1 3630 3139.5 A 49.5 49.5 0 0 1 3580.5 3090 Z " fill-rule="nonzero" fill="url(#RadialGradient287)" stroke="none" />
    <path d="M 3580.5 3090  A 49.5 49.5 0 0 1 3630 3040.5 A 49.5 49.5 0 0 1 3679.5 3090 A 49.5 49.5 0 0 1 3630 3139.5 A 49.5 49.5 0 0 1 3580.5 3090 Z " stroke-width="1" stroke="#797979" fill="none" />
  </g>
</svg>