<?xml version="1.0" encoding="utf-8"?>
<svg version="1.1" xmlns:xlink="http://www.w3.org/1999/xlink" width="29px" height="75px" xmlns="http://www.w3.org/2000/svg">
  <g transform="matrix(1 0 0 1 -1297 -271 )">
    <path d="M 1322.22360679775 276.619627388603  C 1322.22360679775 276.619627388603  1297.56945197827 308.5  1297.56945197827 308.5  C 1297.56945197827 308.5  1322.22360679775 340.380372611397  1322.22360679775 340.380372611397  C 1322.22360679775 340.380372611397  1325.5 344.617087959134  1325.5 344.617087959134  C 1325.5 344.617087959134  1325.5 272.382912040866  1325.5 272.382912040866  C 1325.5 272.382912040866  1322.22360679775 276.619627388603  1322.22360679775 276.619627388603  Z " fill-rule="nonzero" fill="#ffffff" stroke="none" />
    <path d="M 1322.22360679775 276.619627388603  C 1322.22360679775 276.619627388603  1297.56945197827 308.5  1297.56945197827 308.5  C 1297.56945197827 308.5  1322.22360679775 340.380372611397  1322.22360679775 340.380372611397  C 1322.22360679775 340.380372611397  1325.5 344.617087959134  1325.5 344.617087959134  C 1325.5 344.617087959134  1325.5 272.382912040866  1325.5 272.382912040866  C 1325.5 272.382912040866  1322.22360679775 276.619627388603  1322.22360679775 276.619627388603  Z " stroke-width="1" stroke="#797979" fill="none" />
  </g>
</svg>