<?xml version="1.0" encoding="utf-8"?>
<svg version="1.1" xmlns:xlink="http://www.w3.org/1999/xlink" width="15px" height="15px" xmlns="http://www.w3.org/2000/svg">
  <g transform="matrix(1 0 0 1 -611 -157 )">
    <path d="M 618.5 157  C 622.7 157  626 160.3  626 164.5  C 626 168.7  622.7 172  618.5 172  C 614.3 172  611 168.7  611 164.5  C 611 160.3  614.3 157  618.5 157  Z " fill-rule="nonzero" fill="#ffffff" stroke="none" />
    <path d="M 618.5 157.5  C 622.42 157.5  625.5 160.58  625.5 164.5  C 625.5 168.42  622.42 171.5  618.5 171.5  C 614.58 171.5  611.5 168.42  611.5 164.5  C 611.5 160.58  614.58 157.5  618.5 157.5  Z " stroke-width="1" stroke="#797979" fill="none" />
  </g>
</svg>