<?xml version="1.0" encoding="utf-8"?>
<svg version="1.1" xmlns:xlink="http://www.w3.org/1999/xlink" width="7px" height="7px" xmlns="http://www.w3.org/2000/svg">
  <g transform="matrix(1 0 0 1 -3285 -141 )">
    <path d="M 3288.5 141  C 3290.46 141  3292 142.54  3292 144.5  C 3292 146.46  3290.46 148  3288.5 148  C 3286.54 148  3285 146.46  3285 144.5  C 3285 142.54  3286.54 141  3288.5 141  Z " fill-rule="nonzero" fill="#ffffff" stroke="none" />
    <path d="M 3288.5 141.5  C 3290.18 141.5  3291.5 142.82  3291.5 144.5  C 3291.5 146.18  3290.18 147.5  3288.5 147.5  C 3286.82 147.5  3285.5 146.18  3285.5 144.5  C 3285.5 142.82  3286.82 141.5  3288.5 141.5  Z " stroke-width="1" stroke="#0000ff" fill="none" />
  </g>
</svg>