<?xml version="1.0" encoding="utf-8"?>
<svg version="1.1" xmlns:xlink="http://www.w3.org/1999/xlink" width="93px" height="100px" xmlns="http://www.w3.org/2000/svg">
  <g transform="matrix(1 0 0 1 -40 -1124 )">
    <path d="M 40 1124  L 133 1124  L 133 1224  L 40 1224  L 40 1124  " fill-rule="nonzero" fill="#cccccc" stroke="none" />
    <path d="M 47 1131  L 126 1131  L 126 1217  L 47 1217  L 47 1131  " fill-rule="nonzero" fill="#ffffff" stroke="none" />
    <path d="M 95.335 1152.95  C 91.429 1152.95  88.36 1149.881  88.36 1145.975  C 88.36 1142.069  91.429 1139  95.335 1139  C 99.241 1139  102.31 1142.069  102.31 1145.975  C 102.31 1149.881  99.241 1152.95  95.335 1152.95  " fill-rule="nonzero" fill="#cccccc" stroke="none" />
    <path d="M 50 1215  L 50 1170.45  L 68.5 1150.2  L 94.4 1166.4  L 109.2 1162.35  L 124 1166.4  L 124 1215  L 50 1215  " fill-rule="nonzero" fill="#169bd5" stroke="none" />
  </g>
</svg>