<?xml version="1.0" encoding="utf-8"?>
<svg version="1.1" xmlns:xlink="http://www.w3.org/1999/xlink" width="20px" height="20px" xmlns="http://www.w3.org/2000/svg">
  <g transform="matrix(1 0 0 1 -44 -828 )">
    <path d="M 54 828  C 59.6 828  64 832.4  64 838  C 64 843.6  59.6 848  54 848  C 48.4 848  44 843.6  44 838  C 44 832.4  48.4 828  54 828  Z " fill-rule="nonzero" fill="#bf0000" stroke="none" />
    <path d="M 54 828.5  C 59.32 828.5  63.5 832.68  63.5 838  C 63.5 843.32  59.32 847.5  54 847.5  C 48.68 847.5  44.5 843.32  44.5 838  C 44.5 832.68  48.68 828.5  54 828.5  Z " stroke-width="1" stroke="#770000" fill="none" />
  </g>
</svg>