<?xml version="1.0" encoding="utf-8"?>
<svg version="1.1" xmlns:xlink="http://www.w3.org/1999/xlink" width="20px" height="20px" xmlns="http://www.w3.org/2000/svg">
  <g transform="matrix(1 0 0 1 -44 -865 )">
    <path d="M 54 865  C 59.6 865  64 869.4  64 875  C 64 880.6  59.6 885  54 885  C 48.4 885  44 880.6  44 875  C 44 869.4  48.4 865  54 865  Z " fill-rule="nonzero" fill="#00bf07" stroke="none" />
    <path d="M 54 865.5  C 59.32 865.5  63.5 869.68  63.5 875  C 63.5 880.32  59.32 884.5  54 884.5  C 48.68 884.5  44.5 880.32  44.5 875  C 44.5 869.68  48.68 865.5  54 865.5  Z " stroke-width="1" stroke="#006a02" fill="none" />
  </g>
</svg>