<?xml version="1.0" encoding="utf-8"?>
<svg version="1.1" xmlns:xlink="http://www.w3.org/1999/xlink" width="313px" height="80px" xmlns="http://www.w3.org/2000/svg">
  <g transform="matrix(1 0 0 1 -47 -87 )">
    <path d="M 78.8105531825371 87.5  C 78.8105531825371 87.5  75.2395502853214 87.9563581977273  75.2395502853214 87.9563581977273  C 75.2395502853214 87.9563581977273  47.555207505781 127  47.555207505781 127  C 47.555207505781 127  75.2395502853214 166.043641802273  75.2395502853214 166.043641802273  C 75.2395502853214 166.043641802273  78.8105531825372 166.5  78.8105531825372 166.5  C 78.8105531825372 166.5  359.5 166.5  359.5 166.5  C 359.5 166.5  359.5 87.5  359.5 87.5  C 359.5 87.5  78.8105531825371 87.5  78.8105531825371 87.5  Z " fill-rule="nonzero" fill="#ffffff" stroke="none" />
    <path d="M 78.8105531825371 87.5  C 78.8105531825371 87.5  75.2395502853214 87.9563581977273  75.2395502853214 87.9563581977273  C 75.2395502853214 87.9563581977273  47.555207505781 127  47.555207505781 127  C 47.555207505781 127  75.2395502853214 166.043641802273  75.2395502853214 166.043641802273  C 75.2395502853214 166.043641802273  78.8105531825372 166.5  78.8105531825372 166.5  C 78.8105531825372 166.5  359.5 166.5  359.5 166.5  C 359.5 166.5  359.5 87.5  359.5 87.5  C 359.5 87.5  78.8105531825371 87.5  78.8105531825371 87.5  Z " stroke-width="1" stroke="#797979" fill="none" />
  </g>
</svg>