<?xml version="1.0" encoding="utf-8"?>
<svg version="1.1" xmlns:xlink="http://www.w3.org/1999/xlink" width="120px" height="120px" xmlns="http://www.w3.org/2000/svg">
  <defs>
    <mask fill="white" id="clip239">
      <path d="M 60 0  C 93.6 0  120 26.4000000000001  120 60  C 120 93.5999999999999  93.6 120  60 120  C 26.4 120  0 93.5999999999999  0 60  C 0 26.4000000000001  26.4 0  60 0  Z M 60 106  C 85.76 106  106 85.76  106 60  C 106 34.24  85.76 14  60 14  C 34.24 14  14 34.24  14 60  C 14 85.76  34.24 106  60 106  Z " fill-rule="evenodd" />
    </mask>
  </defs>
  <g transform="matrix(1 0 0 1 -266 -1572 )">
    <path d="M 60 0  C 93.6 0  120 26.4000000000001  120 60  C 120 93.5999999999999  93.6 120  60 120  C 26.4 120  0 93.5999999999999  0 60  C 0 26.4000000000001  26.4 0  60 0  Z M 60 106  C 85.76 106  106 85.76  106 60  C 106 34.24  85.76 14  60 14  C 34.24 14  14 34.24  14 60  C 14 85.76  34.24 106  60 106  Z " fill-rule="nonzero" fill="#ffffff" stroke="none" transform="matrix(1 0 0 1 266 1572 )" />
    <path d="M 60 0  C 93.6 0  120 26.4000000000001  120 60  C 120 93.5999999999999  93.6 120  60 120  C 26.4 120  0 93.5999999999999  0 60  C 0 26.4000000000001  26.4 0  60 0  Z " stroke-width="2" stroke="#797979" fill="none" transform="matrix(1 0 0 1 266 1572 )" mask="url(#clip239)" />
    <path d="M 60 106  C 85.76 106  106 85.76  106 60  C 106 34.24  85.76 14  60 14  C 34.24 14  14 34.24  14 60  C 14 85.76  34.24 106  60 106  Z " stroke-width="2" stroke="#797979" fill="none" transform="matrix(1 0 0 1 266 1572 )" mask="url(#clip239)" />
  </g>
</svg>