<?xml version="1.0" encoding="utf-8"?>
<svg version="1.1" xmlns:xlink="http://www.w3.org/1999/xlink" width="432px" height="56px" xmlns="http://www.w3.org/2000/svg">
  <defs>
    <mask fill="white" id="clip169">
      <path d="M 0 56  L 0 0  L 232.394988946204 0  L 432 0  L 432 56  L 232.394988946204 56  L 0 56  Z " fill-rule="evenodd" />
    </mask>
  </defs>
  <g transform="matrix(1 0 0 1 -1396 -380 )">
    <path d="M 0 56  L 0 0  L 232.394988946204 0  L 432 0  L 432 56  L 232.394988946204 56  L 0 56  Z " fill-rule="nonzero" fill="#02a7f0" stroke="none" fill-opacity="0" transform="matrix(1 0 0 1 1396 380 )" />
    <path d="M 0 56  L 0 0  L 232.394988946204 0  L 432 0  L 432 56  L 232.394988946204 56  L 0 56  Z " stroke-width="6" stroke-dasharray="27,12" stroke="#ff5151" fill="none" transform="matrix(1 0 0 1 1396 380 )" mask="url(#clip169)" />
  </g>
</svg>