<?xml version="1.0" encoding="utf-8"?>
<svg version="1.1" xmlns:xlink="http://www.w3.org/1999/xlink" width="54px" height="28px" xmlns="http://www.w3.org/2000/svg">
  <defs>
    <mask fill="white" id="clip170">
      <path d="M 0 25  L 0 3  C 0 1.32000000000005  0.91384615384611 0  2.07692307692308 0  L 36.5244755244755 0  L 51.9230769230769 0  C 53.0861538461539 0  54 1.32000000000005  54 3  L 54 25  C 54 26.68  53.0861538461539 28  51.9230769230769 28  L 2.07692307692308 28  C 0.91384615384611 28  0 26.68  0 25  Z " fill-rule="evenodd" />
    </mask>
  </defs>
  <g transform="matrix(1 0 0 1 -1197 -969 )">
    <path d="M 0 25  L 0 3  C 0 1.32000000000005  0.91384615384611 0  2.07692307692308 0  L 36.5244755244755 0  L 51.9230769230769 0  C 53.0861538461539 0  54 1.32000000000005  54 3  L 54 25  C 54 26.68  53.0861538461539 28  51.9230769230769 28  L 2.07692307692308 28  C 0.91384615384611 28  0 26.68  0 25  Z " fill-rule="nonzero" fill="#0099ff" stroke="none" fill-opacity="0.0980392156862745" transform="matrix(1 0 0 1 1197 969 )" />
    <path d="M 0 25  L 0 3  C 0 1.32000000000005  0.91384615384611 0  2.07692307692308 0  L 36.5244755244755 0  L 51.9230769230769 0  C 53.0861538461539 0  54 1.32000000000005  54 3  L 54 25  C 54 26.68  53.0861538461539 28  51.9230769230769 28  L 2.07692307692308 28  C 0.91384615384611 28  0 26.68  0 25  Z " stroke-width="2" stroke="#a7d2f9" fill="none" transform="matrix(1 0 0 1 1197 969 )" mask="url(#clip170)" />
  </g>
</svg>