<?xml version="1.0" encoding="utf-8"?>
<svg version="1.1" xmlns:xlink="http://www.w3.org/1999/xlink" width="31px" height="40px" xmlns="http://www.w3.org/2000/svg">
  <g transform="matrix(1 0 0 1 -20 -14 )">
    <path d="M 20 14  L 51 14  L 51 54  L 20 54  L 20 14  " fill-rule="nonzero" fill="#cccccc" stroke="none" />
    <path d="M 22 16  L 49 16  L 49 52  L 22 52  L 22 16  " fill-rule="nonzero" fill="#ffffff" stroke="none" />
    <path d="M 38.445 24.65  C 37.143 24.65  36.12 23.627  36.12 22.325  C 36.12 21.023  37.143 20  38.445 20  C 39.747 20  40.77 21.023  40.77 22.325  C 40.77 23.627  39.747 24.65  38.445 24.65  " fill-rule="nonzero" fill="#cccccc" stroke="none" />
    <path d="M 23 51  L 23 32.3  L 29.25 23.8  L 38 30.6  L 43 28.9  L 48 30.6  L 48 51  L 23 51  " fill-rule="nonzero" fill="#169bd5" stroke="none" />
  </g>
</svg>