<?xml version="1.0" encoding="utf-8"?>
<svg version="1.1" xmlns:xlink="http://www.w3.org/1999/xlink" width="112px" height="139px" xmlns="http://www.w3.org/2000/svg">
  <g transform="matrix(1 0 0 1 -680 -527 )">
    <path d="M 680 527  L 792 527  L 792 666  L 680 666  L 680 527  " fill-rule="nonzero" fill="#cccccc" stroke="none" />
    <path d="M 688 535  L 784 535  L 784 658  L 688 658  L 688 535  " fill-rule="nonzero" fill="#ffffff" stroke="none" />
    <path d="M 746.64 564.65  C 741.936 564.65  738.24 560.954  738.24 556.25  C 738.24 551.546  741.936 547.85  746.64 547.85  C 751.344 547.85  755.04 551.546  755.04 556.25  C 755.04 560.954  751.344 564.65  746.64 564.65  " fill-rule="nonzero" fill="#cccccc" stroke="none" />
    <path d="M 691 655  L 691 590.65  L 713.5 561.4  L 745 584.8  L 763 578.95  L 781 584.8  L 781 655  L 691 655  " fill-rule="nonzero" fill="#169bd5" stroke="none" />
  </g>
</svg>