<?xml version="1.0" encoding="utf-8"?>
<svg version="1.1" xmlns:xlink="http://www.w3.org/1999/xlink" width="50px" height="50px" xmlns="http://www.w3.org/2000/svg">
  <g transform="matrix(1 0 0 1 -290 -310 )">
    <path d="M 290 310  L 340 310  L 340 360  L 290 360  L 290 310  " fill-rule="nonzero" fill="#cccccc" stroke="none" />
    <path d="M 294 314  L 336 314  L 336 356  L 294 356  L 294 314  " fill-rule="nonzero" fill="#ffffff" stroke="none" />
    <path d="M 319.75 325  C 317.65 325  316 323.35  316 321.25  C 316 319.15  317.65 317.5  319.75 317.5  C 321.85 317.5  323.5 319.15  323.5 321.25  C 323.5 323.35  321.85 325  319.75 325  " fill-rule="nonzero" fill="#cccccc" stroke="none" />
    <path d="M 296 355  L 296 333.55  L 305.75 323.8  L 319.4 331.6  L 327.2 329.65  L 335 331.6  L 335 355  L 296 355  " fill-rule="nonzero" fill="#169bd5" stroke="none" />
  </g>
</svg>