<?xml version="1.0" encoding="utf-8"?>
<svg version="1.1" xmlns:xlink="http://www.w3.org/1999/xlink" width="21px" height="28px" xmlns="http://www.w3.org/2000/svg">
  <g transform="matrix(1 0 0 1 -567 -167 )">
    <path d="M 11.57909375 27.3815984405458  C 11.0576484375 28.133395711501  9.942296875 28.1333411306043  9.42090625 27.3815984405458  C 1.474921875 15.8847329434698  0 14.7048031189084  0 10.4795321637427  C 0 4.69182846003899  4.7009921875 0  10.5 0  C 16.2990078125 0  21 4.69182846003899  21 10.4795321637427  C 21 14.7048031189084  19.525078125 15.8847329434698  11.57909375 27.3815984405458  Z M 6.125 10.4795321637427  C 6.125 12.8910799220273  8.0837421875 14.8460038986355  10.5 14.8460038986355  C 12.9162578125 14.8460038986355  14.875 12.8910799220273  14.875 10.4795321637427  C 14.875 8.06798440545809  12.9162578125 6.1130604288499  10.5 6.1130604288499  C 8.0837421875 6.1130604288499  6.125 8.06798440545809  6.125 10.4795321637427  Z " fill-rule="nonzero" fill="#6f6f6f" stroke="none" transform="matrix(1 0 0 1 567 167 )" />
  </g>
</svg>