<?xml version="1.0" encoding="utf-8"?>
<svg version="1.1" xmlns:xlink="http://www.w3.org/1999/xlink" width="50px" height="44px" xmlns="http://www.w3.org/2000/svg">
  <g transform="matrix(1 0 0 1 -1033 -6 )">
    <path d="M 50 4.71428571428571  C 50 2.11160714285714  47.900390625 0  45.3125 0  L 4.6875 0  C 2.099609375 0  0 2.11160714285714  0 4.71428571428571  L 0 39.2857142857143  C 0 41.8883928571429  2.099609375 44  4.6875 44  L 45.3125 44  C 47.900390625 44  50 41.8883928571429  50 39.2857142857143  L 50 4.71428571428571  Z M 45 5.30357142857143  L 45 38.6964285714286  C 45.3125 39.0205357142857  45.048828125 39.2857142857143  44.7265625 39  L 5.2734375 39  C 4.951171875 39.2857142857143  4.6875 39.0205357142857  5 38.6964285714286  L 5 5.30357142857143  C 4.6875 4.97946428571429  4.951171875 4.71428571428571  5.2734375 5  L 44.7265625 5  C 45.048828125 4.71428571428571  45.3125 4.97946428571429  45 5.30357142857143  Z M 34.814453125 14.3196428571429  C 35.2734375 14.7714285714286  35.2734375 15.5080357142857  34.814453125 15.9696428571429  L 28.818359375 22  L 34.814453125 28.0303571428571  C 35.263671875 28.4821428571429  35.263671875 29.21875  34.814453125 29.6803571428571  L 32.63671875 31.8705357142857  C 32.1875 32.3223214285714  31.455078125 32.3223214285714  30.99609375 31.8705357142857  L 25 25.8401785714286  L 19.00390625 31.8705357142857  C 18.5546875 32.3223214285714  17.822265625 32.3223214285714  17.36328125 31.8705357142857  L 15.185546875 29.6803571428571  C 14.736328125 29.2285714285714  14.736328125 28.4919642857143  15.185546875 28.0303571428571  L 21.181640625 22  L 15.185546875 15.9696428571429  C 14.736328125 15.5178571428571  14.736328125 14.78125  15.185546875 14.3196428571429  L 17.36328125 12.1294642857143  C 17.8125 11.6776785714286  18.544921875 11.6776785714286  19.00390625 12.1294642857143  L 25 18.1598214285714  L 30.99609375 12.1294642857143  C 31.4453125 11.6776785714286  32.177734375 11.6776785714286  32.63671875 12.1294642857143  L 34.814453125 14.3196428571429  Z " fill-rule="nonzero" fill="#000000" stroke="none" transform="matrix(1 0 0 1 1033 6 )" />
  </g>
</svg>