<?xml version="1.0" encoding="utf-8"?>
<svg version="1.1" xmlns:xlink="http://www.w3.org/1999/xlink" width="115px" height="126px" xmlns="http://www.w3.org/2000/svg">
  <g transform="matrix(1 0 0 1 -145 -366 )">
    <path d="M 146 386  A 19 19 0 0 1 165 367 L 240 367  A 19 19 0 0 1 259 386 L 259 472  A 19 19 0 0 1 240 491 L 165 491  A 19 19 0 0 1 146 472 L 146 386  Z " fill-rule="nonzero" fill="#ffffff" stroke="none" />
    <path d="M 145.5 386  A 19.5 19.5 0 0 1 165 366.5 L 240 366.5  A 19.5 19.5 0 0 1 259.5 386 L 259.5 472  A 19.5 19.5 0 0 1 240 491.5 L 165 491.5  A 19.5 19.5 0 0 1 145.5 472 L 145.5 386  Z " stroke-width="1" stroke-dasharray="9,4" stroke="#797979" fill="none" stroke-dashoffset="0.5" />
  </g>
</svg>