<?xml version="1.0" encoding="utf-8"?>
<svg version="1.1" xmlns:xlink="http://www.w3.org/1999/xlink" width="16px" height="12px" xmlns="http://www.w3.org/2000/svg">
  <g transform="matrix(1 0 0 1 -431 -14 )">
    <path d="M 15.6228956228956 8.96969696969697  C 15.8742985409652 9.15824915824916  16 9.38720538720539  16 9.65656565656566  C 16 9.92592592592593  15.8742985409652 10.1548821548822  15.6228956228956 10.3434343434343  L 13.7912457912458 11.7171717171717  C 13.5398428731762 11.9057239057239  13.2345679012346 12  12.8754208754209 12  C 12.5162738496072 12  12.2109988776655 11.9057239057239  11.959595959596 11.7171717171717  L 8 8.74747474747475  L 4.04040404040404 11.7171717171717  C 3.78900112233446 11.9057239057239  3.48372615039282 12  3.12457912457912 12  C 2.76543209876543 12  2.46015712682379 11.9057239057239  2.20875420875421 11.7171717171717  L 0.377104377104377 10.3434343434343  C 0.125701459034792 10.1548821548822  0 9.92592592592593  0 9.65656565656566  C 0 9.38720538720539  0.125701459034792 9.15824915824916  0.377104377104377 8.96969696969697  L 4.33670033670034 6  L 0.377104377104377 3.03030303030303  C 0.125701459034792 2.84175084175084  0 2.61279461279461  0 2.34343434343434  C 0 2.07407407407407  0.125701459034792 1.84511784511784  0.377104377104377 1.65656565656566  L 2.20875420875421 0.282828282828283  C 2.46015712682379 0.0942760942760938  2.76543209876543 0  3.12457912457912 0  C 3.48372615039282 0  3.78900112233446 0.0942760942760938  4.04040404040404 0.282828282828283  L 8 3.25252525252525  L 11.959595959596 0.282828282828283  C 12.2109988776655 0.0942760942760938  12.5162738496072 0  12.8754208754209 0  C 13.2345679012346 0  13.5398428731762 0.0942760942760938  13.7912457912458 0.282828282828283  L 15.6228956228956 1.65656565656566  C 15.8742985409652 1.84511784511784  16 2.07407407407407  16 2.34343434343434  C 16 2.61279461279461  15.8742985409652 2.84175084175084  15.6228956228956 3.03030303030303  L 11.6632996632997 6  L 15.6228956228956 8.96969696969697  Z " fill-rule="nonzero" fill="#8c8c8c" stroke="none" transform="matrix(1 0 0 1 431 14 )" />
  </g>
</svg>