<?xml version="1.0" encoding="utf-8"?>
<svg version="1.1" xmlns:xlink="http://www.w3.org/1999/xlink" width="7px" height="12px" xmlns="http://www.w3.org/2000/svg">
  <g transform="matrix(1 0 0 1 -390 -430 )">
    <path d="M 6.83501683501683 8.96969696969697  C 6.94500561167228 9.15824915824916  7 9.38720538720539  7 9.65656565656566  C 7 9.92592592592593  6.94500561167228 10.1548821548822  6.83501683501683 10.3434343434343  L 6.03367003367003 11.7171717171717  C 5.92368125701459 11.9057239057239  5.79012345679012 12  5.63299663299663 12  C 5.47586980920314 12  5.34231200897868 11.9057239057239  5.23232323232323 11.7171717171717  L 3.5 8.74747474747475  L 1.76767676767677 11.7171717171717  C 1.65768799102132 11.9057239057239  1.52413019079686 12  1.36700336700337 12  C 1.20987654320988 12  1.07631874298541 11.9057239057239  0.966329966329966 11.7171717171717  L 0.164983164983165 10.3434343434343  C 0.0549943883277217 10.1548821548822  0 9.92592592592593  0 9.65656565656566  C 0 9.38720538720539  0.0549943883277217 9.15824915824916  0.164983164983165 8.96969696969697  L 1.8973063973064 6  L 0.164983164983165 3.03030303030303  C 0.0549943883277217 2.84175084175084  0 2.61279461279461  0 2.34343434343434  C 0 2.07407407407407  0.0549943883277217 1.84511784511784  0.164983164983165 1.65656565656566  L 0.966329966329966 0.282828282828283  C 1.07631874298541 0.0942760942760938  1.20987654320988 0  1.36700336700337 0  C 1.52413019079686 0  1.65768799102132 0.0942760942760938  1.76767676767677 0.282828282828283  L 3.5 3.25252525252525  L 5.23232323232323 0.282828282828283  C 5.34231200897868 0.0942760942760938  5.47586980920314 0  5.63299663299663 0  C 5.79012345679012 0  5.92368125701459 0.0942760942760938  6.03367003367003 0.282828282828283  L 6.83501683501683 1.65656565656566  C 6.94500561167228 1.84511784511784  7 2.07407407407407  7 2.34343434343434  C 7 2.61279461279461  6.94500561167228 2.84175084175084  6.83501683501683 3.03030303030303  L 5.1026936026936 6  L 6.83501683501683 8.96969696969697  Z " fill-rule="nonzero" fill="#8c8c8c" stroke="none" transform="matrix(1 0 0 1 390 430 )" />
  </g>
</svg>