<?xml version="1.0" encoding="utf-8"?>
<svg version="1.1" xmlns:xlink="http://www.w3.org/1999/xlink" width="10px" height="15px" xmlns="http://www.w3.org/2000/svg">
  <g transform="matrix(1 0 0 1 -190 -428 )">
    <path d="M 6.1328125 9.19921875  C 6.65965544871795 8.40895432692308  6.92307692307692 7.45793269230769  6.92307692307692 6.34615384615385  C 6.92307692307692 5.234375  6.65965544871795 4.28335336538462  6.1328125 3.49308894230769  C 5.60596955128205 2.70282451923077  4.97195512820513 2.30769230769231  4.23076923076923 2.30769230769231  C 3.48958333333333 2.30769230769231  2.85556891025641 2.70282451923077  2.32872596153846 3.49308894230769  C 1.80188301282051 4.28335336538462  1.53846153846154 5.234375  1.53846153846154 6.34615384615385  C 1.53846153846154 7.45793269230769  1.80188301282051 8.40895432692308  2.32872596153846 9.19921875  C 2.85556891025641 9.98948317307692  3.48958333333333 10.3846153846154  4.23076923076923 10.3846153846154  C 4.97195512820513 10.3846153846154  5.60596955128205 9.98948317307692  6.1328125 9.19921875  Z M 9.77764423076923 13.0348557692308  C 9.92588141025641 13.2572115384615  10 13.5276442307692  10 13.8461538461538  C 10 14.1586538461538  9.92387820512821 14.4290865384615  9.77163461538462 14.6574519230769  C 9.61939102564103 14.8858173076923  9.43910256410257 15  9.23076923076923 15  C 9.01442307692308 15  8.83413461538462 14.8858173076923  8.68990384615385 14.6574519230769  L 6.62860576923077 11.5745192307692  C 5.91145833333333 12.3197115384615  5.11217948717949 12.6923076923077  4.23076923076923 12.6923076923077  C 3.65785256410256 12.6923076923077  3.10997596153846 12.5255408653846  2.58713942307692 12.1920072115385  C 2.06430288461538 11.8584735576923  1.61358173076923 11.4077524038462  1.23497596153846 10.83984375  C 0.856370192307692 10.2719350961538  0.555889423076923 9.59585336538462  0.333533653846154 8.81159855769231  C 0.111177884615385 8.02734375  0 7.20552884615384  0 6.34615384615385  C 0 5.48677884615384  0.111177884615385 4.66496394230769  0.333533653846154 3.88070913461538  C 0.555889423076923 3.09645432692308  0.856370192307692 2.42037259615385  1.23497596153846 1.85246394230769  C 1.61358173076923 1.28455528846154  2.06430288461538 0.833834134615384  2.58713942307692 0.500300480769231  C 3.10997596153846 0.166766826923077  3.65785256410256 0  4.23076923076923 0  C 4.8036858974359 0  5.3515625 0.166766826923077  5.87439903846154 0.500300480769231  C 6.39723557692308 0.833834134615384  6.84795673076923 1.28455528846154  7.2265625 1.85246394230769  C 7.60516826923077 2.42037259615385  7.90564903846154 3.09645432692308  8.12800480769231 3.88070913461538  C 8.35036057692308 4.66496394230769  8.46153846153846 5.48677884615384  8.46153846153846 6.34615384615385  C 8.46153846153846 7.66826923076923  8.21314102564103 8.8671875  7.71634615384615 9.94290865384615  L 9.77764423076923 13.0348557692308  Z " fill-rule="nonzero" fill="#aaaaaa" stroke="none" transform="matrix(1 0 0 1 190 428 )" />
  </g>
</svg>