<?xml version="1.0" encoding="utf-8"?>
<svg version="1.1" xmlns:xlink="http://www.w3.org/1999/xlink" width="20px" height="15px" xmlns="http://www.w3.org/2000/svg">
  <g transform="matrix(1 0 0 1 -20 -12 )">
    <path d="M 12.265625 9.19921875  C 13.3193108974359 8.40895432692308  13.8461538461538 7.45793269230769  13.8461538461538 6.34615384615385  C 13.8461538461538 5.234375  13.3193108974359 4.28335336538462  12.265625 3.49308894230769  C 11.2119391025641 2.70282451923077  9.94391025641026 2.30769230769231  8.46153846153846 2.30769230769231  C 6.97916666666667 2.30769230769231  5.71113782051282 2.70282451923077  4.65745192307692 3.49308894230769  C 3.60376602564103 4.28335336538462  3.07692307692308 5.234375  3.07692307692308 6.34615384615385  C 3.07692307692308 7.45793269230769  3.60376602564103 8.40895432692308  4.65745192307692 9.19921875  C 5.71113782051282 9.98948317307692  6.97916666666667 10.3846153846154  8.46153846153846 10.3846153846154  C 9.94391025641026 10.3846153846154  11.2119391025641 9.98948317307692  12.265625 9.19921875  Z M 19.5552884615385 13.0348557692308  C 19.8517628205128 13.2572115384615  20 13.5276442307692  20 13.8461538461538  C 20 14.1586538461538  19.8477564102564 14.4290865384615  19.5432692307692 14.6574519230769  C 19.2387820512821 14.8858173076923  18.8782051282051 15  18.4615384615385 15  C 18.0288461538462 15  17.6682692307692 14.8858173076923  17.3798076923077 14.6574519230769  L 13.2572115384615 11.5745192307692  C 11.8229166666667 12.3197115384615  10.224358974359 12.6923076923077  8.46153846153846 12.6923076923077  C 7.31570512820513 12.6923076923077  6.21995192307692 12.5255408653846  5.17427884615385 12.1920072115385  C 4.12860576923077 11.8584735576923  3.22716346153846 11.4077524038462  2.46995192307692 10.83984375  C 1.71274038461538 10.2719350961538  1.11177884615385 9.59585336538462  0.667067307692308 8.81159855769231  C 0.222355769230769 8.02734375  0 7.20552884615384  0 6.34615384615385  C 0 5.48677884615384  0.222355769230769 4.66496394230769  0.667067307692308 3.88070913461538  C 1.11177884615385 3.09645432692308  1.71274038461538 2.42037259615385  2.46995192307692 1.85246394230769  C 3.22716346153846 1.28455528846154  4.12860576923077 0.833834134615384  5.17427884615385 0.500300480769231  C 6.21995192307692 0.166766826923077  7.31570512820513 0  8.46153846153846 0  C 9.6073717948718 0  10.703125 0.166766826923077  11.7487980769231 0.500300480769231  C 12.7944711538462 0.833834134615384  13.6959134615385 1.28455528846154  14.453125 1.85246394230769  C 15.2103365384615 2.42037259615385  15.8112980769231 3.09645432692308  16.2560096153846 3.88070913461538  C 16.7007211538462 4.66496394230769  16.9230769230769 5.48677884615384  16.9230769230769 6.34615384615385  C 16.9230769230769 7.66826923076923  16.4262820512821 8.8671875  15.4326923076923 9.94290865384615  L 19.5552884615385 13.0348557692308  Z " fill-rule="nonzero" fill="#aaaaaa" stroke="none" transform="matrix(1 0 0 1 20 12 )" />
  </g>
</svg>