<?xml version="1.0" encoding="utf-8"?>
<svg version="1.1" xmlns:xlink="http://www.w3.org/1999/xlink" width="140px" height="79px" xmlns="http://www.w3.org/2000/svg">
  <g transform="matrix(1 0 0 1 -480 -294 )">
    <path d="M 480 294  L 620 294  L 620 373  L 480 373  L 480 294  " fill-rule="nonzero" fill="#cccccc" stroke="none" />
    <path d="M 486 300  L 614 300  L 614 367  L 486 367  L 486 300  " fill-rule="nonzero" fill="#ffffff" stroke="none" />
    <path d="M 558.725 317.7  C 555.407 317.7  552.8 315.093  552.8 311.775  C 552.8 308.457  555.407 305.85  558.725 305.85  C 562.043 305.85  564.65 308.457  564.65 311.775  C 564.65 315.093  562.043 317.7  558.725 317.7  " fill-rule="nonzero" fill="#cccccc" stroke="none" />
    <path d="M 488 365  L 488 330.35  L 519 314.6  L 562.4 343.67  L 587.2 324.05  L 612 343.67  L 612 365  L 488 365  " fill-rule="nonzero" fill="#169bd5" stroke="none" />
  </g>
</svg>