<?xml version="1.0" encoding="utf-8"?>
<svg version="1.1" xmlns:xlink="http://www.w3.org/1999/xlink" width="7px" height="7px" xmlns="http://www.w3.org/2000/svg">
  <g transform="matrix(1 0 0 1 -1401 -236 )">
    <path d="M 1404.5 236  C 1406.46 236  1408 237.54  1408 239.5  C 1408 241.46  1406.46 243  1404.5 243  C 1402.54 243  1401 241.46  1401 239.5  C 1401 237.54  1402.54 236  1404.5 236  Z " fill-rule="nonzero" fill="#ffffff" stroke="none" />
    <path d="M 1404.5 236.5  C 1406.18 236.5  1407.5 237.82  1407.5 239.5  C 1407.5 241.18  1406.18 242.5  1404.5 242.5  C 1402.82 242.5  1401.5 241.18  1401.5 239.5  C 1401.5 237.82  1402.82 236.5  1404.5 236.5  Z " stroke-width="1" stroke="#0000ff" fill="none" />
  </g>
</svg>