<?xml version="1.0" encoding="utf-8"?>
<svg version="1.1" xmlns:xlink="http://www.w3.org/1999/xlink" width="28px" height="27px" xmlns="http://www.w3.org/2000/svg">
  <g transform="matrix(1 0 0 1 -222 -72 )">
    <path d="M 222 72  L 250 72  L 250 99  L 222 99  L 222 72  " fill-rule="nonzero" fill="#cccccc" stroke="none" />
    <path d="M 224 74  L 248 74  L 248 97  L 224 97  L 224 74  " fill-rule="nonzero" fill="#ffffff" stroke="none" />
    <path d="M 238.585 80.1  C 237.451 80.1  236.56 79.209  236.56 78.075  C 236.56 76.941  237.451 76.05  238.585 76.05  C 239.719 76.05  240.61 76.941  240.61 78.075  C 240.61 79.209  239.719 80.1  238.585 80.1  " fill-rule="nonzero" fill="#cccccc" stroke="none" />
    <path d="M 225 97  L 225 84.9  L 230.75 79.4  L 238.8 84.2714285714286  L 243.4 82.7  L 248 84.2714285714286  L 248 97  L 225 97  " fill-rule="nonzero" fill="#169bd5" stroke="none" />
  </g>
</svg>