<?xml version="1.0" encoding="utf-8"?>
<svg version="1.1" xmlns:xlink="http://www.w3.org/1999/xlink" width="25px" height="25px" xmlns="http://www.w3.org/2000/svg">
  <g transform="matrix(1 0 0 1 -25 -185 )">
    <path d="M 18.0826822916667 12.646484375  C 18.1803385416667 12.744140625  18.2291666666667 12.8689236111111  18.2291666666667 13.0208333333333  C 18.2291666666667 13.1510416666667  18.1749131944444 13.28125  18.06640625 13.4114583333333  L 12.8743489583333 18.603515625  C 12.7549913194444 18.701171875  12.6302083333333 18.75  12.5 18.75  C 12.3697916666667 18.75  12.2450086805556 18.701171875  12.1256510416667 18.603515625  L 6.91731770833333 13.3951822916667  C 6.75455729166667 13.2215711805556  6.71657986111111 13.0316840277778  6.80338541666667 12.8255208333333  C 6.89019097222222 12.6085069444444  7.05295138888889 12.5  7.29166666666667 12.5  L 10.4166666666667 12.5  L 10.4166666666667 6.77083333333333  C 10.4166666666667 6.61892361111111  10.4654947916667 6.494140625  10.5631510416667 6.396484375  C 10.6608072916667 6.298828125  10.7855902777778 6.25  10.9375 6.25  L 14.0625 6.25  C 14.2144097222222 6.25  14.3391927083333 6.298828125  14.4368489583333 6.396484375  C 14.5345052083333 6.494140625  14.5833333333333 6.61892361111111  14.5833333333333 6.77083333333333  L 14.5833333333333 12.5  L 17.7083333333333 12.5  C 17.8602430555556 12.5  17.9850260416667 12.548828125  18.0826822916667 12.646484375  Z M 16.943359375 4.833984375  C 15.5870225694444 4.04188368055556  14.1059027777778 3.64583333333333  12.5 3.64583333333333  C 10.8940972222222 3.64583333333333  9.41297743055556 4.04188368055556  8.056640625 4.833984375  C 6.70030381944444 5.62608506944444  5.62608506944444 6.70030381944444  4.833984375 8.056640625  C 4.04188368055556 9.41297743055556  3.64583333333333 10.8940972222222  3.64583333333333 12.5  C 3.64583333333333 14.1059027777778  4.04188368055556 15.5870225694444  4.833984375 16.943359375  C 5.62608506944444 18.2996961805556  6.70030381944444 19.3739149305556  8.056640625 20.166015625  C 9.41297743055556 20.9581163194444  10.8940972222222 21.3541666666667  12.5 21.3541666666667  C 14.1059027777778 21.3541666666667  15.5870225694444 20.9581163194444  16.943359375 20.166015625  C 18.2996961805556 19.3739149305556  19.3739149305556 18.2996961805556  20.166015625 16.943359375  C 20.9581163194444 15.5870225694444  21.3541666666667 14.1059027777778  21.3541666666667 12.5  C 21.3541666666667 10.8940972222222  20.9581163194444 9.41297743055556  20.166015625 8.056640625  C 19.3739149305556 6.70030381944444  18.2996961805556 5.62608506944444  16.943359375 4.833984375  Z M 23.3235677083333 6.2255859375  C 24.4411892361111 8.14073350694444  25 10.2322048611111  25 12.5  C 25 14.7677951388889  24.4411892361111 16.8592664930556  23.3235677083333 18.7744140625  C 22.2059461805556 20.6895616319444  20.6895616319444 22.2059461805556  18.7744140625 23.3235677083333  C 16.8592664930556 24.4411892361111  14.7677951388889 25  12.5 25  C 10.2322048611111 25  8.14073350694444 24.4411892361111  6.2255859375 23.3235677083333  C 4.31043836805556 22.2059461805556  2.79405381944444 20.6895616319444  1.67643229166667 18.7744140625  C 0.558810763888889 16.8592664930556  0 14.7677951388889  0 12.5  C 0 10.2322048611111  0.558810763888889 8.14073350694444  1.67643229166667 6.2255859375  C 2.79405381944444 4.31043836805556  4.31043836805556 2.79405381944444  6.2255859375 1.67643229166667  C 8.14073350694444 0.558810763888887  10.2322048611111 0  12.5 0  C 14.7677951388889 0  16.8592664930556 0.558810763888887  18.7744140625 1.67643229166667  C 20.6895616319444 2.79405381944444  22.2059461805556 4.31043836805556  23.3235677083333 6.2255859375  Z " fill-rule="nonzero" fill="#000000" stroke="none" transform="matrix(1 0 0 1 25 185 )" />
  </g>
</svg>