<?xml version="1.0" encoding="utf-8"?>
<svg version="1.1" xmlns:xlink="http://www.w3.org/1999/xlink" width="50px" height="50px" xmlns="http://www.w3.org/2000/svg">
  <g transform="matrix(1 0 0 1 -609 -172 )">
    <path d="M 31.9997999628357 0  L 39.7727272727539 0  C 42.5899621212159 0  44.998816287863 1.00023674241606  46.9992897726954 3.00071022724796  C 48.9997632575277 5.00118371208009  49.9999999999438 7.41003787872683  50 10.2272727271886  L 50 22  L 45 22.0000386399959  L 45 10.2272727271886  C 45.4545454545261 8.66477272720135  44.8982007575609 7.32717803024275  43.7855113636305 6.21448863631258  C 42.6728219697001 5.10179924238219  41.3352272727413 4.54545454541699  39.7727272727539 4.99999999995885  L 32.0000000000896 5.00000424164114  L 31.9997999628357 0  Z M 32.0000000000896 50  L 31.9997999628357 44.9999999996294  L 39.7727272727539 44.9999999996294  C 41.3352272727413 45.4545454541712  42.6728219697001 44.898200757206  43.7855113636305 43.7855113632756  C 44.8982007575609 42.6728219693455  45.4545454545261 41.3352272723869  45 39.7727272723996  L 45 28  L 50 27.9999613600041  L 50 39.7727272723996  C 49.9999999999438 42.5899621208612  48.9997632575277 44.9988162875081  46.9992897726954 46.9992897723403  C 44.998816287863 48.9997632571722  42.5899621212159 49.9999999995882  39.7727272727539 49.9999999995882  L 32.0000000000896 50  Z M 9.09090909118417 23.8636363634398  C 9.09090909118417 23.5321969695033  9.19744318209232 23.2599431816268  9.41051136390885 23.0468749998101  C 9.62357954572527 22.8338068179937  9.8958333336019 22.7272727270856  10.2272727275386 23  L 22.0000000001953 23  L 22.000038640191 27  L 10.2272727275386 27  C 9.8958333336019 27.2727272725026  9.62357954572527 27.1661931815945  9.41051136390885 26.9531249997781  C 9.19744318209232 26.7400568179614  9.09090909118417 26.467803030085  9.09090909118417 26.1363636361484  L 9.09090909118417 23.8636363634398  Z M 40.5894886363837 26.9531249997781  C 40.3764204545672 27.1661931815945  40.1041666666906 27.2727272725026  39.7727272727539 27  L 28.0000000001534 27  L 27.9999613601576 23  L 39.7727272727539 23  C 40.1041666666906 22.7272727270856  40.3764204545672 22.8338068179937  40.5894886363837 23.0468749998101  C 40.8025568182002 23.2599431816268  40.9090909091083 23.5321969695033  40.9090909091083 23.8636363634398  L 40.9090909091083 26.1363636361484  C 40.9090909091083 26.467803030085  40.8025568182002 26.7400568179614  40.5894886363837 26.9531249997781  Z M 5 10.2272727271886  L 5 22  L 0 22.0000386399959  L 0 10.2272727271886  C 0 7.41003787872683  1.00023674276481 5.00118371208009  3.00071022759709 3.00071022724796  C 5.00118371242948 1.00023674241606  7.41003787907658 0  10.2272727275386 0  L 18.0000000002029 0  L 18.0000000002178 4.99999999995885  L 10.2272727275386 4.99999999995885  C 8.66477272755122 4.54545454541699  7.3271780305924 5.10179924238219  6.21448863666203 6.21448863631258  C 5.10179924273166 7.32717803024275  4.54545454576637 8.66477272720135  5 10.2272727271886  Z M 0 28  L 5 27.9999613600041  L 5 39.7727272723996  C 4.54545454576637 41.3352272723869  5.10179924273166 42.6728219693455  6.21448863666203 43.7855113632756  C 7.3271780305924 44.898200757206  8.66477272755122 45.4545454541712  10.2272727275386 44.9999999996294  L 18.0000000002029 44.9999999993736  L 18.0002000374568 49.9999999995882  L 10.2272727275386 49.9999999995882  C 7.41003787907658 49.9999999995882  5.00118371242948 48.9997632571722  3.00071022759709 46.9992897723403  C 1.00023674276481 44.9988162875081  0 42.5899621208612  0 39.7727272723996  L 0 28  Z " fill-rule="nonzero" fill="#000000" stroke="none" transform="matrix(1 0 0 1 609 172 )" />
  </g>
</svg>