<?xml version="1.0" encoding="utf-8"?>
<svg version="1.1" xmlns:xlink="http://www.w3.org/1999/xlink" width="40px" height="40px" xmlns="http://www.w3.org/2000/svg">
  <g transform="matrix(1 0 0 1 -390 -457 )">
    <path d="M 391 477  A 19 19 0 0 1 410 458 A 19 19 0 0 1 429 477 A 19 19 0 0 1 410 496 A 19 19 0 0 1 391 477 Z " fill-rule="nonzero" fill="#d7d7d7" stroke="none" />
    <path d="M 390.5 477  A 19.5 19.5 0 0 1 410 457.5 A 19.5 19.5 0 0 1 429.5 477 A 19.5 19.5 0 0 1 410 496.5 A 19.5 19.5 0 0 1 390.5 477 Z " stroke-width="1" stroke-dasharray="9,4" stroke="#797979" fill="none" stroke-dashoffset="0.5" />
  </g>
</svg>