<?xml version="1.0" encoding="utf-8"?>
<svg version="1.1" xmlns:xlink="http://www.w3.org/1999/xlink" width="139px" height="170px" xmlns="http://www.w3.org/2000/svg">
  <g transform="matrix(1 0 0 1 -31 -905 )">
    <path d="M 32 915  A 9 9 0 0 1 41 906 L 160 906  A 9 9 0 0 1 169 915 L 169 1065  A 9 9 0 0 1 160 1074 L 41 1074  A 9 9 0 0 1 32 1065 L 32 915  Z " fill-rule="nonzero" fill="#ffffff" stroke="none" />
    <path d="M 31.5 915  A 9.5 9.5 0 0 1 41 905.5 L 160 905.5  A 9.5 9.5 0 0 1 169.5 915 L 169.5 1065  A 9.5 9.5 0 0 1 160 1074.5 L 41 1074.5  A 9.5 9.5 0 0 1 31.5 1065 L 31.5 915  Z " stroke-width="1" stroke-dasharray="9,4" stroke="#797979" fill="none" stroke-dashoffset="0.5" />
  </g>
</svg>