<?xml version="1.0" encoding="utf-8"?>
<svg version="1.1" xmlns:xlink="http://www.w3.org/1999/xlink" width="192px" height="28px" xmlns="http://www.w3.org/2000/svg">
  <defs>
    <mask fill="white" id="clip79">
      <path d="M 0 28  L 0 0  L 192 0  L 192 28  L 81.9480519480519 28  L 76.285714285714 28  L 0 28  Z " fill-rule="evenodd" />
    </mask>
  </defs>
  <g transform="matrix(1 0 0 1 -1838 -204 )">
    <path d="M 0 28  L 0 0  L 192 0  L 192 28  L 81.9480519480519 28  L 76.285714285714 28  L 0 28  Z " fill-rule="nonzero" fill="#02a7f0" stroke="none" fill-opacity="0" transform="matrix(1 0 0 1 1838 204 )" />
    <path d="M 0 28  L 0 0  L 192 0  L 192 28  L 81.9480519480519 28  L 76.285714285714 28  L 0 28  Z " stroke-width="6" stroke-dasharray="27,12" stroke="#ff5151" fill="none" transform="matrix(1 0 0 1 1838 204 )" mask="url(#clip79)" />
  </g>
</svg>