<?xml version="1.0" encoding="utf-8"?>
<svg version="1.1" xmlns:xlink="http://www.w3.org/1999/xlink" width="336px" height="28px" xmlns="http://www.w3.org/2000/svg">
  <defs>
    <mask fill="white" id="clip158">
      <path d="M 0 28  L 0 0  L 241.513409961687 0  L 336 0  L 336 13.2413793103448  L 336 28  L 143.409090909091 28  L 133.499999999999 28  L 0 28  Z " fill-rule="evenodd" />
    </mask>
  </defs>
  <g transform="matrix(1 0 0 1 -3958 -2900 )">
    <path d="M 0 28  L 0 0  L 241.513409961687 0  L 336 0  L 336 13.2413793103448  L 336 28  L 143.409090909091 28  L 133.499999999999 28  L 0 28  Z " fill-rule="nonzero" fill="#02a7f0" stroke="none" fill-opacity="0" transform="matrix(1 0 0 1 3958 2900 )" />
    <path d="M 0 28  L 0 0  L 241.513409961687 0  L 336 0  L 336 13.2413793103448  L 336 28  L 143.409090909091 28  L 133.499999999999 28  L 0 28  Z " stroke-width="6" stroke-dasharray="27,12" stroke="#ff5151" fill="none" transform="matrix(1 0 0 1 3958 2900 )" mask="url(#clip158)" />
  </g>
</svg>