<?xml version="1.0" encoding="utf-8"?>
<svg version="1.1" xmlns:xlink="http://www.w3.org/1999/xlink" width="93px" height="107px" xmlns="http://www.w3.org/2000/svg">
  <g transform="matrix(1 0 0 1 -25 -985 )">
    <path d="M 26 1000  A 14 14 0 0 1 40 986 L 103 986  A 14 14 0 0 1 117 1000 L 117 1077  A 14 14 0 0 1 103 1091 L 40 1091  A 14 14 0 0 1 26 1077 L 26 1000  Z " fill-rule="nonzero" fill="#ffffff" stroke="none" />
    <path d="M 25.5 1000  A 14.5 14.5 0 0 1 40 985.5 L 103 985.5  A 14.5 14.5 0 0 1 117.5 1000 L 117.5 1077  A 14.5 14.5 0 0 1 103 1091.5 L 40 1091.5  A 14.5 14.5 0 0 1 25.5 1077 L 25.5 1000  Z " stroke-width="1" stroke-dasharray="9,4" stroke="#797979" fill="none" stroke-dashoffset="0.5" />
  </g>
</svg>