<?xml version="1.0" encoding="utf-8"?>
<svg version="1.1" xmlns:xlink="http://www.w3.org/1999/xlink" width="93px" height="107px" xmlns="http://www.w3.org/2000/svg">
  <g transform="matrix(1 0 0 1 -970 -985 )">
    <path d="M 970 985  L 1063 985  L 1063 1092  L 970 1092  L 970 985  " fill-rule="nonzero" fill="#cccccc" stroke="none" />
    <path d="M 977 992  L 1056 992  L 1056 1085  L 977 1085  L 977 992  " fill-rule="nonzero" fill="#ffffff" stroke="none" />
    <path d="M 1025.335 1015  C 1021.429 1015  1018.36 1011.931  1018.36 1008.025  C 1018.36 1004.119  1021.429 1001.05  1025.335 1001.05  C 1029.241 1001.05  1032.31 1004.119  1032.31 1008.025  C 1032.31 1011.931  1029.241 1015  1025.335 1015  " fill-rule="nonzero" fill="#cccccc" stroke="none" />
    <path d="M 980 1083  L 980 1034.6  L 998.5 1012.6  L 1024.4 1030.2  L 1039.2 1025.8  L 1054 1030.2  L 1054 1083  L 980 1083  " fill-rule="nonzero" fill="#169bd5" stroke="none" />
  </g>
</svg>