<?xml version="1.0" encoding="utf-8"?>
<svg version="1.1" xmlns:xlink="http://www.w3.org/1999/xlink" width="42px" height="42px" xmlns="http://www.w3.org/2000/svg">
  <g transform="matrix(1 0 0 1 -20 -160 )">
    <path d="M 20 160  L 62 160  L 62 202  L 20 202  L 20 160  " fill-rule="nonzero" fill="#cccccc" stroke="none" />
    <path d="M 23 163  L 59 163  L 59 199  L 23 199  L 23 163  " fill-rule="nonzero" fill="#ffffff" stroke="none" />
    <path d="M 44.99 172.6  C 43.226 172.6  41.84 171.214  41.84 169.45  C 41.84 167.686  43.226 166.3  44.99 166.3  C 46.754 166.3  48.14 167.686  48.14 169.45  C 48.14 171.214  46.754 172.6  44.99 172.6  " fill-rule="nonzero" fill="#cccccc" stroke="none" />
    <path d="M 24 198  L 24 179.3  L 32.5 170.8  L 44.4 177.6  L 51.2 175.9  L 58 177.6  L 58 198  L 24 198  " fill-rule="nonzero" fill="#169bd5" stroke="none" />
  </g>
</svg>