<?xml version="1.0" encoding="utf-8"?>
<svg version="1.1" xmlns:xlink="http://www.w3.org/1999/xlink" width="22px" height="12px" preserveAspectRatio="xMinYMid meet" viewBox="1514 1351  22 10" xmlns="http://www.w3.org/2000/svg">
  <path d="M 1079.5 472  L 1079.5 525  A 5 5 0 0 0 1084.5 530.5 L 1515 530.5  A 5 5 0 0 1 1520.5 535 L 1520.5 964  A 3 3 0 0 1 1523.5 967 A 3 3 0 0 1 1520.5 970 L 1520.5 997  A 3 3 0 0 1 1523.5 1000 A 3 3 0 0 1 1520.5 1003 L 1520.5 1351  A 5 5 0 0 0 1525.5 1356.5 L 1536 1356.5  " stroke-width="3" stroke-dasharray="27,12" stroke="#ff5151" fill="none" />
</svg>