<?xml version="1.0" encoding="utf-8"?>
<svg version="1.1" xmlns:xlink="http://www.w3.org/1999/xlink" width="24px" height="28px" xmlns="http://www.w3.org/2000/svg">
  <g transform="matrix(1 0 0 1 -749 -281 )">
    <path d="M 749 281  L 773 281  L 773 309  L 749 309  L 749 281  " fill-rule="nonzero" fill="#cccccc" stroke="none" />
    <path d="M 751 283  L 771 283  L 771 307  L 751 307  L 751 283  " fill-rule="nonzero" fill="#ffffff" stroke="none" />
    <path d="M 763.28 288.8  C 762.272 288.8  761.48 288.008  761.48 287  C 761.48 285.992  762.272 285.2  763.28 285.2  C 764.288 285.2  765.08 285.992  765.08 287  C 765.08 288.008  764.288 288.8  763.28 288.8  " fill-rule="nonzero" fill="#cccccc" stroke="none" />
    <path d="M 752 307  L 752 294.35  L 756.75 288.6  L 763.4 293.2  L 767.2 292.05  L 771 293.2  L 771 307  L 752 307  " fill-rule="nonzero" fill="#169bd5" stroke="none" />
  </g>
</svg>