<?xml version="1.0" encoding="utf-8"?>
<svg version="1.1" xmlns:xlink="http://www.w3.org/1999/xlink" width="107px" height="111px" xmlns="http://www.w3.org/2000/svg">
  <g transform="matrix(1 0 0 1 -465 -70 )">
    <path d="M 465 70  L 572 70  L 572 181  L 465 181  L 465 70  " fill-rule="nonzero" fill="#cccccc" stroke="none" />
    <path d="M 472 77  L 565 77  L 565 174  L 472 174  L 472 77  " fill-rule="nonzero" fill="#ffffff" stroke="none" />
    <path d="M 528.665 102.7  C 524.171 102.7  520.64 99.169  520.64 94.675  C 520.64 90.181  524.171 86.65  528.665 86.65  C 533.159 86.65  536.69 90.181  536.69 94.675  C 536.69 99.169  533.159 102.7  528.665 102.7  " fill-rule="nonzero" fill="#cccccc" stroke="none" />
    <path d="M 475 172  L 475 121.4  L 497 98.4  L 527.8 116.8  L 545.4 112.2  L 563 116.8  L 563 172  L 475 172  " fill-rule="nonzero" fill="#169bd5" stroke="none" />
  </g>
</svg>