<?xml version="1.0" encoding="utf-8"?>
<svg version="1.1" xmlns:xlink="http://www.w3.org/1999/xlink" width="193px" height="109px" xmlns="http://www.w3.org/2000/svg">
  <g transform="matrix(1 0 0 1 -3840 -930 )">
    <path d="M 3840 930  L 4033 930  L 4033 1039  L 3840 1039  L 3840 930  " fill-rule="nonzero" fill="#cccccc" stroke="none" />
    <path d="M 3848 938  L 4025 938  L 4025 1031  L 3848 1031  L 3848 938  " fill-rule="nonzero" fill="#ffffff" stroke="none" />
    <path d="M 3948.535 962.7  C 3943.957 962.7  3940.36 959.103  3940.36 954.525  C 3940.36 949.947  3943.957 946.35  3948.535 946.35  C 3953.113 946.35  3956.71 949.947  3956.71 954.525  C 3956.71 959.103  3953.113 962.7  3948.535 962.7  " fill-rule="nonzero" fill="#cccccc" stroke="none" />
    <path d="M 3851 1029  L 3851 980.6  L 3894 958.6  L 3954.2 999.180310880829  L 3988.6 971.8  L 4023 999.180310880829  L 4023 1029  L 3851 1029  " fill-rule="nonzero" fill="#169bd5" stroke="none" />
  </g>
</svg>