<?xml version="1.0" encoding="utf-8"?>
<svg version="1.1" xmlns:xlink="http://www.w3.org/1999/xlink" width="11px" height="11px" xmlns="http://www.w3.org/2000/svg">
  <g transform="matrix(1 0 0 1 -5785 -914 )">
    <path d="M 5790.5 914  C 5793.58 914  5796 916.42  5796 919.5  C 5796 922.58  5793.58 925  5790.5 925  C 5787.42 925  5785 922.58  5785 919.5  C 5785 916.42  5787.42 914  5790.5 914  Z " fill-rule="nonzero" fill="#ffffff" stroke="none" />
    <path d="M 5790.5 914.5  C 5793.3 914.5  5795.5 916.7  5795.5 919.5  C 5795.5 922.3  5793.3 924.5  5790.5 924.5  C 5787.7 924.5  5785.5 922.3  5785.5 919.5  C 5785.5 916.7  5787.7 914.5  5790.5 914.5  Z " stroke-width="1" stroke="#797979" fill="none" />
  </g>
</svg>