<?xml version="1.0" encoding="utf-8"?>
<svg version="1.1" xmlns:xlink="http://www.w3.org/1999/xlink" width="4px" height="13px" xmlns="http://www.w3.org/2000/svg">
  <defs>
    <linearGradient gradientUnits="userSpaceOnUse" x1="2226" y1="365.13" x2="2226" y2="372.15" id="LinearGradient221">
      <stop id="Stop222" stop-color="#797979" offset="0" />
      <stop id="Stop223" stop-color="#797979" offset="0.91" />
      <stop id="Stop224" stop-color="#ffffff" offset="1" />
    </linearGradient>
  </defs>
  <g transform="matrix(1 0 0 1 -2224 -365 )">
    <path d="M 2226 365  C 2227.12 365  2228 367.86  2228 371.5  C 2228 375.14  2227.12 378  2226 378  C 2224.88 378  2224 375.14  2224 371.5  C 2224 367.86  2224.88 365  2226 365  Z " fill-rule="nonzero" fill="url(#LinearGradient221)" stroke="none" />
    <path d="M 2226 365.5  C 2226.84 365.5  2227.5 368.14  2227.5 371.5  C 2227.5 374.86  2226.84 377.5  2226 377.5  C 2225.16 377.5  2224.5 374.86  2224.5 371.5  C 2224.5 368.14  2225.16 365.5  2226 365.5  Z " stroke-width="1" stroke="#797979" fill="none" />
  </g>
</svg>