<?xml version="1.0" encoding="utf-8"?>
<svg version="1.1" xmlns:xlink="http://www.w3.org/1999/xlink" width="32px" height="28px" preserveAspectRatio="xMinYMid meet" viewBox="2246 461  32 26" xmlns="http://www.w3.org/2000/svg">
  <g transform="matrix(-1 0 0 -1 4524 948 )">
    <path d="M 2157.5 469.5  A 4.5 4.5 0 0 0 2153 474 A 4.5 4.5 0 0 0 2157.5 478.5 A 4.5 4.5 0 0 0 2162 474 A 4.5 4.5 0 0 0 2157.5 469.5 Z M 2262.5 469.5  A 4.5 4.5 0 0 0 2258 474 A 4.5 4.5 0 0 0 2262.5 478.5 A 4.5 4.5 0 0 0 2267 474 A 4.5 4.5 0 0 0 2262.5 469.5 Z " fill-rule="nonzero" fill="#8c8c8c" stroke="none" />
    <path d="M 2157 474  L 2263 474  " stroke-width="4" stroke="#8c8c8c" fill="none" />
  </g>
</svg>