<?xml version="1.0" encoding="utf-8"?>
<svg version="1.1" xmlns:xlink="http://www.w3.org/1999/xlink" width="8px" height="26px" xmlns="http://www.w3.org/2000/svg">
  <g transform="matrix(1 0 0 1 -2022 -359 )">
    <path d="M 2026 359  C 2028.24 359  2030 364.72  2030 372  C 2030 379.28  2028.24 385  2026 385  C 2023.76 385  2022 379.28  2022 372  C 2022 364.72  2023.76 359  2026 359  Z " fill-rule="nonzero" fill="#ffffff" stroke="none" />
    <path d="M 2026 359.5  C 2027.96 359.5  2029.5 365  2029.5 372  C 2029.5 379  2027.96 384.5  2026 384.5  C 2024.04 384.5  2022.5 379  2022.5 372  C 2022.5 365  2024.04 359.5  2026 359.5  Z " stroke-width="1" stroke="#797979" fill="none" />
  </g>
</svg>