<?xml version="1.0" encoding="utf-8"?>
<svg version="1.1" xmlns:xlink="http://www.w3.org/1999/xlink" width="32px" height="28px" preserveAspectRatio="xMinYMid meet" viewBox="1970 389  32 26" xmlns="http://www.w3.org/2000/svg">
  <path d="M 1985.5 397.5  A 4.5 4.5 0 0 0 1981 402 A 4.5 4.5 0 0 0 1985.5 406.5 A 4.5 4.5 0 0 0 1990 402 A 4.5 4.5 0 0 0 1985.5 397.5 Z M 2090.5 397.5  A 4.5 4.5 0 0 0 2086 402 A 4.5 4.5 0 0 0 2090.5 406.5 A 4.5 4.5 0 0 0 2095 402 A 4.5 4.5 0 0 0 2090.5 397.5 Z " fill-rule="nonzero" fill="#8c8c8c" stroke="none" />
  <path d="M 1985 402  L 2091 402  " stroke-width="4" stroke="#8c8c8c" fill="none" />
</svg>