<?xml version="1.0" encoding="utf-8"?>
<svg version="1.1" xmlns:xlink="http://www.w3.org/1999/xlink" width="4px" height="13px" xmlns="http://www.w3.org/2000/svg">
  <g transform="matrix(1 0 0 1 -2021 -365 )">
    <path d="M 2023 365  C 2024.12 365  2025 367.86  2025 371.5  C 2025 375.14  2024.12 378  2023 378  C 2021.88 378  2021 375.14  2021 371.5  C 2021 367.86  2021.88 365  2023 365  Z " fill-rule="nonzero" fill="#8c8c8c" stroke="none" />
    <path d="M 2023 365.5  C 2023.84 365.5  2024.5 368.14  2024.5 371.5  C 2024.5 374.86  2023.84 377.5  2023 377.5  C 2022.16 377.5  2021.5 374.86  2021.5 371.5  C 2021.5 368.14  2022.16 365.5  2023 365.5  Z " stroke-width="1" stroke="#797979" fill="none" />
  </g>
</svg>