<?xml version="1.0" encoding="utf-8"?>
<svg version="1.1" xmlns:xlink="http://www.w3.org/1999/xlink" width="4px" height="13px" xmlns="http://www.w3.org/2000/svg">
  <g transform="matrix(1 0 0 1 -2118 -365 )">
    <path d="M 2120 365  C 2121.12 365  2122 367.86  2122 371.5  C 2122 375.14  2121.12 378  2120 378  C 2118.88 378  2118 375.14  2118 371.5  C 2118 367.86  2118.88 365  2120 365  Z " fill-rule="nonzero" fill="#ffffff" stroke="none" />
    <path d="M 2120 365.5  C 2120.84 365.5  2121.5 368.14  2121.5 371.5  C 2121.5 374.86  2120.84 377.5  2120 377.5  C 2119.16 377.5  2118.5 374.86  2118.5 371.5  C 2118.5 368.14  2119.16 365.5  2120 365.5  Z " stroke-width="1" stroke="#797979" fill="none" />
  </g>
</svg>