<?xml version="1.0" encoding="utf-8"?>
<svg version="1.1" xmlns:xlink="http://www.w3.org/1999/xlink" width="120px" height="4px" preserveAspectRatio="xMinYMid meet" viewBox="2104 449  120 2" xmlns="http://www.w3.org/2000/svg">
  <path d="M 2111.5 445.5  A 4.5 4.5 0 0 0 2107 450 A 4.5 4.5 0 0 0 2111.5 454.5 A 4.5 4.5 0 0 0 2116 450 A 4.5 4.5 0 0 0 2111.5 445.5 Z M 2216.5 445.5  A 4.5 4.5 0 0 0 2212 450 A 4.5 4.5 0 0 0 2216.5 454.5 A 4.5 4.5 0 0 0 2221 450 A 4.5 4.5 0 0 0 2216.5 445.5 Z " fill-rule="nonzero" fill="#8c8c8c" stroke="none" />
  <path d="M 2111 450  L 2217 450  " stroke-width="4" stroke="#8c8c8c" fill="none" />
</svg>