<?xml version="1.0" encoding="utf-8"?>
<svg version="1.1" xmlns:xlink="http://www.w3.org/1999/xlink" width="30px" height="28px" preserveAspectRatio="xMinYMid meet" viewBox="2034 409  30 26" xmlns="http://www.w3.org/2000/svg">
  <path d="M 2048.5 417.5  A 4.5 4.5 0 0 0 2044 422 A 4.5 4.5 0 0 0 2048.5 426.5 A 4.5 4.5 0 0 0 2053 422 A 4.5 4.5 0 0 0 2048.5 417.5 Z M 2153.5 417.5  A 4.5 4.5 0 0 0 2149 422 A 4.5 4.5 0 0 0 2153.5 426.5 A 4.5 4.5 0 0 0 2158 422 A 4.5 4.5 0 0 0 2153.5 417.5 Z " fill-rule="nonzero" fill="#8c8c8c" stroke="none" />
  <path d="M 2048 422  L 2154 422  " stroke-width="4" stroke="#8c8c8c" fill="none" />
</svg>