<?xml version="1.0" encoding="utf-8"?>
<svg version="1.1" xmlns:xlink="http://www.w3.org/1999/xlink" width="418px" height="6px" preserveAspectRatio="xMinYMid meet" viewBox="1944 371  418 4" xmlns="http://www.w3.org/2000/svg">
  <path d="M 1950.5 368.5  A 4.5 4.5 0 0 0 1946 373 A 4.5 4.5 0 0 0 1950.5 377.5 A 4.5 4.5 0 0 0 1955 373 A 4.5 4.5 0 0 0 1950.5 368.5 Z M 2355.5 368.5  A 4.5 4.5 0 0 0 2351 373 A 4.5 4.5 0 0 0 2355.5 377.5 A 4.5 4.5 0 0 0 2360 373 A 4.5 4.5 0 0 0 2355.5 368.5 Z " fill-rule="nonzero" fill="#8c8c8c" stroke="none" />
  <path d="M 1950 373  L 2356 373  " stroke-width="4" stroke="#8c8c8c" fill="none" />
</svg>