<?xml version="1.0" encoding="utf-8"?>
<svg version="1.1" xmlns:xlink="http://www.w3.org/1999/xlink" width="30px" height="28px" preserveAspectRatio="xMinYMid meet" viewBox="2340 477  30 26" xmlns="http://www.w3.org/2000/svg">
  <g transform="matrix(-1 0 0 -1 4710 980 )">
    <path d="M 2250.5 485.5  A 4.5 4.5 0 0 0 2246 490 A 4.5 4.5 0 0 0 2250.5 494.5 A 4.5 4.5 0 0 0 2255 490 A 4.5 4.5 0 0 0 2250.5 485.5 Z M 2355.5 485.5  A 4.5 4.5 0 0 0 2351 490 A 4.5 4.5 0 0 0 2355.5 494.5 A 4.5 4.5 0 0 0 2360 490 A 4.5 4.5 0 0 0 2355.5 485.5 Z " fill-rule="nonzero" fill="#8c8c8c" stroke="none" />
    <path d="M 2250 490  L 2356 490  " stroke-width="4" stroke="#8c8c8c" fill="none" />
  </g>
</svg>