<?xml version="1.0" encoding="utf-8"?>
<svg version="1.1" xmlns:xlink="http://www.w3.org/1999/xlink" width="1347px" height="500px" xmlns="http://www.w3.org/2000/svg">
  <g transform="matrix(1 0 0 1 -385 -400 )">
    <path d="M 385 400  L 1732 400  L 1732 900  L 385 900  L 385 400  " fill-rule="nonzero" fill="#cccccc" stroke="none" />
    <path d="M 420 435  L 1697 435  L 1697 865  L 420 865  L 420 435  " fill-rule="nonzero" fill="#ffffff" stroke="none" />
    <path d="M 1122.94 550  C 1101.94 550  1085.44 533.5  1085.44 512.5  C 1085.44 491.5  1101.94 475  1122.94 475  C 1143.94 475  1160.44 491.5  1160.44 512.5  C 1160.44 533.5  1143.94 550  1122.94 550  " fill-rule="nonzero" fill="#cccccc" stroke="none" />
    <path d="M 433 853  L 433 630.25  L 746 529  L 1184.2 762.799554565702  L 1434.6 589.75  L 1685 762.799554565702  L 1685 853  L 433 853  " fill-rule="nonzero" fill="#169bd5" stroke="none" />
  </g>
</svg>