<?xml version="1.0" encoding="utf-8"?>
<svg version="1.1" xmlns:xlink="http://www.w3.org/1999/xlink" width="4px" height="4px" xmlns="http://www.w3.org/2000/svg">
  <g transform="matrix(1 0 0 1 -22 -8 )">
    <path d="M 24 8  C 25.12 8  26 8.88  26 10  C 26 11.12  25.12 12  24 12  C 22.88 12  22 11.12  22 10  C 22 8.88  22.88 8  24 8  Z " fill-rule="nonzero" fill="#0099ff" stroke="none" />
    <path d="M 24 8.5  C 24.84 8.5  25.5 9.16  25.5 10  C 25.5 10.84  24.84 11.5  24 11.5  C 23.16 11.5  22.5 10.84  22.5 10  C 22.5 9.16  23.16 8.5  24 8.5  Z " stroke-width="1" stroke="#0099ff" fill="none" />
  </g>
</svg>