<?xml version="1.0" encoding="utf-8"?>
<svg version="1.1" xmlns:xlink="http://www.w3.org/1999/xlink" width="6px" height="6px" xmlns="http://www.w3.org/2000/svg">
  <g transform="matrix(1 0 0 1 -38 -203 )">
    <path d="M 41 203  C 42.68 203  44 204.32  44 206  C 44 207.68  42.68 209  41 209  C 39.32 209  38 207.68  38 206  C 38 204.32  39.32 203  41 203  Z " fill-rule="nonzero" fill="#8c8c8c" stroke="none" />
    <path d="M 41 203.5  C 42.4 203.5  43.5 204.6  43.5 206  C 43.5 207.4  42.4 208.5  41 208.5  C 39.6 208.5  38.5 207.4  38.5 206  C 38.5 204.6  39.6 203.5  41 203.5  Z " stroke-width="1" stroke="#797979" fill="none" />
  </g>
</svg>