<?xml version="1.0" encoding="utf-8"?>
<svg version="1.1" xmlns:xlink="http://www.w3.org/1999/xlink" width="206px" height="6px" preserveAspectRatio="xMinYMid meet" viewBox="-62 255  206 4" xmlns="http://www.w3.org/2000/svg">
  <g transform="matrix(0 -1 1 0 -216 298 )">
    <path d="M -54.5 252.5  A 4.5 4.5 0 0 0 -59 257 A 4.5 4.5 0 0 0 -54.5 261.5 A 4.5 4.5 0 0 0 -50 257 A 4.5 4.5 0 0 0 -54.5 252.5 Z M 136.5 252.5  A 4.5 4.5 0 0 0 132 257 A 4.5 4.5 0 0 0 136.5 261.5 A 4.5 4.5 0 0 0 141 257 A 4.5 4.5 0 0 0 136.5 252.5 Z " fill-rule="nonzero" fill="#8c8c8c" stroke="none" transform="matrix(6.12303176911189E-17 1 -1 6.12303176911189E-17 298 216 )" />
    <path d="M -55 257  L 137 257  " stroke-width="4" stroke="#8c8c8c" fill="none" transform="matrix(6.12303176911189E-17 1 -1 6.12303176911189E-17 298 216 )" />
  </g>
</svg>