<?xml version="1.0" encoding="utf-8"?>
<svg version="1.1" xmlns:xlink="http://www.w3.org/1999/xlink" width="6px" height="6px" xmlns="http://www.w3.org/2000/svg">
  <g transform="matrix(1 0 0 1 -38 -252 )">
    <path d="M 41 252  C 42.68 252  44 253.32  44 255  C 44 256.68  42.68 258  41 258  C 39.32 258  38 256.68  38 255  C 38 253.32  39.32 252  41 252  Z " fill-rule="nonzero" fill="#ffffff" stroke="none" />
    <path d="M 41 252.5  C 42.4 252.5  43.5 253.6  43.5 255  C 43.5 256.4  42.4 257.5  41 257.5  C 39.6 257.5  38.5 256.4  38.5 255  C 38.5 253.6  39.6 252.5  41 252.5  Z " stroke-width="1" stroke="#797979" fill="none" />
  </g>
</svg>