<?xml version="1.0" encoding="utf-8"?>
<svg version="1.1" xmlns:xlink="http://www.w3.org/1999/xlink" width="12px" height="12px" xmlns="http://www.w3.org/2000/svg">
  <g transform="matrix(1 0 0 1 -35 -200 )">
    <path d="M 41 200  C 44.36 200  47 202.64  47 206  C 47 209.36  44.36 212  41 212  C 37.64 212  35 209.36  35 206  C 35 202.64  37.64 200  41 200  Z " fill-rule="nonzero" fill="#ffffff" stroke="none" />
    <path d="M 41 200.5  C 44.08 200.5  46.5 202.92  46.5 206  C 46.5 209.08  44.08 211.5  41 211.5  C 37.92 211.5  35.5 209.08  35.5 206  C 35.5 202.92  37.92 200.5  41 200.5  Z " stroke-width="1" stroke="#797979" fill="none" />
  </g>
</svg>