<?xml version="1.0" encoding="utf-8"?>
<svg version="1.1" xmlns:xlink="http://www.w3.org/1999/xlink" width="20px" height="20px" xmlns="http://www.w3.org/2000/svg">
  <g transform="matrix(1 0 0 1 -728 -198 )">
    <path d="M 10 0  C 15.5228629032258 0  20 4.47713709677419  20 10  C 20 15.5228629032258  15.5228629032258 20  10 20  C 4.47713709677419 20  0 15.5228629032258  0 10  C 0 4.47713709677419  4.47713709677419 0  10 0  Z M 7.93088709677419 15.2948790322581  C 8.18286290322581 15.5468548387097  8.59133064516129 15.5468548387097  8.8433064516129 15.2949193548387  L 16.2626612903226 7.87556451612903  C 16.5145967741935 7.62362903225807  16.5145967741935 7.21512096774194  16.2626612903226 6.96318548387097  L 15.3502822580645 6.0508064516129  C 15.0983467741935 5.79883064516129  14.6898387096774 5.79883064516129  14.4378629032258 6.0508064516129  L 8.38709677419355 12.1015322580645  L 5.56213709677419 9.27657258064516  C 5.31020161290323 9.02463709677419  4.9016935483871 9.02463709677419  4.64971774193548 9.27657258064516  L 3.73733870967742 10.1889516129032  C 3.48540322580645 10.4408870967742  3.48540322580645 10.8493951612903  3.73733870967742 11.1013306451613  L 7.93088709677419 15.2948790322581  Z " fill-rule="nonzero" fill="#13bb00" stroke="none" transform="matrix(1 0 0 1 728 198 )" />
  </g>
</svg>