<?xml version="1.0" encoding="utf-8"?>
<svg version="1.1" xmlns:xlink="http://www.w3.org/1999/xlink" width="22px" height="25px" xmlns="http://www.w3.org/2000/svg">
  <g transform="matrix(1 0 0 1 -698 -674 )">
    <path d="M 7.85714285714286 13.4765625  C 7.85714285714286 13.798828125  7.59196428571429 14.0625  7.26785714285714 14.0625  L 5.30357142857143 14.0625  C 4.97946428571429 14.0625  4.71428571428571 13.798828125  4.71428571428571 13.4765625  L 4.71428571428571 11.5234375  C 4.71428571428571 11.201171875  4.97946428571429 10.9375  5.30357142857143 10.9375  L 7.26785714285714 10.9375  C 7.59196428571429 10.9375  7.85714285714286 11.201171875  7.85714285714286 11.5234375  L 7.85714285714286 13.4765625  Z M 11.9821428571429 14.0625  C 12.30625 14.0625  12.5714285714286 13.798828125  12.5714285714286 13.4765625  L 12.5714285714286 11.5234375  C 12.5714285714286 11.201171875  12.30625 10.9375  11.9821428571429 10.9375  L 10.0178571428571 10.9375  C 9.69375 10.9375  9.42857142857143 11.201171875  9.42857142857143 11.5234375  L 9.42857142857143 13.4765625  C 9.42857142857143 13.798828125  9.69375 14.0625  10.0178571428571 14.0625  L 11.9821428571429 14.0625  Z M 16.6964285714286 14.0625  C 17.0205357142857 14.0625  17.2857142857143 13.798828125  17.2857142857143 13.4765625  L 17.2857142857143 11.5234375  C 17.2857142857143 11.201171875  17.0205357142857 10.9375  16.6964285714286 10.9375  L 14.7321428571429 10.9375  C 14.4080357142857 10.9375  14.1428571428571 11.201171875  14.1428571428571 11.5234375  L 14.1428571428571 13.4765625  C 14.1428571428571 13.798828125  14.4080357142857 14.0625  14.7321428571429 14.0625  L 16.6964285714286 14.0625  Z M 11.9821428571429 18.75  C 12.30625 18.75  12.5714285714286 18.486328125  12.5714285714286 18.1640625  L 12.5714285714286 16.2109375  C 12.5714285714286 15.888671875  12.30625 15.625  11.9821428571429 15.625  L 10.0178571428571 15.625  C 9.69375 15.625  9.42857142857143 15.888671875  9.42857142857143 16.2109375  L 9.42857142857143 18.1640625  C 9.42857142857143 18.486328125  9.69375 18.75  10.0178571428571 18.75  L 11.9821428571429 18.75  Z M 7.26785714285714 18.75  C 7.59196428571429 18.75  7.85714285714286 18.486328125  7.85714285714286 18.1640625  L 7.85714285714286 16.2109375  C 7.85714285714286 15.888671875  7.59196428571429 15.625  7.26785714285714 15.625  L 5.30357142857143 15.625  C 4.97946428571429 15.625  4.71428571428571 15.888671875  4.71428571428571 16.2109375  L 4.71428571428571 18.1640625  C 4.71428571428571 18.486328125  4.97946428571429 18.75  5.30357142857143 18.75  L 7.26785714285714 18.75  Z M 16.6964285714286 18.75  C 17.0205357142857 18.75  17.2857142857143 18.486328125  17.2857142857143 18.1640625  L 17.2857142857143 16.2109375  C 17.2857142857143 15.888671875  17.0205357142857 15.625  16.6964285714286 15.625  L 14.7321428571429 15.625  C 14.4080357142857 15.625  14.1428571428571 15.888671875  14.1428571428571 16.2109375  L 14.1428571428571 18.1640625  C 14.1428571428571 18.486328125  14.4080357142857 18.75  14.7321428571429 18.75  L 16.6964285714286 18.75  Z M 19.6428571428571 3.125  C 20.9441964285714 3.125  22 4.1748046875  22 5.46875  L 22 22.65625  C 22 23.9501953125  20.9441964285714 25  19.6428571428571 25  L 2.35714285714286 25  C 1.05580357142857 25  0 23.9501953125  0 22.65625  L 0 5.46875  C 0 4.1748046875  1.05580357142857 3.125  2.35714285714286 3.125  L 4.71428571428571 3.125  L 4.71428571428571 0.5859375  C 4.71428571428571 0.263671875  4.97946428571429 0  5.30357142857143 0  L 7.26785714285714 0  C 7.59196428571429 0  7.85714285714286 0.263671875  7.85714285714286 0.5859375  L 7.85714285714286 3.125  L 14.1428571428571 3.125  L 14.1428571428571 0.5859375  C 14.1428571428571 0.263671875  14.4080357142857 0  14.7321428571429 0  L 16.6964285714286 0  C 17.0205357142857 0  17.2857142857143 0.263671875  17.2857142857143 0.5859375  L 17.2857142857143 3.125  L 19.6428571428571 3.125  Z M 19.3482142857143 22.65625  C 19.5102678571429 22.65625  19.6428571428571 22.5244140625  19.6428571428571 22.36328125  L 19.6428571428571 8  L 2.35714285714286 8  L 2.35714285714286 22.36328125  C 2.35714285714286 22.5244140625  2.48973214285714 22.65625  2.65178571428571 22.65625  L 19.3482142857143 22.65625  Z " fill-rule="nonzero" fill="#000000" stroke="none" transform="matrix(1 0 0 1 698 674 )" />
  </g>
</svg>