<?xml version="1.0" encoding="utf-8"?>
<svg version="1.1" xmlns:xlink="http://www.w3.org/1999/xlink" width="252px" height="148px" xmlns="http://www.w3.org/2000/svg">
  <g transform="matrix(1 0 0 1 -449 -209 )">
    <path d="M 449 209  L 701 209  L 701 357  L 449 357  L 449 209  " fill-rule="nonzero" fill="#cccccc" stroke="none" />
    <path d="M 459 219  L 691 219  L 691 347  L 459 347  L 459 219  " fill-rule="nonzero" fill="#ffffff" stroke="none" />
    <path d="M 591.14 253.4  C 584.924 253.4  580.04 248.516  580.04 242.3  C 580.04 236.084  584.924 231.2  591.14 231.2  C 597.356 231.2  602.24 236.084  602.24 242.3  C 602.24 248.516  597.356 253.4  591.14 253.4  " fill-rule="nonzero" fill="#cccccc" stroke="none" />
    <path d="M 463 344  L 463 277.45  L 519.25 247.2  L 598 301.361904761905  L 643 265.35  L 688 301.361904761905  L 688 344  L 463 344  " fill-rule="nonzero" fill="#169bd5" stroke="none" />
  </g>
</svg>