<?xml version="1.0" encoding="utf-8"?>
<svg version="1.1" xmlns:xlink="http://www.w3.org/1999/xlink" width="138px" height="124px" xmlns="http://www.w3.org/2000/svg">
  <g transform="matrix(1 0 0 1 -71 -502 )">
    <path d="M 71 502  L 209 502  L 209 626  L 71 626  L 71 502  " fill-rule="nonzero" fill="#cccccc" stroke="none" />
    <path d="M 80 511  L 200 511  L 200 617  L 80 617  L 80 511  " fill-rule="nonzero" fill="#ffffff" stroke="none" />
    <path d="M 152.06 539.2  C 146.852 539.2  142.76 535.108  142.76 529.9  C 142.76 524.692  146.852 520.6  152.06 520.6  C 157.268 520.6  161.36 524.692  161.36 529.9  C 161.36 535.108  157.268 539.2  152.06 539.2  " fill-rule="nonzero" fill="#cccccc" stroke="none" />
    <path d="M 83 614  L 83 559  L 111.5 534  L 151.4 560.086956521739  L 174.2 549  L 197 560.086956521739  L 197 614  L 83 614  " fill-rule="nonzero" fill="#169bd5" stroke="none" />
  </g>
</svg>