<?xml version="1.0" encoding="utf-8"?>
<svg version="1.1" xmlns:xlink="http://www.w3.org/1999/xlink" width="134px" height="170px" xmlns="http://www.w3.org/2000/svg">
  <g transform="matrix(1 0 0 1 -15 -446 )">
    <path d="M 15 446  L 149 446  L 149 616  L 15 616  L 15 446  " fill-rule="nonzero" fill="#cccccc" stroke="none" />
    <path d="M 24 455  L 140 455  L 140 607  L 24 607  L 24 455  " fill-rule="nonzero" fill="#ffffff" stroke="none" />
    <path d="M 94.73 491.6  C 89.102 491.6  84.68 487.178  84.68 481.55  C 84.68 475.922  89.102 471.5  94.73 471.5  C 100.358 471.5  104.78 475.922  104.78 481.55  C 104.78 487.178  100.358 491.6  94.73 491.6  " fill-rule="nonzero" fill="#cccccc" stroke="none" />
    <path d="M 28 604  L 28 524.25  L 55.25 488  L 93.4 517  L 115.2 509.75  L 137 517  L 137 604  L 28 604  " fill-rule="nonzero" fill="#169bd5" stroke="none" />
  </g>
</svg>