<?xml version="1.0" encoding="utf-8"?>
<svg version="1.1" xmlns:xlink="http://www.w3.org/1999/xlink" width="83px" height="83px" xmlns="http://www.w3.org/2000/svg">
  <defs>
    <mask fill="white" id="clip235">
      <path d="M 41.5 0  C 64.74 0  83 18.26  83 41.5  C 83 64.74  64.74 83  41.5 83  C 18.26 83  0 64.74  0 41.5  C 0 18.26  18.26 0  41.5 0  Z M 41.7075 70.55  C 58.0917 70.55  70.965 57.6767  70.965 41.2925  C 70.965 24.9083  58.0917 12.035  41.7075 12.035  C 25.3233 12.035  12.45 24.9083  12.45 41.2925  C 12.45 57.6767  25.3233 70.55  41.7075 70.55  Z " fill-rule="evenodd" />
    </mask>
  </defs>
  <g transform="matrix(1 0 0 1 -1156 -1877 )">
    <path d="M 41.5 0  C 64.74 0  83 18.26  83 41.5  C 83 64.74  64.74 83  41.5 83  C 18.26 83  0 64.74  0 41.5  C 0 18.26  18.26 0  41.5 0  Z M 41.7075 70.55  C 58.0917 70.55  70.965 57.6767  70.965 41.2925  C 70.965 24.9083  58.0917 12.035  41.7075 12.035  C 25.3233 12.035  12.45 24.9083  12.45 41.2925  C 12.45 57.6767  25.3233 70.55  41.7075 70.55  Z " fill-rule="nonzero" fill="#ffffff" stroke="none" transform="matrix(1 0 0 1 1156 1877 )" />
    <path d="M 41.5 0  C 64.74 0  83 18.26  83 41.5  C 83 64.74  64.74 83  41.5 83  C 18.26 83  0 64.74  0 41.5  C 0 18.26  18.26 0  41.5 0  Z " stroke-width="2" stroke="#797979" fill="none" transform="matrix(1 0 0 1 1156 1877 )" mask="url(#clip235)" />
    <path d="M 41.7075 70.55  C 58.0917 70.55  70.965 57.6767  70.965 41.2925  C 70.965 24.9083  58.0917 12.035  41.7075 12.035  C 25.3233 12.035  12.45 24.9083  12.45 41.2925  C 12.45 57.6767  25.3233 70.55  41.7075 70.55  Z " stroke-width="2" stroke="#797979" fill="none" transform="matrix(1 0 0 1 1156 1877 )" mask="url(#clip235)" />
  </g>
</svg>