<?xml version="1.0" encoding="utf-8"?>
<svg version="1.1" xmlns:xlink="http://www.w3.org/1999/xlink" width="93px" height="93px" xmlns="http://www.w3.org/2000/svg">
  <defs>
    <mask fill="white" id="clip160">
      <path d="M 46 92.9986916610223  L 46 80.7424093442541  C 65.865222951857 80.554952380013  80.7441860465116 65.556425702914  80.7441860465116 46.5  C 80.7441860465116 27.3232558139535  65.6767441860465 12.2558139534884  46.5 12.2558139534884  C 27.3232558139535 12.2558139534884  12.2558139534884 27.3232558139535  12.2558139534884 46.5  C 12.2558139534884 46.6203190050944  12.2564070948896 46.7404762443521  12.2579718817908 46  L 0.00130862164788136 46  C 0.000436696310151377 46.7404877148101  0 46.6203034069019  0 46.5  C 0 20.46  20.46 0  46.5 0  C 72.54 0  93 20.46  93 46.5  C 93 72.4196965930981  72.7286115145357 92.8108326901605  46 92.9986916610223  Z " fill-rule="evenodd" />
    </mask>
  </defs>
  <g transform="matrix(1 0 0 1 -343 -2334 )">
    <path d="M 46 92.9986916610223  L 46 80.7424093442541  C 65.865222951857 80.554952380013  80.7441860465116 65.556425702914  80.7441860465116 46.5  C 80.7441860465116 27.3232558139535  65.6767441860465 12.2558139534884  46.5 12.2558139534884  C 27.3232558139535 12.2558139534884  12.2558139534884 27.3232558139535  12.2558139534884 46.5  C 12.2558139534884 46.6203190050944  12.2564070948896 46.7404762443521  12.2579718817908 46  L 0.00130862164788136 46  C 0.000436696310151377 46.7404877148101  0 46.6203034069019  0 46.5  C 0 20.46  20.46 0  46.5 0  C 72.54 0  93 20.46  93 46.5  C 93 72.4196965930981  72.7286115145357 92.8108326901605  46 92.9986916610223  Z " fill-rule="nonzero" fill="#f00000" stroke="none" transform="matrix(1 0 0 1 343 2334 )" />
    <path d="M 46 92.9986916610223  L 46 80.7424093442541  C 65.865222951857 80.554952380013  80.7441860465116 65.556425702914  80.7441860465116 46.5  C 80.7441860465116 27.3232558139535  65.6767441860465 12.2558139534884  46.5 12.2558139534884  C 27.3232558139535 12.2558139534884  12.2558139534884 27.3232558139535  12.2558139534884 46.5  C 12.2558139534884 46.6203190050944  12.2564070948896 46.7404762443521  12.2579718817908 46  L 0.00130862164788136 46  C 0.000436696310151377 46.7404877148101  0 46.6203034069019  0 46.5  C 0 20.46  20.46 0  46.5 0  C 72.54 0  93 20.46  93 46.5  C 93 72.4196965930981  72.7286115145357 92.8108326901605  46 92.9986916610223  Z " stroke-width="2" stroke="#797979" fill="none" transform="matrix(1 0 0 1 343 2334 )" mask="url(#clip160)" />
  </g>
</svg>