<?xml version="1.0" encoding="utf-8"?>
<svg version="1.1" xmlns:xlink="http://www.w3.org/1999/xlink" width="48px" height="93px" xmlns="http://www.w3.org/2000/svg">
  <defs>
    <mask fill="white" id="clip159">
      <path d="M 46.9090909090909 80.7441860465116  C 47.0304672361315 80.7441860465116  47.1516803774103 80.7435929168681  47.2727272727273 80.7423898734617  L 47.2728143724812 92.9986913783521  C 47.1516943515973 92.9995633036898  47.0304527037368 93  46.9090909090909 93  C 20.64 93  0 72.54  0 46.5  C 0 20.46  20.64 0  46.9090909090909 0  C 47.0304527037368 0  47.1516943515972 0.000436696310192358  47.2727272727273 0.00130863673164608  L 47.2727276026546 12.2575906359567  C 47.1516803774103 12.2564070831319  47.0304672361315 12.2558139534884  46.9090909090909 12.2558139534884  C 27.5636363636363 12.2558139534884  12.3636363636364 27.3232558139535  12.3636363636364 46.5  C 12.3636363636364 65.6767441860465  27.5636363636363 80.7441860465116  46.9090909090909 80.7441860465116  Z " fill-rule="evenodd" />
    </mask>
  </defs>
  <g transform="matrix(1 0 0 1 -342 -2334 )">
    <path d="M 46.9090909090909 80.7441860465116  C 47.0304672361315 80.7441860465116  47.1516803774103 80.7435929168681  47.2727272727273 80.7423898734617  L 47.2728143724812 92.9986913783521  C 47.1516943515973 92.9995633036898  47.0304527037368 93  46.9090909090909 93  C 20.64 93  0 72.54  0 46.5  C 0 20.46  20.64 0  46.9090909090909 0  C 47.0304527037368 0  47.1516943515972 0.000436696310192358  47.2727272727273 0.00130863673164608  L 47.2727276026546 12.2575906359567  C 47.1516803774103 12.2564070831319  47.0304672361315 12.2558139534884  46.9090909090909 12.2558139534884  C 27.5636363636363 12.2558139534884  12.3636363636364 27.3232558139535  12.3636363636364 46.5  C 12.3636363636364 65.6767441860465  27.5636363636363 80.7441860465116  46.9090909090909 80.7441860465116  Z " fill-rule="nonzero" fill="#003aff" stroke="none" transform="matrix(1 0 0 1 342 2334 )" />
    <path d="M 46.9090909090909 80.7441860465116  C 47.0304672361315 80.7441860465116  47.1516803774103 80.7435929168681  47.2727272727273 80.7423898734617  L 47.2728143724812 92.9986913783521  C 47.1516943515973 92.9995633036898  47.0304527037368 93  46.9090909090909 93  C 20.64 93  0 72.54  0 46.5  C 0 20.46  20.64 0  46.9090909090909 0  C 47.0304527037368 0  47.1516943515972 0.000436696310192358  47.2727272727273 0.00130863673164608  L 47.2727276026546 12.2575906359567  C 47.1516803774103 12.2564070831319  47.0304672361315 12.2558139534884  46.9090909090909 12.2558139534884  C 27.5636363636363 12.2558139534884  12.3636363636364 27.3232558139535  12.3636363636364 46.5  C 12.3636363636364 65.6767441860465  27.5636363636363 80.7441860465116  46.9090909090909 80.7441860465116  Z " stroke-width="2" stroke="#797979" fill="none" transform="matrix(1 0 0 1 342 2334 )" mask="url(#clip159)" />
  </g>
</svg>