<?xml version="1.0" encoding="utf-8"?>
<svg version="1.1" xmlns:xlink="http://www.w3.org/1999/xlink" width="89px" height="173px" xmlns="http://www.w3.org/2000/svg">
  <g transform="matrix(1 0 0 1 -574 -1015 )">
    <path d="M 86.9772727272727 150.201550387597  C 87.2023246669937 150.201550387597  87.4270740331149 150.200447038905  87 150.19820911945  L 87 172.997565682311  C 87.4270999435867 172.99918765095  87.202297721512 173  86.9772727272727 173  C 38.27 173  0 134.94  0 86.5  C 0 38.06  38.27 0  86.9772727272727 0  C 87.202297721512 0  87.4270999435865 0.000812349050142773  87 0.00243434574811584  L 87 22.8017546238765  C 87.4270740331149 22.7995529610948  87.2023246669937 22.7984496124031  86.9772727272727 22.7984496124031  C 51.1075757575757 22.7984496124031  22.9242424242424 50.8271317829457  22.9242424242424 86.5  C 22.9242424242424 122.172868217054  51.1075757575757 150.201550387597  86.9772727272727 150.201550387597  Z " fill-rule="nonzero" fill="#003aff" stroke="none" transform="matrix(1 0 0 1 574 1015 )" />
  </g>
</svg>