<?xml version="1.0" encoding="utf-8"?>
<svg version="1.1" xmlns:xlink="http://www.w3.org/1999/xlink" width="27px" height="31px" xmlns="http://www.w3.org/2000/svg">
  <g transform="matrix(1 0 0 1 -923 -1322 )">
    <path d="M 9.64285714285714 16.7109375  C 9.64285714285714 17.110546875  9.31741071428571 17.4375  8.91964285714286 17.4375  L 6.50892857142857 17.4375  C 6.11116071428571 17.4375  5.78571428571429 17.110546875  5.78571428571429 16.7109375  L 5.78571428571429 14.2890625  C 5.78571428571429 13.889453125  6.11116071428571 13.5625  6.50892857142857 13.5625  L 8.91964285714286 13.5625  C 9.31741071428571 13.5625  9.64285714285714 13.889453125  9.64285714285714 14.2890625  L 9.64285714285714 16.7109375  Z M 14.7053571428571 17.4375  C 15.103125 17.4375  15.4285714285714 17.110546875  15.4285714285714 16.7109375  L 15.4285714285714 14.2890625  C 15.4285714285714 13.889453125  15.103125 13.5625  14.7053571428571 13.5625  L 12.2946428571429 13.5625  C 11.896875 13.5625  11.5714285714286 13.889453125  11.5714285714286 14.2890625  L 11.5714285714286 16.7109375  C 11.5714285714286 17.110546875  11.896875 17.4375  12.2946428571429 17.4375  L 14.7053571428571 17.4375  Z M 20.4910714285714 17.4375  C 20.8888392857143 17.4375  21.2142857142857 17.110546875  21.2142857142857 16.7109375  L 21.2142857142857 14.2890625  C 21.2142857142857 13.889453125  20.8888392857143 13.5625  20.4910714285714 13.5625  L 18.0803571428571 13.5625  C 17.6825892857143 13.5625  17.3571428571429 13.889453125  17.3571428571429 14.2890625  L 17.3571428571429 16.7109375  C 17.3571428571429 17.110546875  17.6825892857143 17.4375  18.0803571428571 17.4375  L 20.4910714285714 17.4375  Z M 14.7053571428571 23.25  C 15.103125 23.25  15.4285714285714 22.923046875  15.4285714285714 22.5234375  L 15.4285714285714 20.1015625  C 15.4285714285714 19.701953125  15.103125 19.375  14.7053571428571 19.375  L 12.2946428571429 19.375  C 11.896875 19.375  11.5714285714286 19.701953125  11.5714285714286 20.1015625  L 11.5714285714286 22.5234375  C 11.5714285714286 22.923046875  11.896875 23.25  12.2946428571429 23.25  L 14.7053571428571 23.25  Z M 8.91964285714286 23.25  C 9.31741071428571 23.25  9.64285714285714 22.923046875  9.64285714285714 22.5234375  L 9.64285714285714 20.1015625  C 9.64285714285714 19.701953125  9.31741071428571 19.375  8.91964285714286 19.375  L 6.50892857142857 19.375  C 6.11116071428571 19.375  5.78571428571429 19.701953125  5.78571428571429 20.1015625  L 5.78571428571429 22.5234375  C 5.78571428571429 22.923046875  6.11116071428571 23.25  6.50892857142857 23.25  L 8.91964285714286 23.25  Z M 20.4910714285714 23.25  C 20.8888392857143 23.25  21.2142857142857 22.923046875  21.2142857142857 22.5234375  L 21.2142857142857 20.1015625  C 21.2142857142857 19.701953125  20.8888392857143 19.375  20.4910714285714 19.375  L 18.0803571428571 19.375  C 17.6825892857143 19.375  17.3571428571429 19.701953125  17.3571428571429 20.1015625  L 17.3571428571429 22.5234375  C 17.3571428571429 22.923046875  17.6825892857143 23.25  18.0803571428571 23.25  L 20.4910714285714 23.25  Z M 24.1071428571429 3.875  C 25.7042410714286 3.875  27 5.1767578125  27 6.78125  L 27 28.09375  C 27 29.6982421875  25.7042410714286 31  24.1071428571429 31  L 2.89285714285714 31  C 1.29575892857143 31  0 29.6982421875  0 28.09375  L 0 6.78125  C 0 5.1767578125  1.29575892857143 3.875  2.89285714285714 3.875  L 5.78571428571429 3.875  L 5.78571428571429 0.7265625  C 5.78571428571429 0.326953125  6.11116071428571 0  6.50892857142857 0  L 8.91964285714286 0  C 9.31741071428571 0  9.64285714285714 0.326953125  9.64285714285714 0.7265625  L 9.64285714285714 3.875  L 17.3571428571429 3.875  L 17.3571428571429 0.7265625  C 17.3571428571429 0.326953125  17.6825892857143 0  18.0803571428571 0  L 20.4910714285714 0  C 20.8888392857143 0  21.2142857142857 0.326953125  21.2142857142857 0.7265625  L 21.2142857142857 3.875  L 24.1071428571429 3.875  Z M 23.7455357142857 28  C 23.9444196428571 28.09375  24.1071428571429 27.9302734375  24 27.73046875  L 24 10  L 3 10  L 3 27.73046875  C 2.89285714285714 27.9302734375  3.05558035714286 28.09375  3.25446428571429 28  L 23.7455357142857 28  Z " fill-rule="nonzero" fill="#000000" stroke="none" transform="matrix(1 0 0 1 923 1322 )" />
  </g>
</svg>