<?xml version="1.0" encoding="utf-8"?>
<svg version="1.1" xmlns:xlink="http://www.w3.org/1999/xlink" width="30px" height="26px" xmlns="http://www.w3.org/2000/svg">
  <g transform="matrix(1 0 0 1 -971 -1148 )">
    <path d="M 30 2.78571428571429  C 30 1.24776785714286  28.740234375 0  27.1875 0  L 2.8125 0  C 1.259765625 0  0 1.24776785714286  0 2.78571428571429  L 0 23.2142857142857  C 0 24.7522321428571  1.259765625 26  2.8125 26  L 27.1875 26  C 28.740234375 26  30 24.7522321428571  30 23.2142857142857  L 30 2.78571428571429  Z M 27 3.13392857142857  L 27 22.8660714285714  C 27.1875 23.0575892857143  27.029296875 23.2142857142857  26.8359375 23  L 3.1640625 23  C 2.970703125 23.2142857142857  2.8125 23.0575892857143  3 22.8660714285714  L 3 3.13392857142857  C 2.8125 2.94241071428571  2.970703125 2.78571428571429  3.1640625 3  L 26.8359375 3  C 27.029296875 2.78571428571429  27.1875 2.94241071428571  27 3.13392857142857  Z M 20.888671875 8.46160714285714  C 21.1640625 8.72857142857142  21.1640625 9.16383928571428  20.888671875 9.43660714285714  L 17.291015625 13  L 20.888671875 16.5633928571429  C 21.158203125 16.8303571428571  21.158203125 17.265625  20.888671875 17.5383928571429  L 19.58203125 18.8325892857143  C 19.3125 19.0995535714286  18.873046875 19.0995535714286  18.59765625 18.8325892857143  L 15 15.2691964285714  L 11.40234375 18.8325892857143  C 11.1328125 19.0995535714286  10.693359375 19.0995535714286  10.41796875 18.8325892857143  L 9.111328125 17.5383928571429  C 8.841796875 17.2714285714286  8.841796875 16.8361607142857  9.111328125 16.5633928571429  L 12.708984375 13  L 9.111328125 9.43660714285714  C 8.841796875 9.16964285714285  8.841796875 8.734375  9.111328125 8.46160714285714  L 10.41796875 7.16741071428571  C 10.6875 6.90044642857143  11.126953125 6.90044642857143  11.40234375 7.16741071428571  L 15 10.7308035714286  L 18.59765625 7.16741071428571  C 18.8671875 6.90044642857143  19.306640625 6.90044642857143  19.58203125 7.16741071428571  L 20.888671875 8.46160714285714  Z " fill-rule="nonzero" fill="#000000" stroke="none" transform="matrix(1 0 0 1 971 1148 )" />
  </g>
</svg>