<?xml version="1.0" encoding="utf-8"?>
<svg version="1.1" xmlns:xlink="http://www.w3.org/1999/xlink" width="69px" height="88px" xmlns="http://www.w3.org/2000/svg">
  <g transform="matrix(1 0 0 1 -594 -540 )">
    <path d="M 594 540  L 663 540  L 663 628  L 594 628  L 594 540  " fill-rule="nonzero" fill="#cccccc" stroke="none" />
    <path d="M 599 545  L 658 545  L 658 623  L 599 623  L 599 545  " fill-rule="nonzero" fill="#ffffff" stroke="none" />
    <path d="M 635.055 563.55  C 632.157 563.55  629.88 561.273  629.88 558.375  C 629.88 555.477  632.157 553.2  635.055 553.2  C 637.953 553.2  640.23 555.477  640.23 558.375  C 640.23 561.273  637.953 563.55  635.055 563.55  " fill-rule="nonzero" fill="#cccccc" stroke="none" />
    <path d="M 601 622  L 601 580.75  L 615 562  L 634.6 577  L 645.8 573.25  L 657 577  L 657 622  L 601 622  " fill-rule="nonzero" fill="#169bd5" stroke="none" />
  </g>
</svg>