<?xml version="1.0" encoding="utf-8"?>
<svg version="1.1" xmlns:xlink="http://www.w3.org/1999/xlink" width="51px" height="68px" xmlns="http://www.w3.org/2000/svg">
  <g transform="matrix(1 0 0 1 -913 -838 )">
    <path d="M 913 838  L 964 838  L 964 906  L 913 906  L 913 838  " fill-rule="nonzero" fill="#cccccc" stroke="none" />
    <path d="M 917 842  L 960 842  L 960 902  L 917 902  L 917 842  " fill-rule="nonzero" fill="#ffffff" stroke="none" />
    <path d="M 943.345 855.85  C 941.203 855.85  939.52 854.167  939.52 852.025  C 939.52 849.883  941.203 848.2  943.345 848.2  C 945.487 848.2  947.17 849.883  947.17 852.025  C 947.17 854.167  945.487 855.85  943.345 855.85  " fill-rule="nonzero" fill="#cccccc" stroke="none" />
    <path d="M 919 901  L 919 869.65  L 929 855.4  L 943 866.8  L 951 863.95  L 959 866.8  L 959 901  L 919 901  " fill-rule="nonzero" fill="#169bd5" stroke="none" />
  </g>
</svg>