<?xml version="1.0" encoding="utf-8"?>
<svg version="1.1" xmlns:xlink="http://www.w3.org/1999/xlink" width="11px" height="8px" xmlns="http://www.w3.org/2000/svg">
  <g transform="matrix(1 0 0 1 -444 -247 )">
    <path d="M 449.5 247  C 452.58 247  455 248.76  455 251  C 455 253.24  452.58 255  449.5 255  C 446.42 255  444 253.24  444 251  C 444 248.76  446.42 247  449.5 247  Z " fill-rule="nonzero" fill="#000000" stroke="none" />
    <path d="M 449.5 247.5  C 452.3 247.5  454.5 249.04  454.5 251  C 454.5 252.96  452.3 254.5  449.5 254.5  C 446.7 254.5  444.5 252.96  444.5 251  C 444.5 249.04  446.7 247.5  449.5 247.5  Z " stroke-width="1" stroke="#797979" fill="none" />
  </g>
</svg>