<?xml version="1.0" encoding="utf-8"?>
<svg version="1.1" xmlns:xlink="http://www.w3.org/1999/xlink" width="300px" height="170px" xmlns="http://www.w3.org/2000/svg">
  <g transform="matrix(1 0 0 1 -128 -86 )">
    <path d="M 128 86  L 428 86  L 428 256  L 128 256  L 128 86  " fill-rule="nonzero" fill="#cccccc" stroke="none" />
    <path d="M 140 98  L 416 98  L 416 244  L 140 244  L 140 98  " fill-rule="nonzero" fill="#ffffff" stroke="none" />
    <path d="M 296.75 137  C 289.61 137  284 131.39  284 124.25  C 284 117.11  289.61 111.5  296.75 111.5  C 303.89 111.5  309.5 117.11  309.5 124.25  C 309.5 131.39  303.89 137  296.75 137  " fill-rule="nonzero" fill="#cccccc" stroke="none" />
    <path d="M 145 240  L 145 164.65  L 211.75 130.4  L 305.2 193.42  L 358.6 150.95  L 412 193.42  L 412 240  L 145 240  " fill-rule="nonzero" fill="#169bd5" stroke="none" />
  </g>
</svg>