<?xml version="1.0" encoding="utf-8"?>
<svg version="1.1" xmlns:xlink="http://www.w3.org/1999/xlink" width="171px" height="125px" xmlns="http://www.w3.org/2000/svg">
  <g transform="matrix(1 0 0 1 -364 -188 )">
    <path d="M 449.5 188  C 497.38 188  535 215.5  535 250.5  C 535 285.5  497.38 313  449.5 313  C 401.62 313  364 285.5  364 250.5  C 364 215.5  401.62 188  449.5 188  Z " fill-rule="nonzero" fill="#ffffff" stroke="none" />
    <path d="M 449.5 188.5  C 497.1 188.5  534.5 215.78  534.5 250.5  C 534.5 285.22  497.1 312.5  449.5 312.5  C 401.9 312.5  364.5 285.22  364.5 250.5  C 364.5 215.78  401.9 188.5  449.5 188.5  Z " stroke-width="1" stroke="#797979" fill="none" />
  </g>
</svg>