<?xml version="1.0" encoding="utf-8"?>
<svg version="1.1" xmlns:xlink="http://www.w3.org/1999/xlink" width="53px" height="50px" xmlns="http://www.w3.org/2000/svg">
  <defs>
    <mask fill="white" id="clip90">
      <path d="M 28 168  C 14.125 168  3 156.875  3 143  L 3 143  C 3 129.125  14.125 118  28 118  L 31 118  C 44.875 118  56 129.125  56 143  L 56 143  C 56 156.875  44.875 168  31 168  " fill-rule="evenodd" />
    </mask>
  </defs>
  <g transform="matrix(1 0 0 1 -3 -118 )">
    <path d="M 3 118  L 56 118  L 56 168  L 3 168  L 3 118  " fill-rule="nonzero" fill="#cccccc" stroke="none" mask="url(#clip90)" />
    <path d="M 7 122  L 52 122  L 52 164  L 7 164  L 7 122  " fill-rule="nonzero" fill="#ffffff" stroke="none" mask="url(#clip90)" />
    <path d="M 34.31 133  C 32.21 133  30.56 131.35  30.56 129.25  C 30.56 127.15  32.21 125.5  34.31 125.5  C 36.41 125.5  38.06 127.15  38.06 129.25  C 38.06 131.35  36.41 133  34.31 133  " fill-rule="nonzero" fill="#cccccc" stroke="none" mask="url(#clip90)" />
    <path d="M 9 163  L 9 141.55  L 19.5 131.8  L 34.2 140.924528301887  L 42.6 137.65  L 51 140.924528301887  L 51 163  L 9 163  " fill-rule="nonzero" fill="#169bd5" stroke="none" mask="url(#clip90)" />
  </g>
</svg>