<?xml version="1.0" encoding="utf-8"?>
<svg version="1.1" xmlns:xlink="http://www.w3.org/1999/xlink" width="22px" height="16px" xmlns="http://www.w3.org/2000/svg">
  <defs>
    <mask fill="white" id="clip179">
      <path d="M 13.145 15.7241379310345  L 21.725 9.10344827586207  L 13.145 2.48275862068966  L 13.145 6.05793103448277  C 13.145 6.05793103448277  10.6699999999999 7.28275862068962  7.97499999999997 6.5655172413793  C 5.28000000000001 5.84827586206898  0.439999999999975 0.496551724137918  0.439999999999975 0.496551724137918  C 0.439999999999975 0.496551724137918  4.09165220863779 8.43605789930628  6.87500000000002 10.0413793103449  C 8.6783021248857 11.0814503789459  13.145 12.1489655172414  13.145 12.1489655172414  L 13.145 15.7241379310345  Z " fill-rule="evenodd" />
    </mask>
  </defs>
  <g transform="matrix(1 0 0 1 -384 -35 )">
    <path d="M 13.145 15.7241379310345  L 21.725 9.10344827586207  L 13.145 2.48275862068966  L 13.145 6.05793103448277  C 13.145 6.05793103448277  10.6699999999999 7.28275862068962  7.97499999999997 6.5655172413793  C 5.28000000000001 5.84827586206898  0.439999999999975 0.496551724137918  0.439999999999975 0.496551724137918  C 0.439999999999975 0.496551724137918  4.09165220863779 8.43605789930628  6.87500000000002 10.0413793103449  C 8.6783021248857 11.0814503789459  13.145 12.1489655172414  13.145 12.1489655172414  L 13.145 15.7241379310345  Z " fill-rule="nonzero" fill="#ffffff" stroke="none" transform="matrix(1 0 0 1 384 35 )" />
    <path d="M 13.145 15.7241379310345  L 21.725 9.10344827586207  L 13.145 2.48275862068966  L 13.145 6.05793103448277  C 13.145 6.05793103448277  10.6699999999999 7.28275862068962  7.97499999999997 6.5655172413793  C 5.28000000000001 5.84827586206898  0.439999999999975 0.496551724137918  0.439999999999975 0.496551724137918  C 0.439999999999975 0.496551724137918  4.09165220863779 8.43605789930628  6.87500000000002 10.0413793103449  C 8.6783021248857 11.0814503789459  13.145 12.1489655172414  13.145 12.1489655172414  L 13.145 15.7241379310345  Z " stroke-width="2" stroke="#797979" fill="none" transform="matrix(1 0 0 1 384 35 )" mask="url(#clip179)" />
  </g>
</svg>