<?xml version="1.0" encoding="utf-8"?>
<svg version="1.1" xmlns:xlink="http://www.w3.org/1999/xlink" width="171px" height="125px" xmlns="http://www.w3.org/2000/svg">
  <g transform="matrix(1 0 0 1 -508 -181 )">
    <path d="M 593.5 181  C 641.38 181  679 208.5  679 243.5  C 679 278.5  641.38 306  593.5 306  C 545.62 306  508 278.5  508 243.5  C 508 208.5  545.62 181  593.5 181  Z " fill-rule="nonzero" fill="#ffffff" stroke="none" fill-opacity="0" />
    <path d="M 593.5 181.5  C 641.1 181.5  678.5 208.78  678.5 243.5  C 678.5 278.22  641.1 305.5  593.5 305.5  C 545.9 305.5  508.5 278.22  508.5 243.5  C 508.5 208.78  545.9 181.5  593.5 181.5  Z " stroke-width="1" stroke="#797979" fill="none" />
  </g>
</svg>