<?xml version="1.0" encoding="utf-8"?>
<svg version="1.1" xmlns:xlink="http://www.w3.org/1999/xlink" width="23px" height="7px" xmlns="http://www.w3.org/2000/svg">
  <g transform="matrix(1 0 0 1 -997 -383 )">
    <path d="M 22.7695390781563 0.717525773195884  C 22.9231796927188 0.797250859106526  23 0.888934707903779  23 0.992577319587632  C 23 1.09621993127148  22.9231796927188 1.18790378006873  22.7695390781563 1.26762886597939  L 12.0300601202405 6.84041237113404  C 11.876419505678 6.9201374570447  11.6997327989312 6.96000000000002  11.5 6.96000000000002  C 11.3002672010688 6.96000000000002  11.123580494322 6.9201374570447  10.9699398797595 6.84041237113404  L 0.230460921843663 1.26762886597939  C 0.0768203072812028 1.18790378006873  0 1.09621993127148  0 0.992577319587632  C 0 0.888934707903779  0.0768203072812028 0.797250859106526  0.230460921843663 0.717525773195884  L 1.38276553106214 0.119587628865979  C 1.53640614562455 0.0398625429553263  1.71309285237141 0  1.91282565130261 0  C 2.11255845023381 0  2.28924515698062 0.0398625429553263  2.44288577154308 0.119587628865979  L 11.5 4.81938144329897  L 20.5571142284569 0.119587628865979  C 20.7107548430194 0.0398625429553263  20.8874415497662 0  21.0871743486974 0  C 21.2869071476286 0  21.4635938543755 0.0398625429553263  21.6172344689379 0.119587628865979  L 22.7695390781563 0.717525773195884  Z " fill-rule="nonzero" fill="#ffffff" stroke="none" transform="matrix(1 0 0 1 997 383 )" />
  </g>
</svg>