<?xml version="1.0" encoding="utf-8"?>
<svg version="1.1" xmlns:xlink="http://www.w3.org/1999/xlink" width="20px" height="18px" xmlns="http://www.w3.org/2000/svg">
  <g transform="matrix(1 0 0 1 -400 -136 )">
    <path d="M 400 136  L 420 136  L 420 154  L 400 154  L 400 136  " fill-rule="nonzero" fill="#cccccc" stroke="none" />
    <path d="M 401 137  L 419 137  L 419 153  L 401 153  L 401 137  " fill-rule="nonzero" fill="#ffffff" stroke="none" />
    <path d="M 411.75 141.4  C 410.994 141.4  410.4 140.806  410.4 140.05  C 410.4 139.294  410.994 138.7  411.75 138.7  C 412.506 138.7  413.1 139.294  413.1 140.05  C 413.1 140.806  412.506 141.4  411.75 141.4  " fill-rule="nonzero" fill="#cccccc" stroke="none" />
    <path d="M 402 153  L 402 144.75  L 406.25 141  L 412.2 144.9  L 415.6 143.25  L 419 144.9  L 419 153  L 402 153  " fill-rule="nonzero" fill="#169bd5" stroke="none" />
  </g>
</svg>