<?xml version="1.0" encoding="utf-8"?>
<svg version="1.1" xmlns:xlink="http://www.w3.org/1999/xlink" width="170px" height="170px" xmlns="http://www.w3.org/2000/svg">
  <defs>
    <mask fill="white" id="clip189">
      <path d="M 84.8572305351382 0.000112172944682243  C 84.9048101386123 3.74000482565862E-05  84.9523999692996 0  84.8572305351382 0.000112172944682243  Z M 85 0.000112174966290013  L 85 13  C 44.68 13  13 44.68  13 85  C 13 125.32  44.68 157  85 157  C 125.32 157  157 125.32  156.999929338575 85  L 170 85  C 170 132.6  132.6 170  85 170  C 37.4 170  0 132.6  0 85  C 0 37.4476000307004  37.3252373518047 0.0748102482567106  85 0.000112174966290013  Z " fill-rule="evenodd" />
    </mask>
  </defs>
  <g transform="matrix(1 0 0 1 -771 -213 )">
    <path d="M 84.8572305351382 0.000112172944682243  C 84.9048101386123 3.74000482565862E-05  84.9523999692996 0  84.8572305351382 0.000112172944682243  Z M 85 0.000112174966290013  L 85 13  C 44.68 13  13 44.68  13 85  C 13 125.32  44.68 157  85 157  C 125.32 157  157 125.32  156.999929338575 85  L 170 85  C 170 132.6  132.6 170  85 170  C 37.4 170  0 132.6  0 85  C 0 37.4476000307004  37.3252373518047 0.0748102482567106  85 0.000112174966290013  Z " fill-rule="nonzero" fill="#e4ffda" stroke="none" transform="matrix(1 0 0 1 771 213 )" />
    <path d="M 84.8572305351382 0.000112172944682243  C 84.9048101386123 3.74000482565862E-05  84.9523999692996 0  84.8572305351382 0.000112172944682243  Z " stroke-width="2" stroke="#239000" fill="none" transform="matrix(1 0 0 1 771 213 )" mask="url(#clip189)" />
    <path d="M 85 0.000112174966290013  L 85 13  C 44.68 13  13 44.68  13 85  C 13 125.32  44.68 157  85 157  C 125.32 157  157 125.32  156.999929338575 85  L 170 85  C 170 132.6  132.6 170  85 170  C 37.4 170  0 132.6  0 85  C 0 37.4476000307004  37.3252373518047 0.0748102482567106  85 0.000112174966290013  Z " stroke-width="2" stroke="#239000" fill="none" transform="matrix(1 0 0 1 771 213 )" mask="url(#clip189)" />
  </g>
</svg>