<?xml version="1.0" encoding="utf-8"?>
<svg version="1.1" xmlns:xlink="http://www.w3.org/1999/xlink" width="14px" height="14px" xmlns="http://www.w3.org/2000/svg">
  <g transform="matrix(1 0 0 1 -1732 -382 )">
    <path d="M 1739 382  C 1742.92 382  1746 385.08  1746 389  C 1746 392.92  1742.92 396  1739 396  C 1735.08 396  1732 392.92  1732 389  C 1732 385.08  1735.08 382  1739 382  Z " fill-rule="nonzero" fill="#ffffff" stroke="none" />
    <path d="M 1739 382.5  C 1742.64 382.5  1745.5 385.36  1745.5 389  C 1745.5 392.64  1742.64 395.5  1739 395.5  C 1735.36 395.5  1732.5 392.64  1732.5 389  C 1732.5 385.36  1735.36 382.5  1739 382.5  Z " stroke-width="1" stroke="#797979" fill="none" />
  </g>
</svg>