<?xml version="1.0" encoding="utf-8"?>
<svg version="1.1" xmlns:xlink="http://www.w3.org/1999/xlink" width="1063px" height="112px" xmlns="http://www.w3.org/2000/svg">
  <defs>
    <mask fill="white" id="clip41">
      <path d="M 0 112  L 0 0  L 518.078282828283 0  L 1063 0  L 1063 112  L 414.416066661273 112  L 290.078677976016 112  L 211.107633811056 112  L 71.548076923077 112  L 0 112  Z " fill-rule="evenodd" />
    </mask>
  </defs>
  <g transform="matrix(1 0 0 1 -2516 -1382 )">
    <path d="M 0 112  L 0 0  L 518.078282828283 0  L 1063 0  L 1063 112  L 414.416066661273 112  L 290.078677976016 112  L 211.107633811056 112  L 71.548076923077 112  L 0 112  Z " fill-rule="nonzero" fill="#02a7f0" stroke="none" fill-opacity="0" transform="matrix(1 0 0 1 2516 1382 )" />
    <path d="M 0 112  L 0 0  L 518.078282828283 0  L 1063 0  L 1063 112  L 414.416066661273 112  L 290.078677976016 112  L 211.107633811056 112  L 71.548076923077 112  L 0 112  Z " stroke-width="6" stroke-dasharray="27,12" stroke="#ff5151" fill="none" transform="matrix(1 0 0 1 2516 1382 )" mask="url(#clip41)" />
  </g>
</svg>