<?xml version="1.0" encoding="utf-8"?>
<svg version="1.1" xmlns:xlink="http://www.w3.org/1999/xlink" width="298px" height="139px" xmlns="http://www.w3.org/2000/svg">
  <g transform="matrix(1 0 0 1 -100 -3133 )">
    <path d="M 100 3133  L 398 3133  L 398 3272  L 100 3272  L 100 3133  " fill-rule="nonzero" fill="#cccccc" stroke="none" />
    <path d="M 110 3143  L 388 3143  L 388 3262  L 110 3262  L 110 3143  " fill-rule="nonzero" fill="#ffffff" stroke="none" />
    <path d="M 265.385 3174.7  C 259.547 3174.7  254.96 3170.113  254.96 3164.275  C 254.96 3158.437  259.547 3153.85  265.385 3153.85  C 271.223 3153.85  275.81 3158.437  275.81 3164.275  C 275.81 3170.113  271.223 3174.7  265.385 3174.7  " fill-rule="nonzero" fill="#cccccc" stroke="none" />
    <path d="M 114 3259  L 114 3197.4  L 181.75 3169.4  L 276.6 3227.65503355705  L 330.8 3186.2  L 385 3227.65503355705  L 385 3259  L 114 3259  " fill-rule="nonzero" fill="#169bd5" stroke="none" />
  </g>
</svg>