<?xml version="1.0" encoding="utf-8"?>
<svg version="1.1" xmlns:xlink="http://www.w3.org/1999/xlink" width="274px" height="84px" xmlns="http://www.w3.org/2000/svg">
  <defs>
    <mask fill="white" id="clip134">
      <path d="M 0 84  L 0 0  L 133.540404040404 0  L 274 0  L 274 84  L 18.4423076923077 84  L 0 84  Z " fill-rule="evenodd" />
    </mask>
  </defs>
  <g transform="matrix(1 0 0 1 -2516 -3558 )">
    <path d="M 0 84  L 0 0  L 133.540404040404 0  L 274 0  L 274 84  L 18.4423076923077 84  L 0 84  Z " fill-rule="nonzero" fill="#02a7f0" stroke="none" fill-opacity="0" transform="matrix(1 0 0 1 2516 3558 )" />
    <path d="M 0 84  L 0 0  L 133.540404040404 0  L 274 0  L 274 84  L 18.4423076923077 84  L 0 84  Z " stroke-width="6" stroke-dasharray="27,12" stroke="#ff5151" fill="none" transform="matrix(1 0 0 1 2516 3558 )" mask="url(#clip134)" />
  </g>
</svg>