<?xml version="1.0" encoding="utf-8"?>
<svg version="1.1" xmlns:xlink="http://www.w3.org/1999/xlink" width="7px" height="7px" xmlns="http://www.w3.org/2000/svg">
  <g transform="matrix(1 0 0 1 -1735 -385 )">
    <path d="M 1738.5 385  C 1740.46 385  1742 386.54  1742 388.5  C 1742 390.46  1740.46 392  1738.5 392  C 1736.54 392  1735 390.46  1735 388.5  C 1735 386.54  1736.54 385  1738.5 385  Z " fill-rule="nonzero" fill="#8c8c8c" stroke="none" />
    <path d="M 1738.5 385.5  C 1740.18 385.5  1741.5 386.82  1741.5 388.5  C 1741.5 390.18  1740.18 391.5  1738.5 391.5  C 1736.82 391.5  1735.5 390.18  1735.5 388.5  C 1735.5 386.82  1736.82 385.5  1738.5 385.5  Z " stroke-width="1" stroke="#797979" fill="none" />
  </g>
</svg>