<?xml version="1.0" encoding="utf-8"?>
<svg version="1.1" xmlns:xlink="http://www.w3.org/1999/xlink" width="7px" height="7px" xmlns="http://www.w3.org/2000/svg">
  <g transform="matrix(1 0 0 1 -1681 -385 )">
    <path d="M 1684.5 385  C 1686.46 385  1688 386.54  1688 388.5  C 1688 390.46  1686.46 392  1684.5 392  C 1682.54 392  1681 390.46  1681 388.5  C 1681 386.54  1682.54 385  1684.5 385  Z " fill-rule="nonzero" fill="#ffffff" stroke="none" />
    <path d="M 1684.5 385.5  C 1686.18 385.5  1687.5 386.82  1687.5 388.5  C 1687.5 390.18  1686.18 391.5  1684.5 391.5  C 1682.82 391.5  1681.5 390.18  1681.5 388.5  C 1681.5 386.82  1682.82 385.5  1684.5 385.5  Z " stroke-width="1" stroke="#797979" fill="none" />
  </g>
</svg>