<?xml version="1.0" encoding="utf-8"?>
<svg version="1.1" xmlns:xlink="http://www.w3.org/1999/xlink" width="357px" height="46px" xmlns="http://www.w3.org/2000/svg">
  <defs>
    <mask fill="white" id="clip191">
      <path d="M 0 46  L 0 0  L 173.992424242424 0  L 357 0  L 357 46  L 24.0288461538462 46  L 0 46  Z " fill-rule="evenodd" />
    </mask>
  </defs>
  <g transform="matrix(1 0 0 1 -1982 -1240 )">
    <path d="M 0 46  L 0 0  L 173.992424242424 0  L 357 0  L 357 46  L 24.0288461538462 46  L 0 46  Z " fill-rule="nonzero" fill="#02a7f0" stroke="none" fill-opacity="0" transform="matrix(1 0 0 1 1982 1240 )" />
    <path d="M 0 46  L 0 0  L 173.992424242424 0  L 357 0  L 357 46  L 24.0288461538462 46  L 0 46  Z " stroke-width="6" stroke-dasharray="27,12" stroke="#ff5151" fill="none" transform="matrix(1 0 0 1 1982 1240 )" mask="url(#clip191)" />
  </g>
</svg>