<?xml version="1.0" encoding="utf-8"?>
<svg version="1.1" xmlns:xlink="http://www.w3.org/1999/xlink" width="32px" height="28px" preserveAspectRatio="xMinYMid meet" viewBox="1540 377  32 26" xmlns="http://www.w3.org/2000/svg">
  <path d="M 1555.5 385.5  A 4.5 4.5 0 0 0 1551 390 A 4.5 4.5 0 0 0 1555.5 394.5 A 4.5 4.5 0 0 0 1560 390 A 4.5 4.5 0 0 0 1555.5 385.5 Z M 1778.5 385.5  A 4.5 4.5 0 0 0 1774 390 A 4.5 4.5 0 0 0 1778.5 394.5 A 4.5 4.5 0 0 0 1783 390 A 4.5 4.5 0 0 0 1778.5 385.5 Z " fill-rule="nonzero" fill="#8c8c8c" stroke="none" transform="matrix(-1 1.22460635382238E-16 -1.22460635382238E-16 -1 3334 780 )" />
  <path d="M 1555 390  L 1779 390  " stroke-width="4" stroke="#8c8c8c" fill="none" transform="matrix(-1 1.22460635382238E-16 -1.22460635382238E-16 -1 3334 780 )" />
</svg>