<?xml version="1.0" encoding="utf-8"?>
<svg version="1.1" xmlns:xlink="http://www.w3.org/1999/xlink" width="12px" height="12px" viewBox="125 54.5  12 12" xmlns="http://www.w3.org/2000/svg">
  <path d="M 131 54.5  C 134.36 54.5  137 57.14  137 60.5  C 137 63.86  134.36 66.5  131 66.5  C 127.64 66.5  125 63.86  125 60.5  C 125 57.14  127.64 54.5  131 54.5  Z " fill-rule="nonzero" fill="#ffffff" stroke="none" />
  <path d="M 131 55  C 134.08 55  136.5 57.42  136.5 60.5  C 136.5 63.58  134.08 66  131 66  C 127.92 66  125.5 63.58  125.5 60.5  C 125.5 57.42  127.92 55  131 55  Z " stroke-width="1" stroke="#797979" fill="none" />
  <path d="M 131 63.5  C 129.32 63.5  128 62.18  128 60.5  C 128 58.82  129.32 57.5  131 57.5  C 132.68 57.5  134 58.82  134 60.5  C 134 62.18  132.68 63.5  131 63.5  " fill-rule="nonzero" fill="#797979" stroke="none" />
</svg>