<?xml version="1.0" encoding="utf-8"?>
<svg version="1.1" xmlns:xlink="http://www.w3.org/1999/xlink" width="12px" height="12px" viewBox="517 54.5  12 12" xmlns="http://www.w3.org/2000/svg">
  <path d="M 523 54.5  C 526.36 54.5  529 57.14  529 60.5  C 529 63.86  526.36 66.5  523 66.5  C 519.64 66.5  517 63.86  517 60.5  C 517 57.14  519.64 54.5  523 54.5  Z " fill-rule="nonzero" fill="#ffffff" stroke="none" />
  <path d="M 523 55  C 526.08 55  528.5 57.42  528.5 60.5  C 528.5 63.58  526.08 66  523 66  C 519.92 66  517.5 63.58  517.5 60.5  C 517.5 57.42  519.92 55  523 55  Z " stroke-width="1" stroke="#797979" fill="none" />
  <path d="M 523 63.5  C 521.32 63.5  520 62.18  520 60.5  C 520 58.82  521.32 57.5  523 57.5  C 524.68 57.5  526 58.82  526 60.5  C 526 62.18  524.68 63.5  523 63.5  " fill-rule="nonzero" fill="#797979" stroke="none" />
</svg>