<?xml version="1.0" encoding="utf-8"?>
<svg version="1.1" xmlns:xlink="http://www.w3.org/1999/xlink" width="12px" height="12px" viewBox="1170 585.5  12 12" xmlns="http://www.w3.org/2000/svg">
  <path d="M 1176 585.5  C 1179.36 585.5  1182 588.14  1182 591.5  C 1182 594.86  1179.36 597.5  1176 597.5  C 1172.64 597.5  1170 594.86  1170 591.5  C 1170 588.14  1172.64 585.5  1176 585.5  Z " fill-rule="nonzero" fill="#ffffff" stroke="none" />
  <path d="M 1176 586  C 1179.08 586  1181.5 588.42  1181.5 591.5  C 1181.5 594.58  1179.08 597  1176 597  C 1172.92 597  1170.5 594.58  1170.5 591.5  C 1170.5 588.42  1172.92 586  1176 586  Z " stroke-width="1" stroke="#797979" fill="none" />
  <path d="M 1176 594.5  C 1174.32 594.5  1173 593.18  1173 591.5  C 1173 589.82  1174.32 588.5  1176 588.5  C 1177.68 588.5  1179 589.82  1179 591.5  C 1179 593.18  1177.68 594.5  1176 594.5  " fill-rule="nonzero" fill="#797979" stroke="none" />
</svg>