<?xml version="1.0" encoding="utf-8"?>
<svg version="1.1" xmlns:xlink="http://www.w3.org/1999/xlink" width="12px" height="12px" viewBox="1170 849.5  12 12" xmlns="http://www.w3.org/2000/svg">
  <path d="M 1176 849.5  C 1179.36 849.5  1182 852.14  1182 855.5  C 1182 858.86  1179.36 861.5  1176 861.5  C 1172.64 861.5  1170 858.86  1170 855.5  C 1170 852.14  1172.64 849.5  1176 849.5  Z " fill-rule="nonzero" fill="#ffffff" stroke="none" />
  <path d="M 1176 850  C 1179.08 850  1181.5 852.42  1181.5 855.5  C 1181.5 858.58  1179.08 861  1176 861  C 1172.92 861  1170.5 858.58  1170.5 855.5  C 1170.5 852.42  1172.92 850  1176 850  Z " stroke-width="1" stroke="#797979" fill="none" />
  <path d="M 1176 858.5  C 1174.32 858.5  1173 857.18  1173 855.5  C 1173 853.82  1174.32 852.5  1176 852.5  C 1177.68 852.5  1179 853.82  1179 855.5  C 1179 857.18  1177.68 858.5  1176 858.5  " fill-rule="nonzero" fill="#797979" stroke="none" />
</svg>