<?xml version="1.0" encoding="utf-8"?>
<svg version="1.1" xmlns:xlink="http://www.w3.org/1999/xlink" width="12px" height="12px" viewBox="489 139.5  12 12" xmlns="http://www.w3.org/2000/svg">
  <path d="M 495 139.5  C 498.36 139.5  501 142.14  501 145.5  C 501 148.86  498.36 151.5  495 151.5  C 491.64 151.5  489 148.86  489 145.5  C 489 142.14  491.64 139.5  495 139.5  Z " fill-rule="nonzero" fill="#ffffff" stroke="none" />
  <path d="M 495 140  C 498.08 140  500.5 142.42  500.5 145.5  C 500.5 148.58  498.08 151  495 151  C 491.92 151  489.5 148.58  489.5 145.5  C 489.5 142.42  491.92 140  495 140  Z " stroke-width="1" stroke="#797979" fill="none" />
  <path d="M 495 148.5  C 493.32 148.5  492 147.18  492 145.5  C 492 143.82  493.32 142.5  495 142.5  C 496.68 142.5  498 143.82  498 145.5  C 498 147.18  496.68 148.5  495 148.5  " fill-rule="nonzero" fill="#797979" stroke="none" />
</svg>