<?xml version="1.0" encoding="utf-8"?>
<svg version="1.1" xmlns:xlink="http://www.w3.org/1999/xlink" width="40px" height="50px" xmlns="http://www.w3.org/2000/svg">
  <defs>
    <filter x="888px" y="297px" width="40px" height="50px" filterUnits="userSpaceOnUse" id="filter14">
      <feOffset dx="1" dy="1" in="SourceAlpha" result="shadowOffsetInner" />
      <feGaussianBlur stdDeviation="2.5" in="shadowOffsetInner" result="shadowGaussian" />
      <feComposite in2="shadowGaussian" operator="atop" in="SourceAlpha" result="shadowComposite" />
      <feColorMatrix type="matrix" values="0 0 0 0 0  0 0 0 0 0  0 0 0 0 0  0 0 0 0.698039215686274 0  " in="shadowComposite" />
    </filter>
    <g id="widget15">
      <path d="M 907 340.036928468354  C 901.2 330.40734059591  892.5 324.629587872444  892.5 315  C 892.5 309.985714285714  895.4 301.5  907 301.5  C 918.6 301.5  921.5 309.985714285714  921.5 315  C 921.5 324.629587872444  912.8 330.40734059591  907 340.036928468354  Z " fill-rule="nonzero" fill="#009dd9" stroke="none" />
      <path d="M 907 341  C 901 331  892 325  892 315  C 892 309.8  895 301  907 301  C 919 301  922 309.8  922 315  C 922 325  913 331  907 341  Z M 907 339.073856936707  C 912.6 329.81468119182  921 324.259175744887  921 315  C 921 310.171428571429  918.2 302  907 302  C 895.8 302  893 310.171428571429  893 315  C 893 324.259175744887  901.4 329.81468119182  907 339.073856936707  Z " fill-rule="nonzero" fill="#ffffff" stroke="none" />
    </g>
  </defs>
  <g transform="matrix(1 0 0 1 -888 -297 )">
    <use xlink:href="#widget15" filter="url(#filter14)" />
    <use xlink:href="#widget15" />
  </g>
</svg>