<?xml version="1.0" encoding="utf-8"?>
<svg version="1.1" xmlns:xlink="http://www.w3.org/1999/xlink" width="12px" height="12px" viewBox="642 54.5  12 12" xmlns="http://www.w3.org/2000/svg">
  <path d="M 648 54.5  C 651.36 54.5  654 57.14  654 60.5  C 654 63.86  651.36 66.5  648 66.5  C 644.64 66.5  642 63.86  642 60.5  C 642 57.14  644.64 54.5  648 54.5  Z " fill-rule="nonzero" fill="#ffffff" stroke="none" />
  <path d="M 648 55  C 651.08 55  653.5 57.42  653.5 60.5  C 653.5 63.58  651.08 66  648 66  C 644.92 66  642.5 63.58  642.5 60.5  C 642.5 57.42  644.92 55  648 55  Z " stroke-width="1" stroke="#797979" fill="none" />
  <path d="M 648 63.5  C 646.32 63.5  645 62.18  645 60.5  C 645 58.82  646.32 57.5  648 57.5  C 649.68 57.5  651 58.82  651 60.5  C 651 62.18  649.68 63.5  648 63.5  " fill-rule="nonzero" fill="#797979" stroke="none" />
</svg>