<?xml version="1.0" encoding="utf-8"?>
<svg version="1.1" xmlns:xlink="http://www.w3.org/1999/xlink" width="12px" height="12px" viewBox="383 7.5  12 12" xmlns="http://www.w3.org/2000/svg">
  <path d="M 389 7.5  C 392.36 7.5  395 10.14  395 13.5  C 395 16.86  392.36 19.5  389 19.5  C 385.64 19.5  383 16.86  383 13.5  C 383 10.14  385.64 7.5  389 7.5  Z " fill-rule="nonzero" fill="#ffffff" stroke="none" />
  <path d="M 389 8  C 392.08 8  394.5 10.42  394.5 13.5  C 394.5 16.58  392.08 19  389 19  C 385.92 19  383.5 16.58  383.5 13.5  C 383.5 10.42  385.92 8  389 8  Z " stroke-width="1" stroke="#797979" fill="none" />
  <path d="M 389 16.5  C 387.32 16.5  386 15.18  386 13.5  C 386 11.82  387.32 10.5  389 10.5  C 390.68 10.5  392 11.82  392 13.5  C 392 15.18  390.68 16.5  389 16.5  " fill-rule="nonzero" fill="#797979" stroke="none" />
</svg>