<?xml version="1.0" encoding="utf-8"?>
<svg version="1.1" xmlns:xlink="http://www.w3.org/1999/xlink" width="12px" height="12px" viewBox="573 7.5  12 12" xmlns="http://www.w3.org/2000/svg">
  <path d="M 579 7.5  C 582.36 7.5  585 10.14  585 13.5  C 585 16.86  582.36 19.5  579 19.5  C 575.64 19.5  573 16.86  573 13.5  C 573 10.14  575.64 7.5  579 7.5  Z " fill-rule="nonzero" fill="#ffffff" stroke="none" />
  <path d="M 579 8  C 582.08 8  584.5 10.42  584.5 13.5  C 584.5 16.58  582.08 19  579 19  C 575.92 19  573.5 16.58  573.5 13.5  C 573.5 10.42  575.92 8  579 8  Z " stroke-width="1" stroke="#797979" fill="none" />
  <path d="M 579 16.5  C 577.32 16.5  576 15.18  576 13.5  C 576 11.82  577.32 10.5  579 10.5  C 580.68 10.5  582 11.82  582 13.5  C 582 15.18  580.68 16.5  579 16.5  " fill-rule="nonzero" fill="#797979" stroke="none" />
</svg>