<?xml version="1.0" encoding="utf-8"?>
<svg version="1.1" xmlns:xlink="http://www.w3.org/1999/xlink" width="12px" height="12px" viewBox="1085 585.5  12 12" xmlns="http://www.w3.org/2000/svg">
  <path d="M 1091 585.5  C 1094.36 585.5  1097 588.14  1097 591.5  C 1097 594.86  1094.36 597.5  1091 597.5  C 1087.64 597.5  1085 594.86  1085 591.5  C 1085 588.14  1087.64 585.5  1091 585.5  Z " fill-rule="nonzero" fill="#ffffff" stroke="none" />
  <path d="M 1091 586  C 1094.08 586  1096.5 588.42  1096.5 591.5  C 1096.5 594.58  1094.08 597  1091 597  C 1087.92 597  1085.5 594.58  1085.5 591.5  C 1085.5 588.42  1087.92 586  1091 586  Z " stroke-width="1" stroke="#797979" fill="none" />
  <path d="M 1091 594.5  C 1089.32 594.5  1088 593.18  1088 591.5  C 1088 589.82  1089.32 588.5  1091 588.5  C 1092.68 588.5  1094 589.82  1094 591.5  C 1094 593.18  1092.68 594.5  1091 594.5  " fill-rule="nonzero" fill="#797979" stroke="none" />
</svg>