<?xml version="1.0" encoding="utf-8"?>
<svg version="1.1" xmlns:xlink="http://www.w3.org/1999/xlink" width="12px" height="12px" viewBox="1170 672.5  12 12" xmlns="http://www.w3.org/2000/svg">
  <path d="M 1176 672.5  C 1179.36 672.5  1182 675.14  1182 678.5  C 1182 681.86  1179.36 684.5  1176 684.5  C 1172.64 684.5  1170 681.86  1170 678.5  C 1170 675.14  1172.64 672.5  1176 672.5  Z " fill-rule="nonzero" fill="#ffffff" stroke="none" />
  <path d="M 1176 673  C 1179.08 673  1181.5 675.42  1181.5 678.5  C 1181.5 681.58  1179.08 684  1176 684  C 1172.92 684  1170.5 681.58  1170.5 678.5  C 1170.5 675.42  1172.92 673  1176 673  Z " stroke-width="1" stroke="#797979" fill="none" />
  <path d="M 1176 681.5  C 1174.32 681.5  1173 680.18  1173 678.5  C 1173 676.82  1174.32 675.5  1176 675.5  C 1177.68 675.5  1179 676.82  1179 678.5  C 1179 680.18  1177.68 681.5  1176 681.5  " fill-rule="nonzero" fill="#797979" stroke="none" />
</svg>