<?xml version="1.0" encoding="utf-8"?>
<svg version="1.1" xmlns:xlink="http://www.w3.org/1999/xlink" width="12px" height="12px" viewBox="1262 585.5  12 12" xmlns="http://www.w3.org/2000/svg">
  <path d="M 1268 585.5  C 1271.36 585.5  1274 588.14  1274 591.5  C 1274 594.86  1271.36 597.5  1268 597.5  C 1264.64 597.5  1262 594.86  1262 591.5  C 1262 588.14  1264.64 585.5  1268 585.5  Z " fill-rule="nonzero" fill="#ffffff" stroke="none" />
  <path d="M 1268 586  C 1271.08 586  1273.5 588.42  1273.5 591.5  C 1273.5 594.58  1271.08 597  1268 597  C 1264.92 597  1262.5 594.58  1262.5 591.5  C 1262.5 588.42  1264.92 586  1268 586  Z " stroke-width="1" stroke="#797979" fill="none" />
  <path d="M 1268 594.5  C 1266.32 594.5  1265 593.18  1265 591.5  C 1265 589.82  1266.32 588.5  1268 588.5  C 1269.68 588.5  1271 589.82  1271 591.5  C 1271 593.18  1269.68 594.5  1268 594.5  " fill-rule="nonzero" fill="#797979" stroke="none" />
</svg>