<?xml version="1.0" encoding="utf-8"?>
<svg version="1.1" xmlns:xlink="http://www.w3.org/1999/xlink" width="12px" height="12px" viewBox="1085 760.5  12 12" xmlns="http://www.w3.org/2000/svg">
  <path d="M 1091 760.5  C 1094.36 760.5  1097 763.14  1097 766.5  C 1097 769.86  1094.36 772.5  1091 772.5  C 1087.64 772.5  1085 769.86  1085 766.5  C 1085 763.14  1087.64 760.5  1091 760.5  Z " fill-rule="nonzero" fill="#ffffff" stroke="none" />
  <path d="M 1091 761  C 1094.08 761  1096.5 763.42  1096.5 766.5  C 1096.5 769.58  1094.08 772  1091 772  C 1087.92 772  1085.5 769.58  1085.5 766.5  C 1085.5 763.42  1087.92 761  1091 761  Z " stroke-width="1" stroke="#797979" fill="none" />
  <path d="M 1091 769.5  C 1089.32 769.5  1088 768.18  1088 766.5  C 1088 764.82  1089.32 763.5  1091 763.5  C 1092.68 763.5  1094 764.82  1094 766.5  C 1094 768.18  1092.68 769.5  1091 769.5  " fill-rule="nonzero" fill="#797979" stroke="none" />
</svg>