<?xml version="1.0" encoding="utf-8"?>
<svg version="1.1" xmlns:xlink="http://www.w3.org/1999/xlink" width="12px" height="12px" viewBox="1085 672.5  12 12" xmlns="http://www.w3.org/2000/svg">
  <path d="M 1091 672.5  C 1094.36 672.5  1097 675.14  1097 678.5  C 1097 681.86  1094.36 684.5  1091 684.5  C 1087.64 684.5  1085 681.86  1085 678.5  C 1085 675.14  1087.64 672.5  1091 672.5  Z " fill-rule="nonzero" fill="#ffffff" stroke="none" />
  <path d="M 1091 673  C 1094.08 673  1096.5 675.42  1096.5 678.5  C 1096.5 681.58  1094.08 684  1091 684  C 1087.92 684  1085.5 681.58  1085.5 678.5  C 1085.5 675.42  1087.92 673  1091 673  Z " stroke-width="1" stroke="#797979" fill="none" />
  <path d="M 1091 681.5  C 1089.32 681.5  1088 680.18  1088 678.5  C 1088 676.82  1089.32 675.5  1091 675.5  C 1092.68 675.5  1094 676.82  1094 678.5  C 1094 680.18  1092.68 681.5  1091 681.5  " fill-rule="nonzero" fill="#797979" stroke="none" />
</svg>