<?xml version="1.0" encoding="utf-8"?>
<svg version="1.1" xmlns:xlink="http://www.w3.org/1999/xlink" width="12px" height="12px" viewBox="1170 760.5  12 12" xmlns="http://www.w3.org/2000/svg">
  <path d="M 1176 760.5  C 1179.36 760.5  1182 763.14  1182 766.5  C 1182 769.86  1179.36 772.5  1176 772.5  C 1172.64 772.5  1170 769.86  1170 766.5  C 1170 763.14  1172.64 760.5  1176 760.5  Z " fill-rule="nonzero" fill="#ffffff" stroke="none" />
  <path d="M 1176 761  C 1179.08 761  1181.5 763.42  1181.5 766.5  C 1181.5 769.58  1179.08 772  1176 772  C 1172.92 772  1170.5 769.58  1170.5 766.5  C 1170.5 763.42  1172.92 761  1176 761  Z " stroke-width="1" stroke="#797979" fill="none" />
  <path d="M 1176 769.5  C 1174.32 769.5  1173 768.18  1173 766.5  C 1173 764.82  1174.32 763.5  1176 763.5  C 1177.68 763.5  1179 764.82  1179 766.5  C 1179 768.18  1177.68 769.5  1176 769.5  " fill-rule="nonzero" fill="#797979" stroke="none" />
</svg>