<?xml version="1.0" encoding="utf-8"?>
<svg version="1.1" xmlns:xlink="http://www.w3.org/1999/xlink" width="12px" height="12px" viewBox="356 139.5  12 12" xmlns="http://www.w3.org/2000/svg">
  <path d="M 362 139.5  C 365.36 139.5  368 142.14  368 145.5  C 368 148.86  365.36 151.5  362 151.5  C 358.64 151.5  356 148.86  356 145.5  C 356 142.14  358.64 139.5  362 139.5  Z " fill-rule="nonzero" fill="#ffffff" stroke="none" />
  <path d="M 362 140  C 365.08 140  367.5 142.42  367.5 145.5  C 367.5 148.58  365.08 151  362 151  C 358.92 151  356.5 148.58  356.5 145.5  C 356.5 142.42  358.92 140  362 140  Z " stroke-width="1" stroke="#797979" fill="none" />
  <path d="M 362 148.5  C 360.32 148.5  359 147.18  359 145.5  C 359 143.82  360.32 142.5  362 142.5  C 363.68 142.5  365 143.82  365 145.5  C 365 147.18  363.68 148.5  362 148.5  " fill-rule="nonzero" fill="#797979" stroke="none" />
</svg>