<?xml version="1.0" encoding="utf-8"?>
<svg version="1.1" xmlns:xlink="http://www.w3.org/1999/xlink" width="32px" height="36px" xmlns="http://www.w3.org/2000/svg">
  <g transform="matrix(1 0 0 1 -1526 -436 )">
    <path d="M 11.4285714285714 19.40625  C 11.4285714285714 19.8703125  11.0428571428571 20.25  10.5714285714286 20.25  L 7.71428571428571 20.25  C 7.24285714285714 20.25  6.85714285714286 19.8703125  6.85714285714286 19.40625  L 6.85714285714286 16.59375  C 6.85714285714286 16.1296875  7.24285714285714 15.75  7.71428571428571 15.75  L 10.5714285714286 15.75  C 11.0428571428571 15.75  11.4285714285714 16.1296875  11.4285714285714 16.59375  L 11.4285714285714 19.40625  Z M 17.4285714285714 20.25  C 17.9 20.25  18.2857142857143 19.8703125  18.2857142857143 19.40625  L 18.2857142857143 16.59375  C 18.2857142857143 16.1296875  17.9 15.75  17.4285714285714 15.75  L 14.5714285714286 15.75  C 14.1 15.75  13.7142857142857 16.1296875  13.7142857142857 16.59375  L 13.7142857142857 19.40625  C 13.7142857142857 19.8703125  14.1 20.25  14.5714285714286 20.25  L 17.4285714285714 20.25  Z M 24.2857142857143 20.25  C 24.7571428571429 20.25  25.1428571428571 19.8703125  25.1428571428571 19.40625  L 25.1428571428571 16.59375  C 25.1428571428571 16.1296875  24.7571428571429 15.75  24.2857142857143 15.75  L 21.4285714285714 15.75  C 20.9571428571429 15.75  20.5714285714286 16.1296875  20.5714285714286 16.59375  L 20.5714285714286 19.40625  C 20.5714285714286 19.8703125  20.9571428571429 20.25  21.4285714285714 20.25  L 24.2857142857143 20.25  Z M 17.4285714285714 27  C 17.9 27  18.2857142857143 26.6203125  18.2857142857143 26.15625  L 18.2857142857143 23.34375  C 18.2857142857143 22.8796875  17.9 22.5  17.4285714285714 22.5  L 14.5714285714286 22.5  C 14.1 22.5  13.7142857142857 22.8796875  13.7142857142857 23.34375  L 13.7142857142857 26.15625  C 13.7142857142857 26.6203125  14.1 27  14.5714285714286 27  L 17.4285714285714 27  Z M 10.5714285714286 27  C 11.0428571428571 27  11.4285714285714 26.6203125  11.4285714285714 26.15625  L 11.4285714285714 23.34375  C 11.4285714285714 22.8796875  11.0428571428571 22.5  10.5714285714286 22.5  L 7.71428571428571 22.5  C 7.24285714285714 22.5  6.85714285714286 22.8796875  6.85714285714286 23.34375  L 6.85714285714286 26.15625  C 6.85714285714286 26.6203125  7.24285714285714 27  7.71428571428571 27  L 10.5714285714286 27  Z M 24.2857142857143 27  C 24.7571428571429 27  25.1428571428571 26.6203125  25.1428571428571 26.15625  L 25.1428571428571 23.34375  C 25.1428571428571 22.8796875  24.7571428571429 22.5  24.2857142857143 22.5  L 21.4285714285714 22.5  C 20.9571428571429 22.5  20.5714285714286 22.8796875  20.5714285714286 23.34375  L 20.5714285714286 26.15625  C 20.5714285714286 26.6203125  20.9571428571429 27  21.4285714285714 27  L 24.2857142857143 27  Z M 28.5714285714286 4.5  C 30.4642857142857 4.5  32 6.01171875  32 7.875  L 32 32.625  C 32 34.48828125  30.4642857142857 36  28.5714285714286 36  L 3.42857142857143 36  C 1.53571428571429 36  0 34.48828125  0 32.625  L 0 7.875  C 0 6.01171875  1.53571428571429 4.5  3.42857142857143 4.5  L 6.85714285714286 4.5  L 6.85714285714286 0.84375  C 6.85714285714286 0.3796875  7.24285714285714 0  7.71428571428571 0  L 10.5714285714286 0  C 11.0428571428571 0  11.4285714285714 0.3796875  11.4285714285714 0.84375  L 11.4285714285714 4.5  L 20.5714285714286 4.5  L 20.5714285714286 0.84375  C 20.5714285714286 0.3796875  20.9571428571429 0  21.4285714285714 0  L 24.2857142857143 0  C 24.7571428571429 0  25.1428571428571 0.3796875  25.1428571428571 0.84375  L 25.1428571428571 4.5  L 28.5714285714286 4.5  Z M 28.1428571428571 32  C 28.3785714285714 32.625  28.5714285714286 32.43515625  28 32.203125  L 28 11.25  L 4 11.25  L 4 32.203125  C 3.42857142857143 32.43515625  3.62142857142857 32.625  3.85714285714286 32  L 28.1428571428571 32  Z " fill-rule="nonzero" fill="#000000" stroke="none" transform="matrix(1 0 0 1 1526 436 )" />
  </g>
</svg>