<?xml version="1.0" encoding="utf-8"?>
<svg version="1.1" xmlns:xlink="http://www.w3.org/1999/xlink" width="12px" height="12px" viewBox="383 54.5  12 12" xmlns="http://www.w3.org/2000/svg">
  <path d="M 389 54.5  C 392.36 54.5  395 57.14  395 60.5  C 395 63.86  392.36 66.5  389 66.5  C 385.64 66.5  383 63.86  383 60.5  C 383 57.14  385.64 54.5  389 54.5  Z " fill-rule="nonzero" fill="#ffffff" stroke="none" />
  <path d="M 389 55  C 392.08 55  394.5 57.42  394.5 60.5  C 394.5 63.58  392.08 66  389 66  C 385.92 66  383.5 63.58  383.5 60.5  C 383.5 57.42  385.92 55  389 55  Z " stroke-width="1" stroke="#797979" fill="none" />
  <path d="M 389 63.5  C 387.32 63.5  386 62.18  386 60.5  C 386 58.82  387.32 57.5  389 57.5  C 390.68 57.5  392 58.82  392 60.5  C 392 62.18  390.68 63.5  389 63.5  " fill-rule="nonzero" fill="#797979" stroke="none" />
</svg>