<?xml version="1.0" encoding="utf-8"?>
<svg version="1.1" xmlns:xlink="http://www.w3.org/1999/xlink" width="12px" height="12px" viewBox="125 7.5  12 12" xmlns="http://www.w3.org/2000/svg">
  <path d="M 131 7.5  C 134.36 7.5  137 10.14  137 13.5  C 137 16.86  134.36 19.5  131 19.5  C 127.64 19.5  125 16.86  125 13.5  C 125 10.14  127.64 7.5  131 7.5  Z " fill-rule="nonzero" fill="#ffffff" stroke="none" />
  <path d="M 131 8  C 134.08 8  136.5 10.42  136.5 13.5  C 136.5 16.58  134.08 19  131 19  C 127.92 19  125.5 16.58  125.5 13.5  C 125.5 10.42  127.92 8  131 8  Z " stroke-width="1" stroke="#797979" fill="none" />
  <path d="M 131 16.5  C 129.32 16.5  128 15.18  128 13.5  C 128 11.82  129.32 10.5  131 10.5  C 132.68 10.5  134 11.82  134 13.5  C 134 15.18  132.68 16.5  131 16.5  " fill-rule="nonzero" fill="#797979" stroke="none" />
</svg>