<?xml version="1.0" encoding="utf-8"?>
<svg version="1.1" xmlns:xlink="http://www.w3.org/1999/xlink" width="12px" height="12px" viewBox="1262 849.5  12 12" xmlns="http://www.w3.org/2000/svg">
  <path d="M 1268 849.5  C 1271.36 849.5  1274 852.14  1274 855.5  C 1274 858.86  1271.36 861.5  1268 861.5  C 1264.64 861.5  1262 858.86  1262 855.5  C 1262 852.14  1264.64 849.5  1268 849.5  Z " fill-rule="nonzero" fill="#ffffff" stroke="none" />
  <path d="M 1268 850  C 1271.08 850  1273.5 852.42  1273.5 855.5  C 1273.5 858.58  1271.08 861  1268 861  C 1264.92 861  1262.5 858.58  1262.5 855.5  C 1262.5 852.42  1264.92 850  1268 850  Z " stroke-width="1" stroke="#797979" fill="none" />
  <path d="M 1268 858.5  C 1266.32 858.5  1265 857.18  1265 855.5  C 1265 853.82  1266.32 852.5  1268 852.5  C 1269.68 852.5  1271 853.82  1271 855.5  C 1271 857.18  1269.68 858.5  1268 858.5  " fill-rule="nonzero" fill="#797979" stroke="none" />
</svg>