<?xml version="1.0" encoding="utf-8"?>
<svg version="1.1" xmlns:xlink="http://www.w3.org/1999/xlink" width="30px" height="34px" xmlns="http://www.w3.org/2000/svg">
  <g transform="matrix(1 0 0 1 -924 -1321 )">
    <path d="M 10.7142857142857 18.328125  C 10.7142857142857 18.76640625  10.3526785714286 19.125  9.91071428571428 19.125  L 7.23214285714286 19.125  C 6.79017857142857 19.125  6.42857142857143 18.76640625  6.42857142857143 18.328125  L 6.42857142857143 15.671875  C 6.42857142857143 15.23359375  6.79017857142857 14.875  7.23214285714286 14.875  L 9.91071428571428 14.875  C 10.3526785714286 14.875  10.7142857142857 15.23359375  10.7142857142857 15.671875  L 10.7142857142857 18.328125  Z M 16.3392857142857 19.125  C 16.78125 19.125  17.1428571428571 18.76640625  17.1428571428571 18.328125  L 17.1428571428571 15.671875  C 17.1428571428571 15.23359375  16.78125 14.875  16.3392857142857 14.875  L 13.6607142857143 14.875  C 13.21875 14.875  12.8571428571429 15.23359375  12.8571428571429 15.671875  L 12.8571428571429 18.328125  C 12.8571428571429 18.76640625  13.21875 19.125  13.6607142857143 19.125  L 16.3392857142857 19.125  Z M 22.7678571428571 19.125  C 23.2098214285714 19.125  23.5714285714286 18.76640625  23.5714285714286 18.328125  L 23.5714285714286 15.671875  C 23.5714285714286 15.23359375  23.2098214285714 14.875  22.7678571428571 14.875  L 20.0892857142857 14.875  C 19.6473214285714 14.875  19.2857142857143 15.23359375  19.2857142857143 15.671875  L 19.2857142857143 18.328125  C 19.2857142857143 18.76640625  19.6473214285714 19.125  20.0892857142857 19.125  L 22.7678571428571 19.125  Z M 16.3392857142857 25.5  C 16.78125 25.5  17.1428571428571 25.14140625  17.1428571428571 24.703125  L 17.1428571428571 22.046875  C 17.1428571428571 21.60859375  16.78125 21.25  16.3392857142857 21.25  L 13.6607142857143 21.25  C 13.21875 21.25  12.8571428571429 21.60859375  12.8571428571429 22.046875  L 12.8571428571429 24.703125  C 12.8571428571429 25.14140625  13.21875 25.5  13.6607142857143 25.5  L 16.3392857142857 25.5  Z M 9.91071428571428 25.5  C 10.3526785714286 25.5  10.7142857142857 25.14140625  10.7142857142857 24.703125  L 10.7142857142857 22.046875  C 10.7142857142857 21.60859375  10.3526785714286 21.25  9.91071428571428 21.25  L 7.23214285714286 21.25  C 6.79017857142857 21.25  6.42857142857143 21.60859375  6.42857142857143 22.046875  L 6.42857142857143 24.703125  C 6.42857142857143 25.14140625  6.79017857142857 25.5  7.23214285714286 25.5  L 9.91071428571428 25.5  Z M 22.7678571428571 25.5  C 23.2098214285714 25.5  23.5714285714286 25.14140625  23.5714285714286 24.703125  L 23.5714285714286 22.046875  C 23.5714285714286 21.60859375  23.2098214285714 21.25  22.7678571428571 21.25  L 20.0892857142857 21.25  C 19.6473214285714 21.25  19.2857142857143 21.60859375  19.2857142857143 22.046875  L 19.2857142857143 24.703125  C 19.2857142857143 25.14140625  19.6473214285714 25.5  20.0892857142857 25.5  L 22.7678571428571 25.5  Z M 26.7857142857143 4.25  C 28.5602678571429 4.25  30 5.677734375  30 7.4375  L 30 30.8125  C 30 32.572265625  28.5602678571429 34  26.7857142857143 34  L 3.21428571428571 34  C 1.43973214285714 34  0 32.572265625  0 30.8125  L 0 7.4375  C 0 5.677734375  1.43973214285714 4.25  3.21428571428571 4.25  L 6.42857142857143 4.25  L 6.42857142857143 0.796875  C 6.42857142857143 0.35859375  6.79017857142857 0  7.23214285714286 0  L 9.91071428571428 0  C 10.3526785714286 0  10.7142857142857 0.35859375  10.7142857142857 0.796875  L 10.7142857142857 4.25  L 19.2857142857143 4.25  L 19.2857142857143 0.796875  C 19.2857142857143 0.35859375  19.6473214285714 0  20.0892857142857 0  L 22.7678571428571 0  C 23.2098214285714 0  23.5714285714286 0.35859375  23.5714285714286 0.796875  L 23.5714285714286 4.25  L 26.7857142857143 4.25  Z M 26.3839285714286 30.8125  C 26.6049107142857 30.8125  26.7857142857143 30.633203125  26.7857142857143 30.4140625  L 26.7857142857143 11  L 3.21428571428571 11  L 3.21428571428571 30.4140625  C 3.21428571428571 30.633203125  3.39508928571429 30.8125  3.61607142857143 30.8125  L 26.3839285714286 30.8125  Z " fill-rule="nonzero" fill="#000000" stroke="none" transform="matrix(1 0 0 1 924 1321 )" />
  </g>
</svg>