<?xml version="1.0" encoding="utf-8"?>
<svg version="1.1" xmlns:xlink="http://www.w3.org/1999/xlink" width="29px" height="24px" xmlns="http://www.w3.org/2000/svg">
  <defs>
    <mask fill="white" id="clip337">
      <path d="M 27.8321227645314 24  L 1.16791306444413 23.9999776197378  C 0.731589491214474 23.3170145350319  0.347759762509275 22.5966821167376  0.0216418958215882 21.8441401611483  L 12.9755506290968 0.0690276373244144  C 13.4765954228167 0.0233393054610404  13.9850790436036 0  14.5 0  C 15.0149209563964 0  15.5234045771833 0.0233393054610404  16.0244481315213 0.0690409791662156  L 28.9783580436788 21.8441400227574  C 28.6522402375154 22.5966821166936  28.2684105087903 23.3170145350283  27.8321227645314 24  Z " fill-rule="evenodd" />
    </mask>
  </defs>
  <g transform="matrix(1 0 0 1 -465 -433 )">
    <path d="M 27.8321227645314 24  L 1.16791306444413 23.9999776197378  C 0.731589491214474 23.3170145350319  0.347759762509275 22.5966821167376  0.0216418958215882 21.8441401611483  L 12.9755506290968 0.0690276373244144  C 13.4765954228167 0.0233393054610404  13.9850790436036 0  14.5 0  C 15.0149209563964 0  15.5234045771833 0.0233393054610404  16.0244481315213 0.0690409791662156  L 28.9783580436788 21.8441400227574  C 28.6522402375154 22.5966821166936  28.2684105087903 23.3170145350283  27.8321227645314 24  Z " fill-rule="nonzero" fill="#ff0000" stroke="none" transform="matrix(1 0 0 1 465 433 )" />
    <path d="M 27.8321227645314 24  L 1.16791306444413 23.9999776197378  C 0.731589491214474 23.3170145350319  0.347759762509275 22.5966821167376  0.0216418958215882 21.8441401611483  L 12.9755506290968 0.0690276373244144  C 13.4765954228167 0.0233393054610404  13.9850790436036 0  14.5 0  C 15.0149209563964 0  15.5234045771833 0.0233393054610404  16.0244481315213 0.0690409791662156  L 28.9783580436788 21.8441400227574  C 28.6522402375154 22.5966821166936  28.2684105087903 23.3170145350283  27.8321227645314 24  Z " stroke-width="2" stroke="#797979" fill="none" transform="matrix(1 0 0 1 465 433 )" mask="url(#clip337)" />
  </g>
</svg>