<?xml version="1.0" encoding="utf-8"?>
<svg version="1.1" xmlns:xlink="http://www.w3.org/1999/xlink" width="320px" height="176px" xmlns="http://www.w3.org/2000/svg">
  <g transform="matrix(1 0 0 1 -275 -1232 )">
    <path d="M 275 1232  L 595 1232  L 595 1408  L 275 1408  L 275 1232  " fill-rule="nonzero" fill="#cccccc" stroke="none" />
    <path d="M 287 1244  L 583 1244  L 583 1396  L 287 1396  L 287 1244  " fill-rule="nonzero" fill="#ffffff" stroke="none" />
    <path d="M 454.6 1284.8  C 447.208 1284.8  441.4 1278.992  441.4 1271.6  C 441.4 1264.208  447.208 1258.4  454.6 1258.4  C 461.992 1258.4  467.8 1264.208  467.8 1271.6  C 467.8 1278.992  461.992 1284.8  454.6 1284.8  " fill-rule="nonzero" fill="#cccccc" stroke="none" />
    <path d="M 292 1392  L 292 1313.35  L 363.75 1277.6  L 464.2 1344.81  L 521.6 1299.05  L 579 1344.81  L 579 1392  L 292 1392  " fill-rule="nonzero" fill="#169bd5" stroke="none" />
  </g>
</svg>