<?xml version="1.0" encoding="utf-8"?>
<svg version="1.1" xmlns:xlink="http://www.w3.org/1999/xlink" width="192px" height="194px" xmlns="http://www.w3.org/2000/svg">
  <g transform="matrix(1 0 0 1 -272 -318 )">
    <path d="M 272 318  L 464 318  L 464 512  L 272 512  L 272 318  " fill-rule="nonzero" fill="#cccccc" stroke="none" />
    <path d="M 285 331  L 451 331  L 451 499  L 285 499  L 285 331  " fill-rule="nonzero" fill="#ffffff" stroke="none" />
    <path d="M 386.24 375.9  C 378.176 375.9  371.84 369.564  371.84 361.5  C 371.84 353.436  378.176 347.1  386.24 347.1  C 394.304 347.1  400.64 353.436  400.64 361.5  C 400.64 369.564  394.304 375.9  386.24 375.9  " fill-rule="nonzero" fill="#cccccc" stroke="none" />
    <path d="M 290 494  L 290 407.1  L 329 367.6  L 383.6 399.2  L 414.8 391.3  L 446 399.2  L 446 494  L 290 494  " fill-rule="nonzero" fill="#169bd5" stroke="none" />
  </g>
</svg>