<?xml version="1.0" encoding="utf-8"?>
<svg version="1.1" xmlns:xlink="http://www.w3.org/1999/xlink" width="20px" height="20px" xmlns="http://www.w3.org/2000/svg">
  <g transform="matrix(1 0 0 1 -676 -316 )">
    <path d="M 686 316  C 691.6 316  696 320.4  696 326  C 696 331.6  691.6 336  686 336  C 680.4 336  676 331.6  676 326  C 676 320.4  680.4 316  686 316  Z " fill-rule="nonzero" fill="#00b90c" stroke="none" />
    <path d="M 686 316.5  C 691.32 316.5  695.5 320.68  695.5 326  C 695.5 331.32  691.32 335.5  686 335.5  C 680.68 335.5  676.5 331.32  676.5 326  C 676.5 320.68  680.68 316.5  686 316.5  Z " stroke-width="1" stroke="#797979" fill="none" />
  </g>
</svg>