<?xml version="1.0" encoding="utf-8"?>
<svg version="1.1" xmlns:xlink="http://www.w3.org/1999/xlink" width="244px" height="194px" xmlns="http://www.w3.org/2000/svg">
  <g transform="matrix(1 0 0 1 -21 -118 )">
    <path d="M 21 118  L 265 118  L 265 312  L 21 312  L 21 118  " fill-rule="nonzero" fill="#cccccc" stroke="none" />
    <path d="M 35 132  L 251 132  L 251 298  L 35 298  L 35 132  " fill-rule="nonzero" fill="#ffffff" stroke="none" />
    <path d="M 162.43 176.2  C 154.282 176.2  147.88 169.798  147.88 161.65  C 147.88 153.502  154.282 147.1  162.43 147.1  C 170.578 147.1  176.98 153.502  176.98 161.65  C 176.98 169.798  170.578 176.2  162.43 176.2  " fill-rule="nonzero" fill="#cccccc" stroke="none" />
    <path d="M 40 293  L 40 207.2  L 91.5 168.2  L 163.6 218.580327868852  L 204.8 191.6  L 246 218.580327868852  L 246 293  L 40 293  " fill-rule="nonzero" fill="#169bd5" stroke="none" />
  </g>
</svg>