<?xml version="1.0" encoding="utf-8"?>
<svg version="1.1" xmlns:xlink="http://www.w3.org/1999/xlink" width="9px" height="10px" xmlns="http://www.w3.org/2000/svg">
  <g transform="matrix(1 0 0 1 -161 -354 )">
    <path d="M 165.5 354  C 168.02 354  170 356.2  170 359  C 170 361.8  168.02 364  165.5 364  C 162.98 364  161 361.8  161 359  C 161 356.2  162.98 354  165.5 354  Z " fill-rule="nonzero" fill="#ffffff" stroke="none" />
    <path d="M 165.5 354.5  C 167.74 354.5  169.5 356.48  169.5 359  C 169.5 361.52  167.74 363.5  165.5 363.5  C 163.26 363.5  161.5 361.52  161.5 359  C 161.5 356.48  163.26 354.5  165.5 354.5  Z " stroke-width="1" stroke="#0000ff" fill="none" />
  </g>
</svg>