<?xml version="1.0" encoding="utf-8"?>
<svg version="1.1" xmlns:xlink="http://www.w3.org/1999/xlink" width="15px" height="10px" xmlns="http://www.w3.org/2000/svg">
  <g transform="matrix(1 0 0 1 -244 -544 )">
    <path d="M 14.8496993987977 1.03092783505151  C 14.9498997995993 1.14547537227933  15 1.27720504009169  15 1.42611683848781  C 15 1.57502863688432  14.9498997995993 1.70675830469629  14.8496993987977 1.8213058419245  L 7.84569138276555 9.82817869415808  C 7.74549098196394 9.9427262313859  7.63026052104215 10  7.5 10  C 7.36973947895785 10  7.25450901803606 9.9427262313859  7.15430861723445 9.82817869415808  L 0.150300601202332 1.8213058419245  C 0.0501002004007205 1.70675830469629  0 1.57502863688432  0 1.42611683848781  C 0 1.27720504009169  0.0501002004007205 1.14547537227933  0.150300601202332 1.03092783505151  L 0.901803607214504 0.171821305841919  C 1.00200400801594 0.0572737686141037  1.11723446893791 0  1.24749498997988 0  C 1.37775551102203 0  1.49298597194382 0.0572737686141037  1.59318637274544 0.171821305841919  L 7.5 6.92439862542961  L 13.4068136272546 0.171821305841919  C 13.5070140280562 0.0572737686141037  13.622244488978 0  13.7525050100201 0  C 13.8827655310621 0  13.9979959919841 0.0572737686141037  14.0981963927855 0.171821305841919  L 14.8496993987977 1.03092783505151  Z " fill-rule="nonzero" fill="#dcdfe6" stroke="none" transform="matrix(1 0 0 1 244 544 )" />
  </g>
</svg>