<?xml version="1.0" encoding="utf-8"?>
<svg version="1.1" xmlns:xlink="http://www.w3.org/1999/xlink" width="600px" height="340px" xmlns="http://www.w3.org/2000/svg">
  <g transform="matrix(1 0 0 1 -1040 -259 )">
    <path d="M 1040 259  L 1640 259  L 1640 599  L 1040 599  L 1040 259  " fill-rule="nonzero" fill="#cccccc" stroke="none" />
    <path d="M 1064 283  L 1616 283  L 1616 575  L 1064 575  L 1064 283  " fill-rule="nonzero" fill="#ffffff" stroke="none" />
    <path d="M 1377.5 361  C 1363.22 361  1352 349.78  1352 335.5  C 1352 321.22  1363.22 310  1377.5 310  C 1391.78 310  1403 321.22  1403 335.5  C 1403 349.78  1391.78 361  1377.5 361  " fill-rule="nonzero" fill="#cccccc" stroke="none" />
    <path d="M 1073 567  L 1073 415.75  L 1206.75 347  L 1394 473.5  L 1501 388.25  L 1608 473.5  L 1608 567  L 1073 567  " fill-rule="nonzero" fill="#169bd5" stroke="none" />
  </g>
</svg>