<?xml version="1.0" encoding="utf-8"?>
<svg version="1.1" xmlns:xlink="http://www.w3.org/1999/xlink" width="50px" height="50px" xmlns="http://www.w3.org/2000/svg">
  <g transform="matrix(1 0 0 1 -2502 -716 )">
    <path d="M 34.6774193548387 19.3548387096774  C 34.6774193548387 14.0120967741935  30.3427419354839 9.67741935483871  25 9.67741935483871  C 19.6572580645161 9.67741935483871  15.3225806451613 14.0120967741935  15.3225806451613 19.3548387096774  C 15.3225806451613 24.6975806451613  19.6572580645161 29.0322580645161  25 29.0322580645161  C 30.3427419354839 29.0322580645161  34.6774193548387 24.6975806451613  34.6774193548387 19.3548387096774  Z M 29.8387096774194 19.3548387096774  C 29.8387096774194 22.0262096774194  27.6713709677419 24.1935483870968  25 24.1935483870968  C 22.3286290322581 24.1935483870968  20.1612903225806 22.0262096774194  20.1612903225806 19.3548387096774  C 20.1612903225806 16.6834677419355  22.3286290322581 14.5161290322581  25 14.5161290322581  C 27.6713709677419 14.5161290322581  29.8387096774194 16.6834677419355  29.8387096774194 19.3548387096774  Z M 50 25  C 50 11.1895161290323  38.8104838709677 0  25 0  C 11.1895161290323 0  0 11.1895161290323  0 25  C 0 38.8104838709677  11.1895161290323 50  25 50  C 38.8104838709677 50  50 38.8104838709677  50 25  Z M 38.1149193548387 40.2822580645161  C 34.5866935483871 43.3165322580645  30.0100806451613 45.1612903225806  25 45.1612903225806  C 19.9899193548387 45.1612903225806  15.4133064516129 43.3165322580645  11.8850806451613 40.2822580645161  C 13.3870967741935 37.9637096774194  15.9576612903226 36.3911290322581  18.9012096774194 36.3004032258065  C 20.9979838709677 36.945564516129  22.9939516129032 37.2681451612903  25 37.2681451612903  C 27.0060483870968 37.2681451612903  29.0020161290323 36.9556451612903  31.0987903225806 36.3004032258065  C 34.0423387096774 36.4012096774194  36.6129032258064 37.9637096774194  38.1149193548387 40.2822580645161  Z M 45.1612903225806 25  C 45.1612903225806 29.3548387096774  43.7600806451613 33.3870967741935  41.4012096774194 36.6834677419355  C 38.9415322580645 33.5181451612903  35.1411290322581 31.4516129032258  30.8064516129032 31.4516129032258  C 29.7782258064516 31.4516129032258  28.1854838709677 32.4193548387097  25 32.4193548387097  C 21.8245967741936 32.4193548387097  20.2217741935484 31.4516129032258  19.1935483870968 31.4516129032258  C 14.8689516129032 31.4516129032258  11.0685483870968 33.5181451612903  8.59879032258065 36.6834677419355  C 6.23991935483871 33.3870967741935  4.83870967741936 29.3548387096774  4.83870967741936 25  C 4.83870967741936 13.8810483870968  13.8810483870968 4.83870967741936  25 4.83870967741936  C 36.1189516129032 4.83870967741936  45.1612903225806 13.8810483870968  45.1612903225806 25  Z " fill-rule="nonzero" fill="#000000" stroke="none" transform="matrix(1 0 0 1 2502 716 )" />
  </g>
</svg>