<?xml version="1.0" encoding="utf-8"?>
<svg version="1.1" xmlns:xlink="http://www.w3.org/1999/xlink" width="352px" height="285px" xmlns="http://www.w3.org/2000/svg">
  <g transform="matrix(1 0 0 1 -2502 -318 )">
    <path d="M 2502 318  L 2854 318  L 2854 603  L 2502 603  L 2502 318  " fill-rule="nonzero" fill="#cccccc" stroke="none" />
    <path d="M 2522 338  L 2834 338  L 2834 583  L 2522 583  L 2522 338  " fill-rule="nonzero" fill="#ffffff" stroke="none" />
    <path d="M 2706.415 403.5  C 2694.445 403.5  2685.04 394.095  2685.04 382.125  C 2685.04 370.155  2694.445 360.75  2706.415 360.75  C 2718.385 360.75  2727.79 370.155  2727.79 382.125  C 2727.79 394.095  2718.385 403.5  2706.415 403.5  " fill-rule="nonzero" fill="#cccccc" stroke="none" />
    <path d="M 2529 576  L 2529 448.95  L 2603.5 391.2  L 2707.8 463.78125  L 2767.4 425.85  L 2827 463.78125  L 2827 576  L 2529 576  " fill-rule="nonzero" fill="#169bd5" stroke="none" />
  </g>
</svg>