<?xml version="1.0" encoding="utf-8"?>
<svg version="1.1" xmlns:xlink="http://www.w3.org/1999/xlink" width="22px" height="12px" xmlns="http://www.w3.org/2000/svg">
  <defs>
    <mask fill="white" id="clip228">
      <path d="M 15.4 12  L 22 6  L 15.4 0  L 15.4 3.24  L 0 6  L 15.4 8.76  L 15.4 12  Z " fill-rule="evenodd" />
    </mask>
  </defs>
  <g transform="matrix(1 0 0 1 -760 -267 )">
    <path d="M 15.4 12  L 22 6  L 15.4 0  L 15.4 3.24  L 0 6  L 15.4 8.76  L 15.4 12  Z " fill-rule="nonzero" fill="#ffffff" stroke="none" transform="matrix(1 0 0 1 760 267 )" />
    <path d="M 15.4 12  L 22 6  L 15.4 0  L 15.4 3.24  L 0 6  L 15.4 8.76  L 15.4 12  Z " stroke-width="2" stroke="#797979" fill="none" transform="matrix(1 0 0 1 760 267 )" mask="url(#clip228)" />
  </g>
</svg>