<?xml version="1.0" encoding="utf-8"?>
<svg version="1.1" xmlns:xlink="http://www.w3.org/1999/xlink" width="72px" height="55px" xmlns="http://www.w3.org/2000/svg">
  <g transform="matrix(1 0 0 1 -812 -107 )">
    <path d="M 812 107  L 884 107  L 884 162  L 812 162  L 812 107  " fill-rule="nonzero" fill="#cccccc" stroke="none" />
    <path d="M 816 111  L 880 111  L 880 158  L 816 158  L 816 111  " fill-rule="nonzero" fill="#ffffff" stroke="none" />
    <path d="M 853.565 123.5  C 851.255 123.5  849.44 121.685  849.44 119.375  C 849.44 117.065  851.255 115.25  853.565 115.25  C 855.875 115.25  857.69 117.065  857.69 119.375  C 857.69 121.685  855.875 123.5  853.565 123.5  " fill-rule="nonzero" fill="#cccccc" stroke="none" />
    <path d="M 818 157  L 818 132.8  L 833.25 121.8  L 854.6 136.833333333333  L 866.8 128.4  L 879 136.833333333333  L 879 157  L 818 157  " fill-rule="nonzero" fill="#169bd5" stroke="none" />
  </g>
</svg>