<?xml version="1.0" encoding="utf-8"?>
<svg version="1.1" xmlns:xlink="http://www.w3.org/1999/xlink" width="17px" height="29px" xmlns="http://www.w3.org/2000/svg">
  <g transform="matrix(1 0 0 1 -314 -422 )">
    <path d="M 16.7029126213592 15.5401559454191  C 17.3851132686084 16.9929824561404  16.5983818770227 17.6883040935673  14.804854368932 18.8810916179337  C 13.2974110032362 19.8647173489279  11.2233009708738 20.25477582846  9.85339805825243 20.4017543859649  L 11.0032362459547 21.5662768031189  L 15.2009708737864 25.8795321637427  C 16.7359223300971 27.4962962962963  14.2381877022654 30.0231968810916  12.6867313915858 28.462962962963  C 11.6359223300971 27.3662768031189  10.0954692556634 25.7834307992203  8.48899676375405 24.1327485380117  L 4.29126213592233 28.4573099415205  C 2.73980582524272 30.0118908382066  0.242071197411004 27.4623781676413  1.79352750809062 25.8738791423002  C 2.86084142394822 24.7771929824561  4.38478964401294 23.1943469785575  5.99126213592233 21.5606237816764  L 7.12459546925566 20.3961013645224  C 5.77119741100324 20.2491228070175  3.66407766990291 19.8816764132554  2.14012944983819 18.8754385964912  C 0.346601941747573 17.6883040935673  -0.440129449838187 16.9929824561404  0.253074433656958 15.5401559454191  C 0.660194174757282 14.7148148148148  1.77702265372168 14.0194931773879  3.25695792880259 15.2179337231969  C 3.25695792880259 15.2179337231969  5.25404530744337 16.851656920078  8.47799352750809 16.851656920078  C 11.7019417475728 16.851656920078  13.6990291262136 15.2179337231969  13.6990291262136 15.2179337231969  C 15.1789644012945 14.0251461988304  16.2902912621359 14.7148148148148  16.7029126213592 15.5401559454191  Z M 8.47249190938511 14.6469785575049  C 4.54433656957929 14.6469785575049  1.3368932038835 11.3682261208577  1.3368932038835 7.33196881091618  C 1.3368932038835 3.27875243664717  4.54433656957929 0  8.47249190938511 0  C 12.4006472491909 0  15.6080906148867 3.27875243664717  15.6080906148867 7.33196881091618  C 15.6080906148867 11.3682261208577  12.4006472491909 14.6469785575049  8.47249190938511 14.6469785575049  Z M 8.47249190938511 3.7140350877193  C 6.54142394822007 3.7140350877193  4.96796116504854 5.3307992202729  4.96796116504854 7.33196881091618  C 4.96796116504854 9.31617933723197  6.54142394822007 10.9329434697856  8.47249190938511 10.9329434697856  C 10.4035598705502 10.9329434697856  11.9770226537217 9.31617933723197  11.9770226537217 7.33196881091618  C 11.9770226537217 5.3307992202729  10.4035598705502 3.7140350877193  8.47249190938511 3.7140350877193  Z " fill-rule="nonzero" fill="#000000" stroke="none" transform="matrix(1 0 0 1 314 422 )" />
  </g>
</svg>