<?xml version="1.0" encoding="utf-8"?>
<svg version="1.1" xmlns:xlink="http://www.w3.org/1999/xlink" width="60px" height="46px" xmlns="http://www.w3.org/2000/svg">
  <g transform="matrix(1 0 0 1 -221 -333 )">
    <path d="M 221 333  L 281 333  L 281 379  L 221 379  L 221 333  " fill-rule="nonzero" fill="#cccccc" stroke="none" />
    <path d="M 224 336  L 278 336  L 278 376  L 224 376  L 224 336  " fill-rule="nonzero" fill="#ffffff" stroke="none" />
    <path d="M 255.65 346.8  C 253.718 346.8  252.2 345.282  252.2 343.35  C 252.2 341.418  253.718 339.9  255.65 339.9  C 257.582 339.9  259.1 341.418  259.1 343.35  C 259.1 345.282  257.582 346.8  255.65 346.8  " fill-rule="nonzero" fill="#cccccc" stroke="none" />
    <path d="M 225 375  L 225 354.1  L 238 344.6  L 256.2 357.52  L 266.6 350.3  L 277 357.52  L 277 375  L 225 375  " fill-rule="nonzero" fill="#169bd5" stroke="none" />
  </g>
</svg>